  0
SECTION
  2
HEADER
  9
$ACADVER
  1
AC1021
  9
$ACADMAINTVER
 70
    25
  9
$DWGCODEPAGE
  3
ANSI_1251
  9
$INSBASE
 10
0.0
 20
0.0
 30
0.0
  9
$EXTMIN
 10
1.000000000000000E+20
 20
1.000000000000000E+20
 30
1.000000000000000E+20
  9
$EXTMAX
 10
-1.000000000000000E+20
 20
-1.000000000000000E+20
 30
-1.000000000000000E+20
  9
$LIMMIN
 10
0.0
 20
0.0
  9
$LIMMAX
 10
12.0
 20
9.0
  9
$ORTHOMODE
 70
     0
  9
$REGENMODE
 70
     1
  9
$FILLMODE
 70
     1
  9
$QTEXTMODE
 70
     0
  9
$MIRRTEXT
 70
     1
  9
$LTSCALE
 40
1.0
  9
$ATTMODE
 70
     1
  9
$TEXTSIZE
 40
0.2
  9
$TRACEWID
 40
0.05
  9
$TEXTSTYLE
  7
Standard
  9
$CLAYER
  8
0
  9
$CELTYPE
  6
ByLayer
  9
$CECOLOR
 62
   256
  9
$CELTSCALE
 40
1.0
  9
$DISPSILH
 70
     0
  9
$DIMSCALE
 40
1.0
  9
$DIMASZ
 40
0.18
  9
$DIMEXO
 40
0.0625
  9
$DIMDLI
 40
0.38
  9
$DIMRND
 40
0.0
  9
$DIMDLE
 40
0.0
  9
$DIMEXE
 40
0.18
  9
$DIMTP
 40
0.0
  9
$DIMTM
 40
0.0
  9
$DIMTXT
 40
0.18
  9
$DIMCEN
 40
0.09
  9
$DIMTSZ
 40
0.0
  9
$DIMTOL
 70
     0
  9
$DIMLIM
 70
     0
  9
$DIMTIH
 70
     1
  9
$DIMTOH
 70
     1
  9
$DIMSE1
 70
     0
  9
$DIMSE2
 70
     0
  9
$DIMTAD
 70
     0
  9
$DIMZIN
 70
     0
  9
$DIMBLK
  1

  9
$DIMASO
 70
     1
  9
$DIMSHO
 70
     1
  9
$DIMPOST
  1

  9
$DIMAPOST
  1

  9
$DIMALT
 70
     0
  9
$DIMALTD
 70
     2
  9
$DIMALTF
 40
25.4
  9
$DIMLFAC
 40
1.0
  9
$DIMTOFL
 70
     0
  9
$DIMTVP
 40
0.0
  9
$DIMTIX
 70
     0
  9
$DIMSOXD
 70
     0
  9
$DIMSAH
 70
     0
  9
$DIMBLK1
  1

  9
$DIMBLK2
  1

  9
$DIMSTYLE
  2
Standard
  9
$DIMCLRD
 70
     0
  9
$DIMCLRE
 70
     0
  9
$DIMCLRT
 70
     0
  9
$DIMTFAC
 40
1.0
  9
$DIMGAP
 40
0.09
  9
$DIMJUST
 70
     0
  9
$DIMSD1
 70
     0
  9
$DIMSD2
 70
     0
  9
$DIMTOLJ
 70
     1
  9
$DIMTZIN
 70
     0
  9
$DIMALTZ
 70
     0
  9
$DIMALTTZ
 70
     0
  9
$DIMUPT
 70
     0
  9
$DIMDEC
 70
     4
  9
$DIMTDEC
 70
     4
  9
$DIMALTU
 70
     2
  9
$DIMALTTD
 70
     2
  9
$DIMTXSTY
  7
Standard
  9
$DIMAUNIT
 70
     0
  9
$DIMADEC
 70
     0
  9
$DIMALTRND
 40
0.0
  9
$DIMAZIN
 70
     0
  9
$DIMDSEP
 70
    46
  9
$DIMATFIT
 70
     3
  9
$DIMFRAC
 70
     0
  9
$DIMLDRBLK
  1

  9
$DIMLUNIT
 70
     2
  9
$DIMLWD
 70
    -2
  9
$DIMLWE
 70
    -2
  9
$DIMTMOVE
 70
     0
  9
$DIMFXL
 40
1.0
  9
$DIMFXLON
 70
     0
  9
$DIMJOGANG
 40
0.7853981633974483
  9
$DIMTFILL
 70
     0
  9
$DIMTFILLCLR
 70
     0
  9
$DIMARCSYM
 70
     0
  9
$DIMLTYPE
  6

  9
$DIMLTEX1
  6

  9
$DIMLTEX2
  6

  9
$LUNITS
 70
     2
  9
$LUPREC
 70
     4
  9
$SKETCHINC
 40
0.1
  9
$FILLETRAD
 40
0.5
  9
$AUNITS
 70
     0
  9
$AUPREC
 70
     0
  9
$MENU
  1
.
  9
$ELEVATION
 40
0.0
  9
$PELEVATION
 40
0.0
  9
$THICKNESS
 40
0.0
  9
$LIMCHECK
 70
     0
  9
$CHAMFERA
 40
0.5
  9
$CHAMFERB
 40
0.5
  9
$CHAMFERC
 40
1.0
  9
$CHAMFERD
 40
0.0
  9
$SKPOLY
 70
     0
  9
$TDCREATE
 40
2458873.814457349
  9
$TDUCREATE
 40
2458873.689457349
  9
$TDUPDATE
 40
2458873.814460394
  9
$TDUUPDATE
 40
2458873.689460394
  9
$TDINDWG
 40
0.0000000116
  9
$TDUSRTIMER
 40
0.0000000116
  9
$USRTIMER
 70
     1
  9
$ANGBASE
 50
0.0
  9
$ANGDIR
 70
     0
  9
$PDMODE
 70
     0
  9
$PDSIZE
 40
0.0
  9
$PLINEWID
 40
0.0
  9
$SPLFRAME
 70
     0
  9
$SPLINETYPE
 70
     6
  9
$SPLINESEGS
 70
     8
  9
$HANDSEED
  5
8A
  9
$SURFTAB1
 70
     6
  9
$SURFTAB2
 70
     6
  9
$SURFTYPE
 70
     6
  9
$SURFU
 70
     6
  9
$SURFV
 70
     6
  9
$UCSBASE
  2

  9
$UCSNAME
  2

  9
$UCSORG
 10
0.0
 20
0.0
 30
0.0
  9
$UCSXDIR
 10
1.0
 20
0.0
 30
0.0
  9
$UCSYDIR
 10
0.0
 20
1.0
 30
0.0
  9
$UCSORTHOREF
  2

  9
$UCSORTHOVIEW
 70
     0
  9
$UCSORGTOP
 10
0.0
 20
0.0
 30
0.0
  9
$UCSORGBOTTOM
 10
0.0
 20
0.0
 30
0.0
  9
$UCSORGLEFT
 10
0.0
 20
0.0
 30
0.0
  9
$UCSORGRIGHT
 10
0.0
 20
0.0
 30
0.0
  9
$UCSORGFRONT
 10
0.0
 20
0.0
 30
0.0
  9
$UCSORGBACK
 10
0.0
 20
0.0
 30
0.0
  9
$PUCSBASE
  2

  9
$PUCSNAME
  2

  9
$PUCSORG
 10
0.0
 20
0.0
 30
0.0
  9
$PUCSXDIR
 10
1.0
 20
0.0
 30
0.0
  9
$PUCSYDIR
 10
0.0
 20
1.0
 30
0.0
  9
$PUCSORTHOREF
  2

  9
$PUCSORTHOVIEW
 70
     0
  9
$PUCSORGTOP
 10
0.0
 20
0.0
 30
0.0
  9
$PUCSORGBOTTOM
 10
0.0
 20
0.0
 30
0.0
  9
$PUCSORGLEFT
 10
0.0
 20
0.0
 30
0.0
  9
$PUCSORGRIGHT
 10
0.0
 20
0.0
 30
0.0
  9
$PUCSORGFRONT
 10
0.0
 20
0.0
 30
0.0
  9
$PUCSORGBACK
 10
0.0
 20
0.0
 30
0.0
  9
$USERI1
 70
     0
  9
$USERI2
 70
     0
  9
$USERI3
 70
     0
  9
$USERI4
 70
     0
  9
$USERI5
 70
     0
  9
$USERR1
 40
0.0
  9
$USERR2
 40
0.0
  9
$USERR3
 40
0.0
  9
$USERR4
 40
0.0
  9
$USERR5
 40
0.0
  9
$WORLDVIEW
 70
     1
  9
$SHADEDGE
 70
     3
  9
$SHADEDIF
 70
    70
  9
$TILEMODE
 70
     1
  9
$MAXACTVP
 70
    64
  9
$PINSBASE
 10
0.0
 20
0.0
 30
0.0
  9
$PLIMCHECK
 70
     0
  9
$PEXTMIN
 10
1.000000000000000E+20
 20
1.000000000000000E+20
 30
1.000000000000000E+20
  9
$PEXTMAX
 10
-1.000000000000000E+20
 20
-1.000000000000000E+20
 30
-1.000000000000000E+20
  9
$PLIMMIN
 10
0.0
 20
0.0
  9
$PLIMMAX
 10
12.0
 20
9.0
  9
$UNITMODE
 70
     0
  9
$VISRETAIN
 70
     1
  9
$PLINEGEN
 70
     0
  9
$PSLTSCALE
 70
     1
  9
$TREEDEPTH
 70
  3020
  9
$CMLSTYLE
  2
Standard
  9
$CMLJUST
 70
     0
  9
$CMLSCALE
 40
1.0
  9
$PROXYGRAPHICS
 70
     1
  9
$MEASUREMENT
 70
     0
  9
$CELWEIGHT
370
    -1
  9
$ENDCAPS
280
     0
  9
$JOINSTYLE
280
     0
  9
$LWDISPLAY
290
     1
  9
$INSUNITS
 70
     1
  9
$HYPERLINKBASE
  1

  9
$STYLESHEET
  1

  9
$XEDIT
290
     1
  9
$CEPSNTYPE
380
     0
  9
$PSTYLEMODE
290
     1
  9
$FINGERPRINTGUID
  2
{87E5F545-B60B-4001-9455-3ACA1E3A765E}
  9
$VERSIONGUID
  2
{FAEB1C32-E019-11D5-929B-00C0DF256EC4}
  9
$EXTNAMES
290
     1
  9
$PSVPSCALE
 40
0.0
  9
$OLESTARTUP
290
     0
  9
$SORTENTS
280
   127
  9
$INDEXCTL
280
     0
  9
$HIDETEXT
280
     1
  9
$XCLIPFRAME
290
     0
  9
$HALOGAP
280
     0
  9
$OBSCOLOR
 70
   257
  9
$OBSLTYPE
280
     0
  9
$INTERSECTIONDISPLAY
280
     0
  9
$INTERSECTIONCOLOR
 70
   257
  9
$DIMASSOC
280
     2
  9
$PROJECTNAME
  1

  9
$CAMERADISPLAY
290
     0
  9
$LENSLENGTH
 40
50.0
  9
$CAMERAHEIGHT
 40
0.0
  9
$STEPSPERSEC
 40
2.0
  9
$STEPSIZE
 40
6.0
  9
$3DDWFPREC
 40
2.0
  9
$PSOLWIDTH
 40
0.25
  9
$PSOLHEIGHT
 40
4.0
  9
$LOFTANG1
 40
1.570796326794897
  9
$LOFTANG2
 40
1.570796326794897
  9
$LOFTMAG1
 40
0.0
  9
$LOFTMAG2
 40
0.0
  9
$LOFTPARAM
 70
     7
  9
$LOFTNORMALS
280
     1
  9
$LATITUDE
 40
37.795
  9
$LONGITUDE
 40
-122.394
  9
$NORTHDIRECTION
 40
0.0
  9
$TIMEZONE
 70
 -8000
  9
$LIGHTGLYPHDISPLAY
280
     1
  9
$TILEMODELIGHTSYNCH
280
     1
  9
$CMATERIAL
347
3C
  9
$SOLIDHIST
280
     1
  9
$SHOWHIST
280
     1
  9
$DWFFRAME
280
     2
  9
$DGNFRAME
280
     2
  9
$REALWORLDSCALE
290
     1
  9
$INTERFERECOLOR
 62
   256
  9
$CSHADOW
280
     0
  9
$SHADOWPLANELOCATION
 40
0.0
  0
ENDSEC
  0
SECTION
  2
CLASSES
  0
CLASS
  1
ACDBDICTIONARYWDFLT
  2
AcDbDictionaryWithDefault
  3
ObjectDBX Classes
 90
        0
 91
        4
280
     0
281
     0
  0
CLASS
  1
VISUALSTYLE
  2
AcDbVisualStyle
  3
ObjectDBX Classes
 90
     4095
 91
        4
280
     0
281
     0
  0
CLASS
  1
MATERIAL
  2
AcDbMaterial
  3
ObjectDBX Classes
 90
     1153
 91
        4
280
     0
281
     0
  0
CLASS
  1
SUN
  2
AcDbSun
  3
SCENEOE
 90
     1024
 91
        4
280
     0
281
     0
  0
ENDSEC
  0
SECTION
  2
TABLES
  0
TABLE
  2
VPORT
  5
8
330
0
100
AcDbSymbolTable
 70
     1
  0
VPORT
  5
29
330
8
100
AcDbSymbolTableRecord
100
AcDbViewportTableRecord
  2
*Active
 70
     0
 10
0.0
 20
0.0
 11
1.0
 21
1.0
 12
0.0
 22
0.0
 13
0.0
 23
0.0
 14
0.5
 24
0.5
 15
0.5
 25
0.5
 16
0.0
 26
0.0
 36
1.0
 17
299.9999999249995
 27
299.9999999249995
 37
0.0
 40
599.999999849999
 41
1.0
 42
50.0
 43
0.0
 44
0.0
 50
0.0
 51
0.0
 71
     0
 72
   100
 73
     1
 74
     3
 75
     0
 76
     0
 77
     0
 78
     0
281
     0
 65
     1
110
0.0
120
0.0
130
0.0
111
1.0
121
0.0
131
0.0
112
0.0
122
1.0
132
0.0
 79
     0
146
0.0
 60
     3
 61
     5
292
     1
282
     1
141
0.0
142
0.0
 63
   250
361
3F
  0
ENDTAB
  0
TABLE
  2
LTYPE
  5
5
330
0
100
AcDbSymbolTable
 70
     1
  0
LTYPE
  5
14
330
5
100
AcDbSymbolTableRecord
100
AcDbLinetypeTableRecord
  2
ByBlock
 70
     0
  3

 72
    65
 73
     0
 40
0.0
  0
LTYPE
  5
15
330
5
100
AcDbSymbolTableRecord
100
AcDbLinetypeTableRecord
  2
ByLayer
 70
     0
  3

 72
    65
 73
     0
 40
0.0
  0
LTYPE
  5
16
330
5
100
AcDbSymbolTableRecord
100
AcDbLinetypeTableRecord
  2
Continuous
 70
     0
  3
Solid line
 72
    65
 73
     0
 40
0.0
  0
ENDTAB
  0
TABLE
  2
LAYER
  5
2
330
0
100
AcDbSymbolTable
 70
     2
  0
LAYER
  5
10
330
2
100
AcDbSymbolTableRecord
100
AcDbLayerTableRecord
  2
0
 70
     0
 62
     7
  6
Continuous
370
    -3
390
F
347
3E
  0
LAYER
  5
40
330
2
100
AcDbSymbolTableRecord
100
AcDbLayerTableRecord
  2
_U+0421_U+043B_U+043E_U+0439 1
 70
     0
 62
     7
  6
Continuous
370
    -3
390
F
347
3E
  0
ENDTAB
  0
TABLE
  2
STYLE
  5
3
330
0
100
AcDbSymbolTable
 70
     1
  0
STYLE
  5
11
330
3
100
AcDbSymbolTableRecord
100
AcDbTextStyleTableRecord
  2
Standard
 70
     0
 40
0.0
 41
1.0
 50
0.0
 71
     0
 42
0.2
  3
txt
  4

  0
ENDTAB
  0
TABLE
  2
VIEW
  5
6
330
0
100
AcDbSymbolTable
 70
     0
  0
ENDTAB
  0
TABLE
  2
UCS
  5
7
330
0
100
AcDbSymbolTable
 70
     0
  0
ENDTAB
  0
TABLE
  2
APPID
  5
9
330
0
100
AcDbSymbolTable
 70
     1
  0
APPID
  5
12
330
9
100
AcDbSymbolTableRecord
100
AcDbRegAppTableRecord
  2
ACAD
 70
     0
  0
ENDTAB
  0
TABLE
  2
DIMSTYLE
  5
A
330
0
100
AcDbSymbolTable
 70
     1
100
AcDbDimStyleTable
  0
DIMSTYLE
105
27
330
A
100
AcDbSymbolTableRecord
100
AcDbDimStyleTableRecord
  2
Standard
 70
     0
178
     0
340
11
  0
ENDTAB
  0
TABLE
  2
BLOCK_RECORD
  5
1
330
0
100
AcDbSymbolTable
 70
     1
  0
BLOCK_RECORD
  5
1F
330
1
100
AcDbSymbolTableRecord
100
AcDbBlockTableRecord
  2
*Model_Space
340
22
 70
     0
280
     1
281
     0
  0
BLOCK_RECORD
  5
1B
330
1
100
AcDbSymbolTableRecord
100
AcDbBlockTableRecord
  2
*Paper_Space
340
1E
 70
     0
280
     1
281
     0
  0
BLOCK_RECORD
  5
23
330
1
100
AcDbSymbolTableRecord
100
AcDbBlockTableRecord
  2
*Paper_Space0
340
26
 70
     0
280
     1
281
     0
  0
ENDTAB
  0
ENDSEC
  0
SECTION
  2
BLOCKS
  0
BLOCK
  5
20
330
1F
100
AcDbEntity
  8
0
100
AcDbBlockBegin
  2
*Model_Space
 70
     0
 10
0.0
 20
0.0
 30
0.0
  3
*Model_Space
  1

  0
ENDBLK
  5
21
330
1F
100
AcDbEntity
  8
0
100
AcDbBlockEnd
  0
BLOCK
  5
1C
330
1B
100
AcDbEntity
 67
     1
  8
0
100
AcDbBlockBegin
  2
*Paper_Space
 70
     0
 10
0.0
 20
0.0
 30
0.0
  3
*Paper_Space
  1

  0
ENDBLK
  5
1D
330
1B
100
AcDbEntity
 67
     1
  8
0
100
AcDbBlockEnd
  0
BLOCK
  5
24
330
23
100
AcDbEntity
  8
0
100
AcDbBlockBegin
  2
*Paper_Space0
 70
     0
 10
0.0
 20
0.0
 30
0.0
  3
*Paper_Space0
  1

  0
ENDBLK
  5
25
330
23
100
AcDbEntity
  8
0
100
AcDbBlockEnd
  0
ENDSEC
  0
SECTION
  2
ENTITIES
  0
SPLINE
  5
41
330
1F
100
AcDbEntity
  8
_U+0421_U+043B_U+043E_U+0439 1
 62
     7
370
    35
100
AcDbSpline
210
0.0
220
0.0
230
1.0
 70
    11
 71
     3
 72
   776
 73
   772
 74
     0
 42
0.0000000001
 43
0.0000000001
 12
1.0
 22
0.0
 32
0.0
 13
1.0
 23
0.0
 33
0.0
 40
0.0
 40
0.0
 40
0.0
 40
0.0
 40
1.0
 40
1.0
 40
1.0
 40
2.0
 40
2.0
 40
2.0
 40
3.0
 40
3.0
 40
3.0
 40
4.0
 40
4.0
 40
4.0
 40
5.0
 40
5.0
 40
5.0
 40
6.0
 40
6.0
 40
6.0
 40
7.0
 40
7.0
 40
7.0
 40
8.0
 40
8.0
 40
8.0
 40
9.0
 40
9.0
 40
9.0
 40
10.0
 40
10.0
 40
10.0
 40
11.0
 40
11.0
 40
11.0
 40
12.0
 40
12.0
 40
12.0
 40
13.0
 40
13.0
 40
13.0
 40
14.0
 40
14.0
 40
14.0
 40
15.0
 40
15.0
 40
15.0
 40
16.0
 40
16.0
 40
16.0
 40
17.0
 40
17.0
 40
17.0
 40
18.0
 40
18.0
 40
18.0
 40
19.0
 40
19.0
 40
19.0
 40
20.0
 40
20.0
 40
20.0
 40
21.0
 40
21.0
 40
21.0
 40
22.0
 40
22.0
 40
22.0
 40
23.0
 40
23.0
 40
23.0
 40
24.0
 40
24.0
 40
24.0
 40
25.0
 40
25.0
 40
25.0
 40
26.0
 40
26.0
 40
26.0
 40
27.0
 40
27.0
 40
27.0
 40
28.0
 40
28.0
 40
28.0
 40
29.0
 40
29.0
 40
29.0
 40
30.0
 40
30.0
 40
30.0
 40
31.0
 40
31.0
 40
31.0
 40
32.0
 40
32.0
 40
32.0
 40
33.0
 40
33.0
 40
33.0
 40
34.0
 40
34.0
 40
34.0
 40
35.0
 40
35.0
 40
35.0
 40
36.0
 40
36.0
 40
36.0
 40
37.0
 40
37.0
 40
37.0
 40
38.0
 40
38.0
 40
38.0
 40
39.0
 40
39.0
 40
39.0
 40
40.0
 40
40.0
 40
40.0
 40
41.0
 40
41.0
 40
41.0
 40
42.0
 40
42.0
 40
42.0
 40
43.0
 40
43.0
 40
43.0
 40
44.0
 40
44.0
 40
44.0
 40
45.0
 40
45.0
 40
45.0
 40
46.0
 40
46.0
 40
46.0
 40
47.0
 40
47.0
 40
47.0
 40
48.0
 40
48.0
 40
48.0
 40
49.0
 40
49.0
 40
49.0
 40
50.0
 40
50.0
 40
50.0
 40
51.0
 40
51.0
 40
51.0
 40
52.0
 40
52.0
 40
52.0
 40
53.0
 40
53.0
 40
53.0
 40
54.0
 40
54.0
 40
54.0
 40
55.0
 40
55.0
 40
55.0
 40
56.0
 40
56.0
 40
56.0
 40
57.0
 40
57.0
 40
57.0
 40
58.0
 40
58.0
 40
58.0
 40
59.0
 40
59.0
 40
59.0
 40
60.0
 40
60.0
 40
60.0
 40
61.0
 40
61.0
 40
61.0
 40
62.0
 40
62.0
 40
62.0
 40
63.0
 40
63.0
 40
63.0
 40
64.0
 40
64.0
 40
64.0
 40
65.0
 40
65.0
 40
65.0
 40
66.0
 40
66.0
 40
66.0
 40
67.0
 40
67.0
 40
67.0
 40
68.0
 40
68.0
 40
68.0
 40
69.0
 40
69.0
 40
69.0
 40
70.0
 40
70.0
 40
70.0
 40
71.0
 40
71.0
 40
71.0
 40
72.0
 40
72.0
 40
72.0
 40
73.0
 40
73.0
 40
73.0
 40
74.0
 40
74.0
 40
74.0
 40
75.0
 40
75.0
 40
75.0
 40
76.0
 40
76.0
 40
76.0
 40
77.0
 40
77.0
 40
77.0
 40
78.0
 40
78.0
 40
78.0
 40
79.0
 40
79.0
 40
79.0
 40
80.0
 40
80.0
 40
80.0
 40
81.0
 40
81.0
 40
81.0
 40
82.0
 40
82.0
 40
82.0
 40
83.0
 40
83.0
 40
83.0
 40
84.0
 40
84.0
 40
84.0
 40
85.0
 40
85.0
 40
85.0
 40
86.0
 40
86.0
 40
86.0
 40
87.0
 40
87.0
 40
87.0
 40
88.0
 40
88.0
 40
88.0
 40
89.0
 40
89.0
 40
89.0
 40
90.0
 40
90.0
 40
90.0
 40
91.0
 40
91.0
 40
91.0
 40
92.0
 40
92.0
 40
92.0
 40
93.0
 40
93.0
 40
93.0
 40
94.0
 40
94.0
 40
94.0
 40
95.0
 40
95.0
 40
95.0
 40
96.0
 40
96.0
 40
96.0
 40
97.0
 40
97.0
 40
97.0
 40
98.0
 40
98.0
 40
98.0
 40
99.0
 40
99.0
 40
99.0
 40
100.0
 40
100.0
 40
100.0
 40
101.0
 40
101.0
 40
101.0
 40
102.0
 40
102.0
 40
102.0
 40
103.0
 40
103.0
 40
103.0
 40
104.0
 40
104.0
 40
104.0
 40
105.0
 40
105.0
 40
105.0
 40
106.0
 40
106.0
 40
106.0
 40
107.0
 40
107.0
 40
107.0
 40
108.0
 40
108.0
 40
108.0
 40
109.0
 40
109.0
 40
109.0
 40
110.0
 40
110.0
 40
110.0
 40
111.0
 40
111.0
 40
111.0
 40
112.0
 40
112.0
 40
112.0
 40
113.0
 40
113.0
 40
113.0
 40
114.0
 40
114.0
 40
114.0
 40
115.0
 40
115.0
 40
115.0
 40
116.0
 40
116.0
 40
116.0
 40
117.0
 40
117.0
 40
117.0
 40
118.0
 40
118.0
 40
118.0
 40
119.0
 40
119.0
 40
119.0
 40
120.0
 40
120.0
 40
120.0
 40
121.0
 40
121.0
 40
121.0
 40
122.0
 40
122.0
 40
122.0
 40
123.0
 40
123.0
 40
123.0
 40
124.0
 40
124.0
 40
124.0
 40
125.0
 40
125.0
 40
125.0
 40
126.0
 40
126.0
 40
126.0
 40
127.0
 40
127.0
 40
127.0
 40
128.0
 40
128.0
 40
128.0
 40
129.0
 40
129.0
 40
129.0
 40
130.0
 40
130.0
 40
130.0
 40
131.0
 40
131.0
 40
131.0
 40
132.0
 40
132.0
 40
132.0
 40
133.0
 40
133.0
 40
133.0
 40
134.0
 40
134.0
 40
134.0
 40
135.0
 40
135.0
 40
135.0
 40
136.0
 40
136.0
 40
136.0
 40
137.0
 40
137.0
 40
137.0
 40
138.0
 40
138.0
 40
138.0
 40
139.0
 40
139.0
 40
139.0
 40
140.0
 40
140.0
 40
140.0
 40
141.0
 40
141.0
 40
141.0
 40
142.0
 40
142.0
 40
142.0
 40
143.0
 40
143.0
 40
143.0
 40
144.0
 40
144.0
 40
144.0
 40
145.0
 40
145.0
 40
145.0
 40
146.0
 40
146.0
 40
146.0
 40
147.0
 40
147.0
 40
147.0
 40
148.0
 40
148.0
 40
148.0
 40
149.0
 40
149.0
 40
149.0
 40
150.0
 40
150.0
 40
150.0
 40
151.0
 40
151.0
 40
151.0
 40
152.0
 40
152.0
 40
152.0
 40
153.0
 40
153.0
 40
153.0
 40
154.0
 40
154.0
 40
154.0
 40
155.0
 40
155.0
 40
155.0
 40
156.0
 40
156.0
 40
156.0
 40
157.0
 40
157.0
 40
157.0
 40
158.0
 40
158.0
 40
158.0
 40
159.0
 40
159.0
 40
159.0
 40
160.0
 40
160.0
 40
160.0
 40
161.0
 40
161.0
 40
161.0
 40
162.0
 40
162.0
 40
162.0
 40
163.0
 40
163.0
 40
163.0
 40
164.0
 40
164.0
 40
164.0
 40
165.0
 40
165.0
 40
165.0
 40
166.0
 40
166.0
 40
166.0
 40
167.0
 40
167.0
 40
167.0
 40
168.0
 40
168.0
 40
168.0
 40
169.0
 40
169.0
 40
169.0
 40
170.0
 40
170.0
 40
170.0
 40
171.0
 40
171.0
 40
171.0
 40
172.0
 40
172.0
 40
172.0
 40
173.0
 40
173.0
 40
173.0
 40
174.0
 40
174.0
 40
174.0
 40
175.0
 40
175.0
 40
175.0
 40
176.0
 40
176.0
 40
176.0
 40
177.0
 40
177.0
 40
177.0
 40
178.0
 40
178.0
 40
178.0
 40
179.0
 40
179.0
 40
179.0
 40
180.0
 40
180.0
 40
180.0
 40
181.0
 40
181.0
 40
181.0
 40
182.0
 40
182.0
 40
182.0
 40
183.0
 40
183.0
 40
183.0
 40
184.0
 40
184.0
 40
184.0
 40
185.0
 40
185.0
 40
185.0
 40
186.0
 40
186.0
 40
186.0
 40
187.0
 40
187.0
 40
187.0
 40
188.0
 40
188.0
 40
188.0
 40
189.0
 40
189.0
 40
189.0
 40
190.0
 40
190.0
 40
190.0
 40
191.0
 40
191.0
 40
191.0
 40
192.0
 40
192.0
 40
192.0
 40
193.0
 40
193.0
 40
193.0
 40
194.0
 40
194.0
 40
194.0
 40
195.0
 40
195.0
 40
195.0
 40
196.0
 40
196.0
 40
196.0
 40
197.0
 40
197.0
 40
197.0
 40
198.0
 40
198.0
 40
198.0
 40
199.0
 40
199.0
 40
199.0
 40
200.0
 40
200.0
 40
200.0
 40
201.0
 40
201.0
 40
201.0
 40
202.0
 40
202.0
 40
202.0
 40
203.0
 40
203.0
 40
203.0
 40
204.0
 40
204.0
 40
204.0
 40
205.0
 40
205.0
 40
205.0
 40
206.0
 40
206.0
 40
206.0
 40
207.0
 40
207.0
 40
207.0
 40
208.0
 40
208.0
 40
208.0
 40
209.0
 40
209.0
 40
209.0
 40
210.0
 40
210.0
 40
210.0
 40
211.0
 40
211.0
 40
211.0
 40
212.0
 40
212.0
 40
212.0
 40
213.0
 40
213.0
 40
213.0
 40
214.0
 40
214.0
 40
214.0
 40
215.0
 40
215.0
 40
215.0
 40
216.0
 40
216.0
 40
216.0
 40
217.0
 40
217.0
 40
217.0
 40
218.0
 40
218.0
 40
218.0
 40
219.0
 40
219.0
 40
219.0
 40
220.0
 40
220.0
 40
220.0
 40
221.0
 40
221.0
 40
221.0
 40
222.0
 40
222.0
 40
222.0
 40
223.0
 40
223.0
 40
223.0
 40
224.0
 40
224.0
 40
224.0
 40
225.0
 40
225.0
 40
225.0
 40
226.0
 40
226.0
 40
226.0
 40
227.0
 40
227.0
 40
227.0
 40
228.0
 40
228.0
 40
228.0
 40
229.0
 40
229.0
 40
229.0
 40
230.0
 40
230.0
 40
230.0
 40
231.0
 40
231.0
 40
231.0
 40
232.0
 40
232.0
 40
232.0
 40
233.0
 40
233.0
 40
233.0
 40
234.0
 40
234.0
 40
234.0
 40
235.0
 40
235.0
 40
235.0
 40
236.0
 40
236.0
 40
236.0
 40
237.0
 40
237.0
 40
237.0
 40
238.0
 40
238.0
 40
238.0
 40
239.0
 40
239.0
 40
239.0
 40
240.0
 40
240.0
 40
240.0
 40
241.0
 40
241.0
 40
241.0
 40
242.0
 40
242.0
 40
242.0
 40
243.0
 40
243.0
 40
243.0
 40
244.0
 40
244.0
 40
244.0
 40
245.0
 40
245.0
 40
245.0
 40
246.0
 40
246.0
 40
246.0
 40
247.0
 40
247.0
 40
247.0
 40
248.0
 40
248.0
 40
248.0
 40
249.0
 40
249.0
 40
249.0
 40
250.0
 40
250.0
 40
250.0
 40
251.0
 40
251.0
 40
251.0
 40
252.0
 40
252.0
 40
252.0
 40
253.0
 40
253.0
 40
253.0
 40
254.0
 40
254.0
 40
254.0
 40
255.0
 40
255.0
 40
255.0
 40
256.0
 40
256.0
 40
256.0
 40
257.0
 40
257.0
 40
257.0
 40
257.0
 10
412.2295304348797
 20
331.7760011592003
 30
0.0
 10
411.8643072497496
 20
332.0404122376932
 30
0.0
 10
411.440259059209
 20
332.2235190627342
 30
0.0
 10
410.9988562001613
 20
332.4689821160583
 30
0.0
 10
412.8621791570523
 20
333.8278784983683
 30
0.0
 10
413.1955352089437
 20
335.7571319701082
 30
0.0
 10
412.733720159146
 20
337.5949181567147
 30
0.0
 10
412.3082939304112
 20
339.2880103329408
 30
0.0
 10
410.7806094011708
 20
340.343027761605
 30
0.0
 10
409.0583200407072
 20
340.788952308477
 30
0.0
 10
408.3000114607102
 20
340.9852366237491
 30
0.0
 10
407.9152373587013
 20
341.1161502521886
 30
0.0
 10
408.2940256073045
 20
341.9653232256091
 30
0.0
 10
408.6105437550119
 20
342.6748837044898
 30
0.0
 10
408.8506238466402
 20
343.4193688388523
 30
0.0
 10
409.1098242182117
 20
344.1535617504526
 30
0.0
 10
409.5926543504694
 20
345.5214799765646
 30
0.0
 10
409.0032846403304
 20
347.0762946327515
 30
0.0
 10
407.7688208005782
 20
347.7186326859763
 30
0.0
 10
406.4145968290201
 20
348.4232839037906
 30
0.0
 10
404.5247466368927
 20
347.986144350406
 30
0.0
 10
403.7268625225088
 20
346.7841935992959
 30
0.0
 10
402.5488121213277
 20
345.009495723763
 30
0.0
 10
401.4086577704842
 20
343.2081844856065
 30
0.0
 10
400.1856488732205
 20
341.4650522974572
 30
0.0
 10
394.1140987174034
 20
332.8117691168407
 30
0.0
 10
387.9321332512839
 20
324.2343641642866
 30
0.0
 10
381.969017475865
 20
315.507226749205
 30
0.0
 10
378.525816793132
 20
310.4679563918493
 30
0.0
 10
374.4906195149525
 20
306.0924698071142
 30
0.0
 10
369.5177103093814
 20
302.5666729601224
 30
0.0
 10
366.088935963993
 20
300.1356413309558
 30
0.0
 10
362.3827022409612
 20
298.2498821897172
 30
0.0
 10
358.4512454005812
 20
296.7808719429599
 30
0.0
 10
356.8474242611167
 20
296.1816406469943
 30
0.0
 10
356.2956491554604
 20
296.5216285076949
 30
0.0
 10
355.9346892759933
 20
298.1561755925184
 30
0.0
 10
355.1446427538384
 20
301.7331751711598
 30
0.0
 10
355.8249629847881
 20
305.2383660407804
 30
0.0
 10
356.2710167227409
 20
308.767263473709
 30
0.0
 10
356.9531456288203
 20
314.1640270831996
 30
0.0
 10
357.433607257932
 20
319.5477639253867
 30
0.0
 10
355.1641075433301
 20
324.754315200398
 30
0.0
 10
352.8792771538188
 20
329.9958557264313
 30
0.0
 10
348.9209055049603
 20
333.2860726377724
 30
0.0
 10
343.5331637392717
 20
335.0041202244197
 30
0.0
 10
340.999339073564
 20
335.8121243067915
 30
0.0
 10
338.573604278706
 20
335.9698666163223
 30
0.0
 10
336.1442521335885
 20
334.590579575109
 30
0.0
 10
333.1767330099814
 20
332.9056910325073
 30
0.0
 10
332.3004729733082
 20
330.1858742742896
 30
0.0
 10
333.8738911451153
 20
327.20304600762
 30
0.0
 10
334.223094636239
 20
326.5410493782824
 30
0.0
 10
334.3465582456916
 20
325.8495756506993
 30
0.0
 10
334.1553554462602
 20
325.9581176903314
 30
0.0
 10
332.3546470998137
 20
327.4728400478086
 30
0.0
 10
330.5539818170607
 20
328.9875839371326
 30
0.0
 10
328.6584041536892
 20
330.5821248506337
 30
0.0
 10
329.1874416291428
 20
331.3898274871506
 30
0.0
 10
329.7834862117846
 20
332.235340046618
 30
0.0
 10
330.2969776938611
 20
333.1283303282415
 30
0.0
 10
330.4284080866234
 20
333.3568262863007
 30
0.0
 10
330.2987863689909
 20
333.7353992164361
 30
0.0
 10
330.289053974245
 20
334.0450271731729
 30
0.0
 10
329.9845505970425
 20
333.9860083811412
 30
0.0
 10
329.5910345652399
 20
334.0266389760204
 30
0.0
 10
329.3922094920474
 20
333.8491734948365
 30
0.0
 10
328.8051652213608
 20
333.32517447153
 30
0.0
 10
328.3237992546843
 20
332.6834608418619
 30
0.0
 10
327.7422671367741
 20
332.1521409906492
 30
0.0
 10
327.4675638355189
 20
331.9011873163955
 30
0.0
 10
326.9799105695819
 20
331.5748291147085
 30
0.0
 10
326.724413675657
 20
331.6653705304302
 30
0.0
 10
325.6738318074301
 20
332.0376130976114
 30
0.0
 10
324.6754431358047
 20
332.5568751146257
 30
0.0
 10
323.5144028935819
 20
333.087635137822
 30
0.0
 10
324.0101951976029
 20
333.8346610301049
 30
0.0
 10
324.4871686675357
 20
334.4508378894886
 30
0.0
 10
324.836415222353
 20
335.1324500312452
 30
0.0
 10
324.9679317425024
 20
335.3891096448964
 30
0.0
 10
324.8033423056946
 20
335.7974395872856
 30
0.0
 10
324.7737144845214
 20
336.1366092378084
 30
0.0
 10
324.468306769754
 20
336.09858399639
 30
0.0
 10
324.0833173492774
 20
336.1636532373677
 30
0.0
 10
323.8734679705321
 20
336.0017337495609
 30
0.0
 10
323.3892598000802
 20
335.6281131441856
 30
0.0
 10
322.8357190829877
 20
335.2165964884725
 30
0.0
 10
322.5891794373245
 20
334.6899275161649
 30
0.0
 10
322.1111293750525
 20
333.6687796824901
 30
0.0
 10
321.3210397892041
 20
333.5662665599571
 30
0.0
 10
320.408175613
 20
333.6813758128581
 30
0.0
 10
319.818892030248
 20
333.7556606842587
 30
0.0
 10
319.2429151288078
 20
333.9353654775081
 30
0.0
 10
318.6969966854764
 20
334.0596257652917
 30
0.0
 10
318.4778024852274
 20
335.2070363485009
 30
0.0
 10
319.8194949219579
 20
336.3481381006028
 30
0.0
 10
318.4384853330019
 20
337.6386708693774
 30
0.0
 10
317.9498416021128
 20
336.4675967865538
 30
0.0
 10
317.5763932515117
 20
335.5148986938016
 30
0.0
 10
317.1515268507933
 20
334.5857133777361
 30
0.0
 10
317.0014068150235
 20
334.2574173098386
 30
0.0
 10
316.7719203920123
 20
333.7882168365944
 30
0.0
 10
316.499025765887
 20
333.724504101964
 30
0.0
 10
315.4213137707137
 20
333.4728829404601
 30
0.0
 10
314.3119930244632
 20
333.35669709522
 30
0.0
 10
313.2591718441709
 20
333.1970599831723
 30
0.0
 10
312.6274274595632
 20
334.3781679065966
 30
0.0
 10
313.7891997845766
 20
335.9419182791983
 30
0.0
 10
312.3246035664097
 20
336.8422509205748
 30
0.0
 10
311.1400074838066
 20
336.081832219593
 30
0.0
 10
311.8118441671239
 20
334.9510657539469
 30
0.0
 10
311.6026838074756
 20
334.0279954823677
 30
0.0
 10
311.4656551345498
 20
333.4235319476339
 30
0.0
 10
311.4153567404652
 20
332.6412368903208
 30
0.0
 10
311.0165869380475
 20
332.2888251540265
 30
0.0
 10
310.2966481090174
 20
331.6525160179008
 30
0.0
 10
309.34485435383
 20
331.2784863074366
 30
0.0
 10
308.4332390247394
 20
330.7628847043754
 30
0.0
 10
308.1891540096094
 20
331.6183665089033
 30
0.0
 10
307.9459733320443
 20
332.3148140930933
 30
0.0
 10
307.795810232581
 20
333.0307910623154
 30
0.0
 10
307.5199872752932
 20
334.3456763498014
 30
0.0
 10
307.542811032883
 20
334.3504779516339
 30
0.0
 10
306.4886118143965
 20
334.278389328605
 30
0.0
 10
306.6102667487194
 20
333.1099636629358
 30
0.0
 10
306.7778275803832
 20
331.9475884462125
 30
0.0
 10
306.832173961663
 20
330.7799379270274
 30
0.0
 10
306.8573662223989
 20
330.2383043212058
 30
0.0
 10
306.824250242047
 20
329.5695036282848
 30
0.0
 10
306.5320200175107
 20
329.1643173355259
 30
0.0
 10
305.9794267016766
 20
328.3980419722192
 30
0.0
 10
305.2204721662761
 20
327.780530138335
 30
0.0
 10
304.4985524073419
 20
327.0520862298257
 30
0.0
 10
303.5633812378709
 20
328.3588755429213
 30
0.0
 10
303.7371001777146
 20
329.6392022163208
 30
0.0
 10
304.112701712994
 20
330.9746288856376
 30
0.0
 10
304.8465070513522
 20
333.5837073558512
 30
0.0
 10
304.1147257065916
 20
335.8798634967702
 30
0.0
 10
302.2989450673971
 20
337.4043182489933
 30
0.0
 10
299.3616566566731
 20
339.8703175973351
 30
0.0
 10
294.0709804562813
 20
340.0655683839616
 30
0.0
 10
290.8954206290587
 20
337.9657396220083
 30
0.0
 10
287.0006971192902
 20
335.3904015557034
 30
0.0
 10
283.8536023935144
 20
332.1416119175724
 30
0.0
 10
282.0684400404451
 20
327.7626587055053
 30
0.0
 10
281.0420169043085
 20
325.2448106701104
 30
0.0
 10
280.5202141293739
 20
322.5688758156361
 30
0.0
 10
280.7110293555631
 20
319.8564014171715
 30
0.0
 10
280.8532256717168
 20
317.8343887494912
 30
0.0
 10
281.3773108224104
 20
315.8405182055561
 30
0.0
 10
281.7068342055746
 20
313.830089671445
 30
0.0
 10
282.239962731917
 20
310.5780917881434
 30
0.0
 10
282.8127529200333
 20
307.3308309111341
 30
0.0
 10
283.2507968109829
 20
304.0657416649885
 30
0.0
 10
283.4929008962088
 20
302.2611360542743
 30
0.0
 10
283.4949248898064
 20
300.4242972689262
 30
0.0
 10
283.6051679453344
 20
298.6020140120033
 30
0.0
 10
283.4715843678939
 20
298.5357820512994
 30
0.0
 10
283.3379146630662
 20
298.4695285587487
 30
0.0
 10
283.2043310856256
 20
298.4032965980447
 30
0.0
 10
282.9337188352592
 20
298.6971632429365
 30
0.0
 10
282.5847306626034
 20
298.9496026146182
 30
0.0
 10
282.404336850257
 20
299.2911192364404
 30
0.0
 10
279.576990049206
 20
304.6447114931315
 30
0.0
 10
277.1092896849684
 20
310.1633238235661
 30
0.0
 10
275.2445671580365
 20
315.9233942838231
 30
0.0
 10
273.4568640470468
 20
321.4455593689769
 30
0.0
 10
272.1240642630376
 20
327.0699791945022
 30
0.0
 10
271.1573920017232
 20
332.8197574319971
 30
0.0
 10
270.2337834339746
 20
338.3134789475507
 30
0.0
 10
270.1344785566122
 20
343.8357086282448
 30
0.0
 10
269.7359240726624
 20
349.3466556212247
 30
0.0
 10
269.6245182974081
 20
350.8871731311477
 30
0.0
 10
268.4491163133812
 20
352.7835690046971
 30
0.0
 10
266.5644337644817
 20
353.3598473519922
 30
0.0
 10
264.6621812286074
 20
353.941422533596
 30
0.0
 10
262.6736505826745
 20
353.3669959251241
 30
0.0
 10
261.6753480384362
 20
351.7986162054642
 30
0.0
 10
260.8711335610982
 20
350.5352135636359
 30
0.0
 10
260.2169314602961
 20
349.176209522092
 30
0.0
 10
259.4194779828478
 20
347.7195800872348
 30
0.0
 10
258.3765399202288
 20
348.6992360521591
 30
0.0
 10
257.3530235834078
 20
349.7817281173182
 30
0.0
 10
256.2029215193508
 20
350.7067793188014
 30
0.0
 10
255.0554894042947
 20
351.6297203992997
 30
0.0
 10
253.7944983293062
 20
352.4152452336303
 30
0.0
 10
252.5599483621669
 20
353.2254025006804
 30
0.0
 10
249.1673690512203
 20
355.4516662669424
 30
0.0
 10
245.668487012707
 20
354.2352461147942
 30
0.0
 10
244.4027589314262
 20
350.3563269805643
 30
0.0
 10
243.7493319771083
 20
348.3537791023757
 30
0.0
 10
243.209937683352
 20
346.3139380655593
 30
0.0
 10
242.626403103691
 20
344.31621332105
 30
0.0
 10
239.8673122569416
 20
344.9761213612496
 30
0.0
 10
237.1386889733898
 20
345.6326704333511
 30
0.0
 10
234.4080201643937
 20
346.2806067667395
 30
0.0
 10
232.3829499744703
 20
346.7611114595447
 30
0.0
 10
229.9099097122304
 20
345.7195729669666
 30
0.0
 10
229.1204445499386
 20
343.8209377813518
 30
0.0
 10
228.1363960882706
 20
341.454372501453
 30
0.0
 10
227.3904467883269
 20
339.0032731910849
 30
0.0
 10
227.9668112630092
 20
336.3578704953486
 30
0.0
 10
228.0914375921881
 20
335.7858123900229
 30
0.0
 10
227.9850056735407
 20
335.1633697632254
 30
0.0
 10
227.9850056735407
 20
334.7692508397128
 30
0.0
 10
225.451568581075
 20
334.2876049590281
 30
0.0
 10
223.1022933741428
 20
333.8992565704533
 30
0.0
 10
220.7805358673991
 20
333.3862818526996
 30
0.0
 10
217.026845954058
 20
332.5569181783193
 30
0.0
 10
213.8652387635506
 20
328.3353627662345
 30
0.0
 10
214.5750576245928
 20
324.7239983601278
 30
0.0
 10
215.1385675867458
 20
321.8568822380689
 30
0.0
 10
216.1320685291514
 20
319.0634050320073
 30
0.0
 10
217.0896112874298
 20
316.2907275899379
 30
0.0
 10
217.4092515529207
 20
315.365159624132
 30
0.0
 10
217.2467507052508
 20
315.0249564449635
 30
0.0
 10
216.4786236031208
 20
314.5394133000111
 30
0.0
 10
214.8277338465891
 20
313.495893877529
 30
0.0
 10
213.2319656178213
 20
312.3581941572188
 30
0.0
 10
211.6658898057671
 20
311.1890364087589
 30
0.0
 10
209.3423451557404
 20
309.454387768242
 30
0.0
 10
209.4434371763857
 20
305.5020665683295
 30
0.0
 10
211.5592856323454
 20
304.0236469045281
 30
0.0
 10
213.5791235835006
 20
302.6122989434552
 30
0.0
 10
215.5404810387937
 20
301.117299757631
 30
0.0
 10
217.544148573015
 20
299.6468899408328
 30
0.0
 10
216.23561518033
 20
298.0524566865656
 30
0.0
 10
214.8644671772006
 20
296.4151965890474
 30
0.0
 10
213.5297295269808
 20
294.7487608391385
 30
0.0
 10
210.2432806888268
 20
290.6455659888188
 30
0.0
 10
211.2634165257028
 20
285.913748871675
 30
0.0
 10
215.9826805761723
 20
283.563052562855
 30
0.0
 10
217.4151082152456
 20
282.8495517560131
 30
0.0
 10
218.911270120796
 20
282.2217692312134
 30
0.0
 10
220.4399666468353
 20
281.7583608247537
 30
0.0
 10
221.4919696169499
 20
281.4394741739003
 30
0.0
 10
221.3924709529666
 20
281.027182371703
 30
0.0
 10
220.9981151791394
 20
280.2696058744966
 30
0.0
 10
220.4623597674895
 20
279.2404481938185
 30
0.0
 10
219.9041897033386
 20
278.2046156406378
 30
0.0
 10
219.5343156393035
 20
277.1112069291599
 30
0.0
 10
218.6691660355701
 20
274.5535895727572
 30
0.0
 10
219.5488281040351
 20
272.2733885303042
 30
0.0
 10
221.3465865874724
 20
270.5633292588133
 30
0.0
 10
222.9031883869422
 20
269.0826702829465
 30
0.0
 10
224.9871912415101
 20
268.1476067727094
 30
0.0
 10
227.2323599692475
 20
268.9551371544519
 30
0.0
 10
228.7507427406778
 20
269.5012709162511
 30
0.0
 10
230.2925736932546
 20
270.2268726209851
 30
0.0
 10
231.5431433544003
 20
271.2242708276585
 30
0.0
 10
234.5707578623781
 20
273.6389167214234
 30
0.0
 10
237.888750856069
 20
275.6054848836379
 30
0.0
 10
241.3964824836101
 20
277.0799426876312
 30
0.0
 10
247.3600504278115
 20
279.5866587582394
 30
0.0
 10
253.6618406212773
 20
280.7222052938712
 30
0.0
 10
260.1763223972637
 20
280.3421036026143
 30
0.0
 10
260.5389832926265
 20
280.3209593290736
 30
0.0
 10
260.8997493854725
 20
280.2667636707212
 30
0.0
 10
261.2613767521898
 20
280.2279417509718
 30
0.0
 10
261.2892604937736
 20
280.1179355457584
 30
0.0
 10
261.3171657672041
 20
280.007929340545
 30
0.0
 10
261.3450495087879
 20
279.8979231353317
 30
0.0
 10
260.7970209444717
 20
279.6077599680865
 30
0.0
 10
260.274141577198
 20
279.248328849741
 30
0.0
 10
259.6968942967976
 20
279.0385655983829
 30
0.0
 10
255.7422476574325
 20
277.6014870804045
 30
0.0
 10
252.1568506585459
 20
275.4889760606961
 30
0.0
 10
248.7079655682622
 20
273.1171354783355
 30
0.0
 10
247.270477945195
 20
272.1285437969963
 30
0.0
 10
247.1450334058383
 20
270.1627938449595
 30
0.0
 10
248.5807338856226
 20
269.1749773101045
 30
0.0
 10
250.3315744749202
 20
267.9703350781465
 30
0.0
 10
252.1392160760307
 20
266.808670412367
 30
0.0
 10
254.3413211102024
 20
266.5786241613395
 30
0.0
 10
255.7167108871481
 20
266.4349421477577
 30
0.0
 10
257.0952658455708
 20
266.3213616559784
 30
0.0
 10
258.6038516267149
 20
266.1821582665276
 30
0.0
 10
258.4044882573529
 20
266.0258370588843
 30
0.0
 10
258.2958816221804
 20
265.8897988509106
 30
0.0
 10
258.1561830002535
 20
265.838596119261
 30
0.0
 10
255.0545635348831
 20
264.7015208225075
 30
0.0
 10
251.848213166761
 20
264.57159765902
 30
0.0
 10
249.1257695232359
 20
266.436406313339
 30
0.0
 10
247.0779186394163
 20
267.839120003852
 30
0.0
 10
245.4859184838355
 20
267.2593104336844
 30
0.0
 10
243.557418626733
 20
266.5371538244357
 30
0.0
 10
246.7424955302336
 20
262.8710985275007
 30
0.0
 10
250.6272928586353
 20
261.349292192432
 30
0.0
 10
255.3669260361613
 20
261.9763641662877
 30
0.0
 10
253.5138953020326
 20
260.8906853878049
 30
0.0
 10
251.5548202224984
 20
260.672761566516
 30
0.0
 10
249.5048161540005
 20
260.9040781965037
 30
0.0
 10
246.7337966641334
 20
261.2167636754837
 30
0.0
 10
244.3973975015773
 20
262.3181822339649
 30
0.0
 10
242.4738715010816
 20
264.392452693787
 30
0.0
 10
241.9125577873005
 20
264.9977344386987
 30
0.0
 10
241.599829244627
 20
265.9778210405586
 30
0.0
 10
240.2368418114282
 20
265.7825487220853
 30
0.0
 10
236.5330627189297
 20
265.2519609536633
 30
0.0
 10
232.7934976970781
 20
264.9630466335315
 30
0.0
 10
229.0639665158273
 20
264.6241568970169
 30
0.0
 10
227.0971615032982
 20
264.4454210368727
 30
0.0
 10
225.1216791565156
 20
264.3623511719846
 30
0.0
 10
222.9478454371697
 20
264.2231477825338
 30
0.0
 10
223.4329579451865
 20
263.8995887209285
 30
0.0
 10
223.7634933251494
 20
263.7010866254378
 30
0.0
 10
224.0704298010384
 20
263.471061906257
 30
0.0
 10
227.956023807771
 20
260.5594394568981
 30
0.0
 10
232.1729714046443
 20
258.1910655018695
 30
0.0
 10
236.6397960834321
 20
256.3484131178901
 30
0.0
 10
239.6320337671458
 20
255.1140784692186
 30
0.0
 10
242.7663170440858
 20
254.1405160169338
 30
0.0
 10
245.9197421328157
 20
253.4046651531312
 30
0.0
 10
248.9074796605518
 20
252.7074854861505
 30
0.0
 10
252.0046850973317
 20
252.4835758114561
 30
0.0
 10
255.0507093343089
 20
252.0310625194685
 30
0.0
 10
259.7400010540567
 20
251.3344211486574
 30
0.0
 10
264.4246634267463
 20
251.781982115885
 30
0.0
 10
269.0436106030546
 20
252.4462180572879
 30
0.0
 10
274.4563077791646
 20
253.2246158503333
 30
0.0
 10
279.6683281432587
 20
254.9139399533724
 30
0.0
 10
284.6636735331774
 20
257.1711019197677
 30
0.0
 10
285.5140092263242
 20
257.555337725607
 30
0.0
 10
286.0159165748315
 20
257.3999208555286
 30
0.0
 10
286.5932284507723
 20
256.8013570468133
 30
0.0
 10
287.2153265680213
 20
256.1563490445874
 30
0.0
 10
287.8158497747939
 20
255.427819008691
 30
0.0
 10
288.5734262720003
 20
254.9931125539928
 30
0.0
 10
289.3962873286522
 20
254.5210268132796
 30
0.0
 10
289.686881132833
 20
254.1052253200567
 30
0.0
 10
288.9047152666006
 20
253.4718875787871
 30
0.0
 10
287.3538624702219
 20
252.2161502744136
 30
0.0
 10
285.7572329675828
 20
251.0156852207315
 30
0.0
 10
284.1542731019896
 20
249.8263951955297
 30
0.0
 10
283.6302310149896
 20
249.4375515744789
 30
0.0
 10
283.0279421967808
 20
249.1541924708171
 30
0.0
 10
282.1584000963038
 20
248.645222676565
 30
0.0
 10
284.3766109518689
 20
248.5182924397803
 30
0.0
 10
286.0580759308323
 20
248.9595445759005
 30
0.0
 10
287.6909650634536
 20
249.7686037187646
 30
0.0
 10
288.348806046362
 20
250.0945528153628
 30
0.0
 10
289.1616763261067
 20
251.0613542677578
 30
0.0
 10
289.8090097677851
 20
249.9992097978085
 30
0.0
 10
290.0002986946037
 20
249.6852970035619
 30
0.0
 10
289.2869916743827
 20
248.765478040847
 30
0.0
 10
288.908246489473
 20
248.1746441651266
 30
0.0
 10
288.5529710175566
 20
247.6204574926306
 30
0.0
 10
288.0918019231624
 20
247.1341607330408
 30
0.0
 10
287.4824937229024
 20
246.3754645798017
 30
0.0
 10
289.0232265512932
 20
246.3754645798017
 30
0.0
 10
290.2250911750162
 20
246.3358675135681
 30
0.0
 10
291.4231661937054
 20
246.386531949048
 30
0.0
 10
292.6348493395614
 20
246.4377562125444
 30
0.0
 10
293.9168554970099
 20
246.861610616464
 30
0.0
 10
295.0241091859692
 20
246.5719426816948
 30
0.0
 10
295.6719593919705
 20
246.4024655156673
 30
0.0
 10
296.3122303879042
 20
245.2086753344879
 30
0.0
 10
296.4680348312246
 20
244.3835749657706
 30
0.0
 10
296.7100097253698
 20
243.101870254177
 30
0.0
 10
295.8617841532077
 20
242.0869235923756
 30
0.0
 10
294.6945858028051
 20
241.6496333160634
 30
0.0
 10
291.8584109445732
 20
240.5870582091785
 30
0.0
 10
289.0062163923348
 20
239.5399429682836
 30
0.0
 10
286.0982974206225
 20
238.7023325965854
 30
0.0
 10
280.6373043121788
 20
237.1293019980204
 30
0.0
 10
275.0934135936212
 20
235.963072580723
 30
0.0
 10
269.4060561799497
 20
235.4672156811616
 30
0.0
 10
264.9090223201256
 20
235.0751422830934
 30
0.0
 10
260.4364486382468
 20
234.7413986579598
 30
0.0
 10
255.9225768742386
 20
235.2190826788365
 30
0.0
 10
251.1012734018653
 20
235.729301320202
 30
0.0
 10
246.9635630011528
 20
237.6536024671818
 30
0.0
 10
243.6358591445628
 20
241.1274644997335
 30
0.0
 10
241.84509851133
 20
242.996880969264
 30
0.0
 10
240.3504223032076
 20
245.1499364564644
 30
0.0
 10
238.6326761624152
 20
247.286326294255
 30
0.0
 10
237.6227464209142
 20
246.7977256270594
 30
0.0
 10
236.9442779287878
 20
245.9232527336691
 30
0.0
 10
236.7099468402505
 20
244.5940918317661
 30
0.0
 10
236.4252096983946
 20
242.9791171956682
 30
0.0
 10
237.1170925310666
 20
241.7569695722758
 30
0.0
 10
237.9997044625409
 20
240.5658278082506
 30
0.0
 10
238.7511013197206
 20
239.5517639521673
 30
0.0
 10
239.6012216943996
 20
238.5805915348754
 30
0.0
 10
239.3617444944812
 20
237.1798157105728
 30
0.0
 10
238.8898525403891
 20
234.4196267396374
 30
0.0
 10
240.4382937699282
 20
232.5089337198243
 30
0.0
 10
243.2323523358529
 20
232.471489838269
 30
0.0
 10
245.3484807058209
 20
232.4431323960561
 30
0.0
 10
247.4655995407408
 20
232.4433907782174
 30
0.0
 10
249.5816417833216
 20
232.4746550197461
 30
0.0
 10
250.7143245833314
 20
232.4913852646963
 30
0.0
 10
251.5736605884334
 20
232.1780322984661
 30
0.0
 10
251.802716374509
 20
230.9490590796435
 30
0.0
 10
252.0297696988337
 20
229.7307656568253
 30
0.0
 10
251.5252569968657
 20
228.7257451763908
 30
0.0
 10
250.2649334091273
 20
228.4455081905125
 30
0.0
 10
248.9475719592614
 20
228.1525458831856
 30
0.0
 10
247.5608133672144
 20
228.1717522905158
 30
0.0
 10
246.2505789586336
 20
228.058516308285
 30
0.0
 10
246.8084045132358
 20
225.8062636029561
 30
0.0
 10
250.8911010454183
 20
223.2856164274795
 30
0.0
 10
253.6544982615243
 20
224.2261920904931
 30
0.0
 10
255.5195007024643
 20
224.8609939973439
 30
0.0
 10
257.2517808398351
 20
225.8802254966551
 30
0.0
 10
259.0572046607271
 20
226.697036104361
 30
0.0
 10
260.7688357570331
 20
227.4713428465178
 30
0.0
 10
262.4984459454028
 20
228.2059663950537
 30
0.0
 10
264.4249218089076
 20
229.0474955628663
 30
0.0
 10
262.8093227492529
 20
225.497066283155
 30
0.0
 10
261.3545665850659
 20
222.3000822683835
 30
0.0
 10
259.9774542603776
 20
219.273716607519
 30
0.0
 10
262.5969110807405
 20
220.2238093468105
 30
0.0
 10
265.1220153485012
 20
221.1629423760896
 30
0.0
 10
267.6639790522928
 20
222.0539517278092
 30
0.0
 10
269.5157609393081
 20
222.703029249077
 30
0.0
 10
271.1793114217481
 20
223.560190537654
 30
0.0
 10
272.248539869289
 20
225.3202898210681
 30
0.0
 10
272.7204318233811
 20
226.0971157892984
 30
0.0
 10
273.2761257251519
 20
226.8465101847274
 30
0.0
 10
273.9135329854635
 20
227.4896449162831
 30
0.0
 10
274.2440898972732
 20
227.8231516911021
 30
0.0
 10
274.8357635150181
 20
227.8978241357449
 30
0.0
 10
275.3094856760867
 20
228.0894145084183
 30
0.0
 10
275.2678000207152
 20
227.5591281858513
 30
0.0
 10
275.3871079837388
 20
226.9397215494501
 30
0.0
 10
275.1526261722739
 20
226.5161255276919
 30
0.0
 10
274.5735271530502
 20
225.4700438154426
 30
0.0
 10
273.8322287320116
 20
224.5137283724308
 30
0.0
 10
273.1488294469719
 20
223.5106672900535
 30
0.0
 10
274.9271446727643
 20
221.9952343816324
 30
0.0
 10
276.7889388685336
 20
221.6293867729457
 30
0.0
 10
278.6941843311108
 20
222.7018665293507
 30
0.0
 10
281.3371754600073
 20
224.1896740783494
 30
0.0
 10
283.4227501393904
 20
226.3244274957845
 30
0.0
 10
284.7479922451789
 20
229.0618357728237
 30
0.0
 10
286.300696780381
 20
232.2692196695913
 30
0.0
 10
288.7089046519578
 20
234.3905802783274
 30
0.0
 10
292.1154150677728
 20
235.3529246384384
 30
0.0
 10
292.5848093276381
 20
235.4855392827737
 30
0.0
 10
293.1560061590925
 20
235.2578615348923
 30
0.0
 10
293.6800482460926
 20
235.1969694721905
 30
0.0
 10
293.4466860906605
 20
234.7106727126007
 30
0.0
 10
293.3414384235861
 20
234.0562122296371
 30
0.0
 10
292.9593773342719
 20
233.7649509382061
 30
0.0
 10
290.1772043477712
 20
231.6441501574863
 30
0.0
 10
289.220242949356
 20
229.9332726758176
 30
0.0
 10
289.1292493648518
 20
226.3234585626793
 30
0.0
 10
290.0867275275899
 20
227.1924193032932
 30
0.0
 10
290.8448638528126
 20
227.9605248735764
 30
0.0
 10
291.6938215077653
 20
228.6099038406992
 30
0.0
 10
292.0142153878936
 20
228.8549793207812
 30
0.0
 10
292.5446309015414
 20
228.825459158842
 30
0.0
 10
292.9793158243928
 20
228.921125154098
 30
0.0
 10
293.0455047214031
 20
228.5376860265897
 30
0.0
 10
293.25440669889
 20
228.1093960622328
 30
0.0
 10
293.1506662610904
 20
227.7793774465926
 30
0.0
 10
292.8575747626828
 20
226.8468762261226
 30
0.0
 10
292.5209028063867
 20
225.9077862605371
 30
0.0
 10
292.0487094064396
 20
225.055900274422
 30
0.0
 10
290.9090287562254
 20
222.9995658429699
 30
0.0
 10
290.4854112026204
 20
220.9444802586312
 30
0.0
 10
291.7686662071824
 20
218.6171675354175
 30
0.0
 10
293.3503956718478
 20
220.6630374893331
 30
0.0
 10
295.5317440057208
 20
221.6904295585749
 30
0.0
 10
297.7468542753493
 20
222.7508299489349
 30
0.0
 10
298.6272484266049
 20
223.172251254168
 30
0.0
 10
299.1391034883259
 20
224.3482345980581
 30
0.0
 10
299.8453911264957
 20
225.1574014001561
 30
0.0
 10
300.0737578934742
 20
225.4190779341076
 30
0.0
 10
300.3871754552448
 20
225.6065341921988
 30
0.0
 10
300.6617495654192
 20
225.8279461726664
 30
0.0
 10
300.8714697530838
 20
225.5404529544223
 30
0.0
 10
301.1484554300979
 20
225.2784534427691
 30
0.0
 10
301.2702395555015
 20
224.9575858620116
 30
0.0
 10
301.3729034009619
 20
224.6870812708792
 30
0.0
 10
301.1802794996429
 20
224.2775886087637
 30
0.0
 10
301.318470892295
 20
224.0524300869558
 30
0.0
 10
301.7762379548975
 20
223.3064592551653
 30
0.0
 10
302.1831037317056
 20
222.3550100095264
 30
0.0
 10
302.8782378732418
 20
221.9783964774483
 30
0.0
 10
303.5582997220301
 20
221.6099435153008
 30
0.0
 10
304.5168114134138
 20
221.7604726561594
 30
0.0
 10
305.2286973317471
 20
222.5746133148643
 30
0.0
 10
307.2120388026054
 20
224.8427349912721
 30
0.0
 10
307.8154042131534
 20
227.398349885924
 30
0.0
 10
307.3702548127655
 20
230.3482990225563
 30
0.0
 10
307.2073448600067
 20
231.428056543174
 30
0.0
 10
307.326286781635
 20
232.648352427743
 30
0.0
 10
307.6850934764238
 20
233.6758952199123
 30
0.0
 10
307.9442507843017
 20
234.418184105903
 30
0.0
 10
308.8247310629444
 20
234.8331458571013
 30
0.0
 10
309.792372257364
 20
234.415212711047
 30
0.0
 10
310.9671498178342
 20
233.9078362734568
 30
0.0
 10
311.457903669708
 20
233.1030404362556
 30
0.0
 10
311.011677676981
 20
231.7836765246389
 30
0.0
 10
310.6054147918829
 20
230.582199474158
 30
0.0
 10
309.9510189044597
 20
229.4645674350494
 30
0.0
 10
309.3812862385865
 20
228.257685891026
 30
0.0
 10
311.1114993186661
 20
228.09837175668
 30
0.0
 10
312.5588700594067
 20
228.8030229744943
 30
0.0
 10
313.8450103314376
 20
229.913011207995
 30
0.0
 10
316.4038119394134
 20
232.1213174140401
 30
0.0
 10
319.1103220163192
 20
233.7203584835189
 30
0.0
 10
322.7457590271291
 20
233.3090571462736
 30
0.0
 10
325.3760894301174
 20
233.0114654918883
 30
0.0
 10
327.6113535083346
 20
232.1768911105866
 30
0.0
 10
329.4911698598611
 20
230.3133743670746
 30
0.0
 10
330.9346218044873
 20
228.8824754891229
 30
0.0
 10
332.5657453256724
 20
227.8053233219659
 30
0.0
 10
334.66019112593
 20
228.0025765703433
 30
0.0
 10
334.1172010137611
 20
229.2056039137925
 30
0.0
 10
333.5288648322675
 20
230.3489880416534
 30
0.0
 10
333.0815622472014
 20
231.5451036622853
 30
0.0
 10
332.6296518469238
 20
232.7533201808092
 30
0.0
 10
333.2589846646918
 20
234.0226871441963
 30
0.0
 10
334.3223995136013
 20
234.2992637161215
 30
0.0
 10
335.3159650515473
 20
234.557667409362
 30
0.0
 10
336.4537939629382
 20
233.8004354217041
 30
0.0
 10
336.6561502590031
 20
232.5565406330611
 30
0.0
 10
336.8095000717902
 20
231.6137256579821
 30
0.0
 10
336.8526929564366
 20
230.5994680152778
 30
0.0
 10
336.6785003159636
 20
229.66675147634
 30
0.0
 10
336.1257347453553
 20
226.7074359863572
 30
0.0
 10
337.1565934419292
 20
224.2862659430171
 30
0.0
 10
339.0274956088876
 20
222.1191501598675
 30
0.0
 10
339.251125369574
 20
221.8601220430703
 30
0.0
 10
339.6725897385007
 20
221.6724074028177
 30
0.0
 10
340.0211042105273
 20
221.6373320244086
 30
0.0
 10
341.8456267795156
 20
221.4534931165769
 30
0.0
 10
342.6341230087021
 20
222.2449176769259
 30
0.0
 10
342.7249012747385
 20
224.1181237514902
 30
0.0
 10
342.7485001788124
 20
224.6053033167981
 30
0.0
 10
343.0871100013189
 20
225.0771952708901
 30
0.0
 10
343.281025813445
 20
225.5561281388802
 30
0.0
 10
343.6608045270002
 20
225.203113510876
 30
0.0
 10
344.0424780430723
 20
224.8521444083162
 30
0.0
 10
344.4198882534814
 20
224.4966320860852
 30
0.0
 10
345.1945179733398
 20
223.7669823941561
 30
0.0
 10
345.880737930308
 20
222.9028447872215
 30
0.0
 10
346.7578161771591
 20
222.3310235322104
 30
0.0
 10
348.6300533186181
 20
221.1104262017864
 30
0.0
 10
350.600647936181
 20
220.0408101810034
 30
0.0
 10
352.5469115668793
 20
218.8999668110629
 30
0.0
 10
353.4773026663646
 20
220.3443230932539
 30
0.0
 10
353.2848510198199
 20
223.0614699024705
 30
0.0
 10
351.926234551518
 20
224.8517353032273
 30
0.0
 10
351.0690947947879
 20
225.9811237306794
 30
0.0
 10
350.6987470301235
 20
227.2156306341251
 30
0.0
 10
351.0736595463058
 20
229.0700178746011
 30
0.0
 10
352.4828758545473
 20
228.064071524755
 30
0.0
 10
353.7338761526286
 20
227.1710381794379
 30
0.0
 10
355.2227602939665
 20
226.1082046903915
 30
0.0
 10
354.7599117155231
 20
229.1364005582326
 30
0.0
 10
353.9483333465854
 20
231.5696069039242
 30
0.0
 10
351.5576954619834
 20
233.2336095551466
 30
0.0
 10
350.9288794085382
 20
233.6712874047008
 30
0.0
 10
349.9182175842466
 20
234.105197181068
 30
0.0
 10
350.5685224207811
 20
235.3623986510229
 30
0.0
 10
350.8220814484955
 20
235.3623986510229
 30
0.0
 10
351.1424753286237
 20
235.4342288918903
 30
0.0
 10
351.4160159101525
 20
235.3512882180829
 30
0.0
 10
354.1433257510506
 20
234.5240777283809
 30
0.0
 10
356.5247480052295
 20
233.172695960598
 30
0.0
 10
358.2008730861907
 20
230.7784407257365
 30
0.0
 10
359.7177486283462
 20
228.6116479202886
 30
0.0
 10
360.9646148118453
 20
226.165759316842
 30
0.0
 10
362.8269473037842
 20
224.3528639451164
 30
0.0
 10
365.3528051861822
 20
221.8939701062129
 30
0.0
 10
367.8571312217974
 20
220.6678390911657
 30
0.0
 10
370.9625833558952
 20
223.3345583152169
 30
0.0
 10
370.2233950558413
 20
224.3260567958718
 30
0.0
 10
369.4128502155492
 20
225.2879059235067
 30
0.0
 10
368.7656459649514
 20
226.3493183106654
 30
0.0
 10
368.5386141724734
 20
226.7215824096935
 30
0.0
 10
368.7127637492528
 20
227.338469820021
 30
0.0
 10
368.7037634372976
 20
227.8436715410861
 30
0.0
 10
369.1719949774366
 20
227.6780055119392
 30
0.0
 10
369.7515461654428
 20
227.6308938311784
 30
0.0
 10
370.0830935422045
 20
227.3196079222393
 30
0.0
 10
370.6121740813517
 20
226.8227605577259
 30
0.0
 10
370.9511714771003
 20
226.1298872601018
 30
0.0
 10
371.4152258389635
 20
225.5560420114931
 30
0.0
 10
372.6628671689467
 20
224.0132851895046
 30
0.0
 10
373.9825109945717
 20
222.4561666257121
 30
0.0
 10
375.9599958031051
 20
221.9297345037191
 30
0.0
 10
378.7232207644368
 20
221.1940989583844
 30
0.0
 10
381.449324821915
 20
220.4401613432842
 30
0.0
 10
384.0821529191301
 20
218.4927349928596
 30
0.0
 10
383.3833152999471
 20
220.4420992094947
 30
0.0
 10
382.9039302631746
 20
222.0972738035362
 30
0.0
 10
382.2011307841836
 20
223.6514209724727
 30
0.0
 10
381.4805890634437
 20
225.244756102554
 30
0.0
 10
380.5414560341646
 20
226.7392385240554
 30
0.0
 10
379.5957773234635
 20
228.4633796233422
 30
0.0
 10
380.1055222641997
 20
228.4271415252067
 30
0.0
 10
380.3843596800372
 20
228.4778705562271
 30
0.0
 10
380.5958885428315
 20
228.3812356278658
 30
0.0
 10
382.4407371751828
 20
227.5381776989316
 30
0.0
 10
384.3149121828523
 20
226.7456334825499
 30
0.0
 10
386.0991701983567
 20
225.7869926000855
 30
0.0
 10
388.1620933749243
 20
224.6786407869403
 30
0.0
 10
390.1021988974428
 20
223.4746875740794
 30
0.0
 10
392.6572109003848
 20
223.9649892571708
 30
0.0
 10
394.886230743035
 20
224.3927624572049
 30
0.0
 10
397.1995262339931
 20
226.0822157513247
 30
0.0
 10
397.6758106848289
 20
227.7337514632599
 30
0.0
 10
396.3032846435054
 20
227.9440530107876
 30
0.0
 10
394.8665506350755
 20
228.0742130245897
 30
0.0
 10
393.4777895812777
 20
228.4053943599561
 30
0.0
 10
392.3632150644123
 20
228.6712050084899
 30
0.0
 10
391.960138892638
 20
229.6427865308707
 30
0.0
 10
392.2205019839358
 20
230.6693819217816
 30
0.0
 10
392.4717355721976
 20
231.6601698514927
 30
0.0
 10
393.1995119934567
 20
232.2389674248614
 30
0.0
 10
394.3500877581429
 20
232.2143565239887
 30
0.0
 10
396.5096458630718
 20
232.168127648946
 30
0.0
 10
398.6715294074532
 20
232.1701301106968
 30
0.0
 10
400.8314320219306
 20
232.2095764540029
 30
0.0
 10
403.5158073603437
 20
232.2586260009741
 30
0.0
 10
405.1381458880414
 20
234.1988391827265
 30
0.0
 10
404.9084010828688
 20
236.7478222685693
 30
0.0
 10
404.827484402659
 20
237.6454203654043
 30
0.0
 10
405.1413326013653
 20
238.642495594376
 30
0.0
 10
405.4998809139927
 20
239.5001305835821
 30
0.0
 10
405.9803856067979
 20
240.6494790330019
 30
0.0
 10
406.8058304850637
 20
241.6583537140105
 30
0.0
 10
407.2557168917438
 20
242.8159273289012
 30
0.0
 10
407.9746652558219
 20
244.6657928815529
 30
0.0
 10
406.9586204698346
 20
246.4685467534438
 30
0.0
 10
405.0294531254818
 20
247.0422628109718
 30
0.0
 10
404.9511202668859
 20
246.9473073666596
 30
0.0
 10
404.8504804150231
 20
246.856852078325
 30
0.0
 10
404.7879949956593
 20
246.7450802616754
 30
0.0
 10
401.8206911905201
 20
241.4387504086726
 30
0.0
 10
397.7008306907905
 20
237.3662169081716
 30
0.0
 10
391.9293914154322
 20
235.2622755634828
 30
0.0
 10
389.3884612402861
 20
234.335997046733
 30
0.0
 10
386.7203209143473
 20
233.5751692406623
 30
0.0
 10
384.0477880916647
 20
233.2508565644196
 30
0.0
 10
381.8815981779267
 20
232.9879742470483
 30
0.0
 10
379.6140363295353
 20
233.4157474470824
 30
0.0
 10
377.4066775247486
 20
233.6699093665067
 30
0.0
 10
373.785193150654
 20
234.0868951113027
 30
0.0
 10
370.1332627452085
 20
234.4037362367117
 30
0.0
 10
366.5713785230087
 20
235.1375846387635
 30
0.0
 10
360.6664417975969
 20
236.3541555138391
 30
0.0
 10
354.9892258837601
 20
238.3731537229698
 30
0.0
 10
349.4823699416689
 20
240.830691055526
 30
0.0
 10
348.9720651729163
 20
241.0584333989478
 30
0.0
 10
348.4505638438366
 20
241.6666650068686
 30
0.0
 10
348.2929507253864
 20
242.2035185427045
 30
0.0
 10
347.8070630708855
 20
243.8589084552138
 30
0.0
 10
349.2454334996709
 20
245.6926035909316
 30
0.0
 10
351.0005373946314
 20
245.6760240689088
 30
0.0
 10
352.8976653509714
 20
245.6581311042323
 30
0.0
 10
354.7935013965043
 20
245.4984724603378
 30
0.0
 10
356.7045819895595
 20
245.3998996657661
 30
0.0
 10
356.0977284198328
 20
246.7405801056978
 30
0.0
 10
355.5557287726159
 20
247.9381168282175
 30
0.0
 10
355.0137291253989
 20
249.1356535507371
 30
0.0
 10
358.2393289645448
 20
248.0049516806313
 30
0.0
 10
359.9511538474719
 20
247.746827901399
 30
0.0
 10
361.2453900938931
 20
248.2484553358981
 30
0.0
 10
359.0717070974747
 20
249.7439282223515
 30
0.0
 10
356.7780486507825
 20
251.321975741217
 30
0.0
 10
354.7534521614883
 20
252.7148709095971
 30
0.0
 10
356.068660426676
 20
253.9730197808103
 30
0.0
 10
357.1657941476474
 20
255.0225681203917
 30
0.0
 10
358.2629278686188
 20
256.072116459973
 30
0.0
 10
358.2009161498842
 20
256.3636361335655
 30
0.0
 10
358.4766529797849
 20
256.2510245748914
 30
0.0
 10
358.7194891478015
 20
256.0890189596975
 30
0.0
 10
362.5273101239546
 20
253.5484548259468
 30
0.0
 10
366.6472998147648
 20
251.7848458515071
 30
0.0
 10
371.2195444154013
 20
251.2643349873794
 30
0.0
 10
373.1290747154881
 20
251.0469494622601
 30
0.0
 10
375.0857597600294
 20
251.211431239834
 30
0.0
 10
376.9855146016768
 20
250.9470847568815
 30
0.0
 10
381.0371191471049
 20
250.3833164125671
 30
0.0
 10
385.0986714057466
 20
250.4996529807346
 30
0.0
 10
389.0314632206271
 20
251.3474263841143
 30
0.0
 10
394.1018686284307
 20
252.4404259905033
 30
0.0
 10
398.898475072544
 20
254.3683444877427
 30
0.0
 10
403.0475758202047
 20
257.6722125899441
 30
0.0
 10
404.6908863666688
 20
258.9807890463227
 30
0.0
 10
406.3832033964107
 20
260.1847853228771
 30
0.0
 10
408.6992549637571
 20
260.3599899601489
 30
0.0
 10
410.6773426640004
 20
260.5095932315958
 30
0.0
 10
411.2078873687288
 20
262.5242420076764
 30
0.0
 10
409.8742047790015
 20
264.0249686647448
 30
0.0
 10
409.6804612216498
 20
264.2430216771143
 30
0.0
 10
409.5250012878779
 20
264.4951165392475
 30
0.0
 10
409.2577049419161
 20
264.8598660237483
 30
0.0
 10
409.550667249243
 20
265.0849168863223
 30
0.0
 10
409.8044415954252
 20
265.261305775167
 30
0.0
 10
410.0367702222117
 20
265.4624562878121
 30
0.0
 10
410.4320518654506
 20
265.8046834605781
 30
0.0
 10
410.8138545726034
 20
266.1624996904148
 30
0.0
 10
411.2013416873069
 20
266.5137487069828
 30
0.0
 10
410.6801418040822
 20
266.763862639212
 30
0.0
 10
410.1830145255606
 20
267.1058529616633
 30
0.0
 10
409.6339524325989
 20
267.2498148892532
 30
0.0
 10
404.3927133524205
 20
268.6241711375533
 30
0.0
 10
399.1402346482215
 20
269.9558082018363
 30
0.0
 10
393.8996415234465
 20
271.3326190806696
 30
0.0
 10
393.4754641418252
 20
271.4440463877706
 30
0.0
 10
392.9120187752126
 20
271.7100508229255
 30
0.0
 10
392.7605637649423
 20
272.056196791806
 30
0.0
 10
392.0917415401746
 20
273.5845918719903
 30
0.0
 10
390.7458719251682
 20
274.0207409604229
 30
0.0
 10
389.3376460818787
 20
274.4070438235534
 30
0.0
 10
387.9613304355214
 20
274.7845832250431
 30
0.0
 10
386.5440181528896
 20
275.0493818767782
 30
0.0
 10
385.2124887478406
 20
275.5455186903477
 30
0.0
 10
382.8223676275613
 20
276.4360758732848
 30
0.0
 10
380.4828894109153
 20
277.4628650508167
 30
0.0
 10
378.5402000667829
 20
278.261007547362
 30
0.0
 10
379.0701418798015
 20
278.8697774514524
 30
0.0
 10
380.1155561048005
 20
279.5950992421782
 30
0.0
 10
380.4267343545058
 20
280.5577450481442
 30
0.0
 10
380.759616705768
 20
281.5874625568385
 30
0.0
 10
381.2591986148228
 20
282.1457833439168
 30
0.0
 10
382.1605647848448
 20
282.4231350623263
 30
0.0
 10
383.1780306727198
 20
282.7362081145483
 30
0.0
 10
383.5025156037368
 20
283.3735723111663
 30
0.0
 10
383.4824479225352
 20
284.3875931035561
 30
0.0
 10
383.4699594514012
 20
285.0205648034304
 30
0.0
 10
383.4655669546575
 20
285.886080448559
 30
0.0
 10
383.8418575090339
 20
286.252401757875
 30
0.0
 10
385.1611568251103
 20
287.536647227389
 30
0.0
 10
385.4315537570089
 20
288.8861126608081
 30
0.0
 10
384.4435864992263
 20
290.5402321943573
 30
0.0
 10
388.1823333109002
 20
292.3447947413779
 30
0.0
 10
391.8197512516141
 20
294.038877382556
 30
0.0
 10
395.4007126900635
 20
295.8450332862386
 30
0.0
 10
399.4905577953778
 20
297.907870335419
 30
0.0
 10
403.5247215449118
 20
300.0808427808936
 30
0.0
 10
407.5936376951532
 20
302.185516208373
 30
0.0
 10
409.7736941182193
 20
303.3131820880824
 30
0.0
 10
410.4953554949921
 20
304.7503036697544
 30
0.0
 10
409.5903289110169
 20
307.0052047922376
 30
0.0
 10
408.7625585932985
 20
309.0677403955631
 30
0.0
 10
409.2589537890295
 20
310.7981687941105
 30
0.0
 10
410.2759890399687
 20
312.5774529530082
 30
0.0
 10
410.4965612784119
 20
312.9634543702836
 30
0.0
 10
410.5702001944091
 20
313.7655156629434
 30
0.0
 10
410.3352446823151
 20
314.0018061495379
 30
0.0
 10
409.9848784714652
 20
314.3541748221386
 30
0.0
 10
409.1788122553039
 20
314.66156346681
 30
0.0
 10
408.7765542937074
 20
314.4915264727662
 30
0.0
 10
404.4498588737821
 20
312.6628482573488
 30
0.0
 10
400.1723852556023
 20
310.718113387772
 30
0.0
 10
395.8580921794239
 20
308.8593121187055
 30
0.0
 10
395.2887901504864
 20
308.6139997883089
 30
0.0
 10
394.5893496395935
 20
308.6708223319687
 30
0.0
 10
393.950155235999
 20
308.5877094033871
 30
0.0
 10
393.8962825553484
 20
308.7635599960623
 30
0.0
 10
393.8424529383914
 20
308.9394105887375
 30
0.0
 10
393.7885802577408
 20
309.1152611814127
 30
0.0
 10
394.9214568443716
 20
310.1320165183439
 30
0.0
 10
396.0756499593174
 20
311.1260772887659
 30
0.0
 10
397.1831620304382
 20
312.1697689660224
 30
0.0
 10
400.6350615792714
 20
315.4228219098163
 30
0.0
 10
404.0553523770274
 20
318.709507598285
 30
0.0
 10
407.5166398110579
 20
321.9525051696314
 30
0.0
 10
409.0805409065871
 20
323.4177473432017
 30
0.0
 10
410.6991328929446
 20
324.8256717406362
 30
0.0
 10
412.3170358602051
 20
326.2318520584813
 30
0.0
 10
413.8203894025809
 20
327.5384691168026
 30
0.0
 10
414.4337025263425
 20
330.1800822075051
 30
0.0
 10
412.2295304348797
 20
331.7760011592003
 30
0.0
  0
SPLINE
  5
42
330
1F
100
AcDbEntity
  8
_U+0421_U+043B_U+043E_U+0439 1
 62
     7
370
    35
100
AcDbSpline
210
0.0
220
0.0
230
1.0
 70
    11
 71
     3
 72
    14
 73
    10
 74
     0
 42
0.0000000001
 43
0.0000000001
 12
1.0
 22
0.0
 32
0.0
 13
1.0
 23
0.0
 33
0.0
 40
0.0
 40
0.0
 40
0.0
 40
0.0
 40
1.0
 40
1.0
 40
1.0
 40
2.0
 40
2.0
 40
2.0
 40
3.0
 40
3.0
 40
3.0
 40
3.0
 10
265.1131011639331
 20
319.0578498155373
 30
0.0
 10
261.215858428091
 20
320.9996348221048
 30
0.0
 10
258.4265584003053
 20
320.1863339054245
 30
0.0
 10
256.8249550410594
 20
315.9539910381015
 30
0.0
 10
256.5162314218874
 20
318.9065670600413
 30
0.0
 10
257.6550507982303
 20
320.9409605396217
 30
0.0
 10
259.8237384061951
 20
321.5761284878678
 30
0.0
 10
261.890300464869
 20
322.1814102327795
 30
0.0
 10
264.0269271529742
 20
321.2475740378089
 30
0.0
 10
265.1131011639331
 20
319.0578498155373
 30
0.0
  0
SPLINE
  5
43
330
1F
100
AcDbEntity
  8
_U+0421_U+043B_U+043E_U+0439 1
 62
     7
370
    35
100
AcDbSpline
210
0.0
220
0.0
230
1.0
 70
    11
 71
     3
 72
    17
 73
    13
 74
     0
 42
0.0000000001
 43
0.0000000001
 12
1.0
 22
0.0
 32
0.0
 13
1.0
 23
0.0
 33
0.0
 40
0.0
 40
0.0
 40
0.0
 40
0.0
 40
1.0
 40
1.0
 40
1.0
 40
2.0
 40
2.0
 40
2.0
 40
3.0
 40
3.0
 40
3.0
 40
4.0
 40
4.0
 40
4.0
 40
4.0
 10
246.8002870069987
 20
305.0731952441095
 30
0.0
 10
245.4714921464911
 20
306.5063764978202
 30
0.0
 10
245.6029010074066
 20
309.1596598494789
 30
0.0
 10
246.8820218973863
 20
310.5681871386233
 30
0.0
 10
248.6674641644638
 20
312.5343031320554
 30
0.0
 10
251.2214857024537
 20
312.9963980958613
 30
0.0
 10
253.167555546531
 20
311.5087412697901
 30
0.0
 10
251.2738296219828
 20
311.4720079391786
 30
0.0
 10
249.628495081921
 20
311.3463265495074
 30
0.0
 10
248.2857260528513
 20
309.9881407181412
 30
0.0
 10
246.9373156799245
 20
308.6242920110711
 30
0.0
 10
246.6733783020608
 20
307.016659734726
 30
0.0
 10
246.8002870069987
 20
305.0731952441095
 30
0.0
  0
SPLINE
  5
44
330
1F
100
AcDbEntity
  8
_U+0421_U+043B_U+043E_U+0439 1
 62
     7
370
    35
100
AcDbSpline
210
0.0
220
0.0
230
1.0
 70
    11
 71
     3
 72
    17
 73
    13
 74
     0
 42
0.0000000001
 43
0.0000000001
 12
1.0
 22
0.0
 32
0.0
 13
1.0
 23
0.0
 33
0.0
 40
0.0
 40
0.0
 40
0.0
 40
0.0
 40
1.0
 40
1.0
 40
1.0
 40
2.0
 40
2.0
 40
2.0
 40
3.0
 40
3.0
 40
3.0
 40
4.0
 40
4.0
 40
4.0
 40
4.0
 10
242.0887959532178
 20
306.3867455570949
 30
0.0
 10
239.6730734671139
 20
308.6189951767625
 30
0.0
 10
240.1643225514637
 20
312.0677510759654
 30
0.0
 10
241.6560919602704
 20
314.0316492891789
 30
0.0
 10
243.5147855701031
 20
316.4785929531179
 30
0.0
 10
246.7298348043253
 20
317.0998513283424
 30
0.0
 10
249.2572429796918
 20
315.5151289369742
 30
0.0
 10
246.8188474589255
 20
315.606165585172
 30
0.0
 10
244.6258719277897
 20
315.0548426482981
 30
0.0
 10
243.0123183935794
 20
313.0968872247967
 30
0.0
 10
241.409380059833
 20
311.1518293775182
 30
0.0
 10
241.5124314785355
 20
308.8806501788673
 30
0.0
 10
242.0887959532178
 20
306.3867455570949
 30
0.0
  0
SPLINE
  5
45
330
1F
100
AcDbEntity
  8
_U+0421_U+043B_U+043E_U+0439 1
 62
     7
370
    35
100
AcDbSpline
210
0.0
220
0.0
230
1.0
 70
    11
 71
     3
 72
    17
 73
    13
 74
     0
 42
0.0000000001
 43
0.0000000001
 12
1.0
 22
0.0
 32
0.0
 13
1.0
 23
0.0
 33
0.0
 40
0.0
 40
0.0
 40
0.0
 40
0.0
 40
1.0
 40
1.0
 40
1.0
 40
2.0
 40
2.0
 40
2.0
 40
3.0
 40
3.0
 40
3.0
 40
4.0
 40
4.0
 40
4.0
 40
4.0
 10
237.6235861629387
 20
308.5526340249779
 30
0.0
 10
235.4655783509782
 20
310.343373126364
 30
0.0
 10
235.2718347936265
 20
314.5774385414296
 30
0.0
 10
237.260020930011
 20
317.3424506460443
 30
0.0
 10
239.8045038598761
 20
320.881145069259
 30
0.0
 10
245.0041649439169
 20
321.0181306784913
 30
0.0
 10
246.8929600755519
 20
319.1917994343733
 30
0.0
 10
243.7431954007751
 20
320.0219813189313
 30
0.0
 10
241.1035417081299
 20
318.8725682739712
 30
0.0
 10
239.0687606553075
 20
316.7239698790548
 30
0.0
 10
236.9820878517384
 20
314.5205729340762
 30
0.0
 10
236.6452867043617
 20
311.6655792417561
 30
0.0
 10
237.6235861629387
 20
308.5526340249779
 30
0.0
  0
SPLINE
  5
46
330
1F
100
AcDbEntity
  8
_U+0421_U+043B_U+043E_U+0439 1
 62
     7
370
    35
100
AcDbSpline
210
0.0
220
0.0
230
1.0
 70
    11
 71
     3
 72
    17
 73
    13
 74
     0
 42
0.0000000001
 43
0.0000000001
 12
1.0
 22
0.0
 32
0.0
 13
1.0
 23
0.0
 33
0.0
 40
0.0
 40
0.0
 40
0.0
 40
0.0
 40
1.0
 40
1.0
 40
1.0
 40
2.0
 40
2.0
 40
2.0
 40
3.0
 40
3.0
 40
3.0
 40
4.0
 40
4.0
 40
4.0
 40
4.0
 10
233.182427445516
 20
310.040398510283
 30
0.0
 10
231.8586495053088
 20
310.8170952874326
 30
0.0
 10
230.5453575744848
 20
314.1421937905619
 30
0.0
 10
230.7877631055657
 20
316.0918809848986
 30
0.0
 10
231.2472527159109
 20
319.7875856348536
 30
0.0
 10
233.1141068956742
 20
322.6010443947297
 30
0.0
 10
236.5790762755045
 20
323.8936226889487
 30
0.0
 10
239.0449894964592
 20
324.8135062472039
 30
0.0
 10
241.6968517462303
 20
324.6557854695198
 30
0.0
 10
244.0134846734398
 20
323.0847788645523
 30
0.0
 10
235.2195124059443
 20
324.3858407064037
 30
0.0
 10
230.4875876295665
 20
316.4993281215698
 30
0.0
 10
233.182427445516
 20
310.040398510283
 30
0.0
  0
SPLINE
  5
47
330
1F
100
AcDbEntity
  8
_U+0421_U+043B_U+043E_U+0439 1
 62
     7
370
    35
100
AcDbSpline
210
0.0
220
0.0
230
1.0
 70
    11
 71
     3
 72
    17
 73
    13
 74
     0
 42
0.0000000001
 43
0.0000000001
 12
1.0
 22
0.0
 32
0.0
 13
1.0
 23
0.0
 33
0.0
 40
0.0
 40
0.0
 40
0.0
 40
0.0
 40
1.0
 40
1.0
 40
1.0
 40
2.0
 40
2.0
 40
2.0
 40
3.0
 40
3.0
 40
3.0
 40
4.0
 40
4.0
 40
4.0
 40
4.0
 10
245.2315412459434
 20
331.1970097992105
 30
0.0
 10
244.4381788193839
 20
334.0927417456437
 30
0.0
 10
245.342624043496
 20
336.6427368282853
 30
0.0
 10
247.3020436325786
 20
338.7072533615147
 30
0.0
 10
249.4845762180247
 20
341.0067684705319
 30
0.0
 10
252.3104803853412
 20
342.0093343204331
 30
0.0
 10
255.4948252060512
 20
341.2993001409232
 30
0.0
 10
258.1017289597398
 20
340.7179833414808
 30
0.0
 10
260.2112255208986
 20
339.3717692169259
 30
0.0
 10
261.2630347043922
 20
336.7823923865186
 30
0.0
 10
254.4007920710166
 20
342.8330135872628
 30
0.0
 10
245.8663431527943
 20
338.025555092371
 30
0.0
 10
245.2315412459434
 20
331.1970097992105
 30
0.0
  0
SPLINE
  5
48
330
1F
100
AcDbEntity
  8
_U+0421_U+043B_U+043E_U+0439 1
 62
     7
370
    35
100
AcDbSpline
210
0.0
220
0.0
230
1.0
 70
    11
 71
     3
 72
    20
 73
    16
 74
     0
 42
0.0000000001
 43
0.0000000001
 12
1.0
 22
0.0
 32
0.0
 13
1.0
 23
0.0
 33
0.0
 40
0.0
 40
0.0
 40
0.0
 40
0.0
 40
1.0
 40
1.0
 40
1.0
 40
2.0
 40
2.0
 40
2.0
 40
3.0
 40
3.0
 40
3.0
 40
4.0
 40
4.0
 40
4.0
 40
5.0
 40
5.0
 40
5.0
 40
5.0
 10
262.5929276890857
 20
332.517687153481
 30
0.0
 10
259.9214929905891
 20
334.5125912260617
 30
0.0
 10
257.0702458396092
 20
335.4076270331296
 30
0.0
 10
253.8078696061583
 20
334.2610131282513
 30
0.0
 10
250.5810424517458
 20
333.1269092263539
 30
0.0
 10
248.8864645780918
 20
330.7359914277437
 30
0.0
 10
248.110284565265
 20
327.5009175760134
 30
0.0
 10
247.4406871940131
 20
329.4474180570263
 30
0.0
 10
248.0339111047263
 20
331.2337646616687
 30
0.0
 10
249.0729088393841
 20
332.8237623554987
 30
0.0
 10
251.0101290944337
 20
335.7883962116368
 30
0.0
 10
253.9232157093738
 20
336.9278615433832
 30
0.0
 10
257.3291878290192
 20
336.3696699473856
 30
0.0
 10
259.6107884415131
 20
335.9957909598489
 30
0.0
 10
261.5989745778976
 20
334.863215819073
 30
0.0
 10
262.5929276890857
 20
332.517687153481
 30
0.0
  0
SPLINE
  5
49
330
1F
100
AcDbEntity
  8
_U+0421_U+043B_U+043E_U+0439 1
 62
     7
370
    35
100
AcDbSpline
210
0.0
220
0.0
230
1.0
 70
    11
 71
     3
 72
    14
 73
    10
 74
     0
 42
0.0000000001
 43
0.0000000001
 12
1.0
 22
0.0
 32
0.0
 13
1.0
 23
0.0
 33
0.0
 40
0.0
 40
0.0
 40
0.0
 40
0.0
 40
1.0
 40
1.0
 40
1.0
 40
2.0
 40
2.0
 40
2.0
 40
3.0
 40
3.0
 40
3.0
 40
3.0
 10
251.1508612450061
 20
307.152784070087
 30
0.0
 10
252.5639317538217
 20
309.1071652070224
 30
0.0
 10
255.4478857800647
 20
309.5578267601867
 30
0.0
 10
257.0196675315163
 20
308.1124154175033
 30
0.0
 10
253.0155407082444
 20
308.0118616930276
 30
0.0
 10
251.4409598167109
 20
306.4284527443132
 30
0.0
 10
251.4647094437124
 20
302.4262853190984
 30
0.0
 10
250.0311406167596
 20
303.6252862071993
 30
0.0
 10
250.2725341510417
 20
305.9380003382943
 30
0.0
 10
251.1508612450061
 20
307.152784070087
 30
0.0
  0
SPLINE
  5
4A
330
1F
100
AcDbEntity
  8
_U+0421_U+043B_U+043E_U+0439 1
 62
     7
370
    35
100
AcDbSpline
210
0.0
220
0.0
230
1.0
 70
    11
 71
     3
 72
    14
 73
    10
 74
     0
 42
0.0000000001
 43
0.0000000001
 12
1.0
 22
0.0
 32
0.0
 13
1.0
 23
0.0
 33
0.0
 40
0.0
 40
0.0
 40
0.0
 40
0.0
 40
1.0
 40
1.0
 40
1.0
 40
2.0
 40
2.0
 40
2.0
 40
3.0
 40
3.0
 40
3.0
 40
3.0
 10
257.5644232551215
 20
326.8436794848149
 30
0.0
 10
260.2688232110426
 20
327.4608468091506
 30
0.0
 10
263.3028111456682
 20
326.3622058589044
 30
0.0
 10
263.8546939105585
 20
323.7564863567889
 30
0.0
 10
259.330831369643
 20
327.3340242315998
 30
0.0
 10
254.8975533081428
 20
324.5006269816029
 30
0.0
 10
253.7555041547825
 20
320.3870753129806
 30
0.0
 10
252.8665833922009
 20
322.9739975128547
 30
0.0
 10
254.8210291246767
 20
326.2176195077578
 30
0.0
 10
257.5644232551215
 20
326.8436794848149
 30
0.0
  0
SPLINE
  5
4B
330
1F
100
AcDbEntity
  8
_U+0421_U+043B_U+043E_U+0439 1
 62
     7
370
    35
100
AcDbSpline
210
0.0
220
0.0
230
1.0
 70
    11
 71
     3
 72
    14
 73
    10
 74
     0
 42
0.0000000001
 43
0.0000000001
 12
1.0
 22
0.0
 32
0.0
 13
1.0
 23
0.0
 33
0.0
 40
0.0
 40
0.0
 40
0.0
 40
0.0
 40
1.0
 40
1.0
 40
1.0
 40
2.0
 40
2.0
 40
2.0
 40
3.0
 40
3.0
 40
3.0
 40
3.0
 10
251.0604274885183
 20
323.7658096464459
 30
0.0
 10
250.2352625242606
 20
326.8571799527477
 30
0.0
 10
252.4697945196872
 20
330.6313251205324
 30
0.0
 10
255.6101282455732
 20
331.6162994516122
 30
0.0
 10
259.4160544192094
 20
332.810046569098
 30
0.0
 10
262.9233338779679
 20
330.656754231583
 30
0.0
 10
264.0448201176507
 20
327.852209656275
 30
0.0
 10
257.9545372551325
 20
331.739246296742
 30
0.0
 10
253.6871836049406
 20
330.2152221814546
 30
0.0
 10
251.0604274885183
 20
323.7658096464459
 30
0.0
  0
SPLINE
  5
4C
330
1F
100
AcDbEntity
  8
_U+0421_U+043B_U+043E_U+0439 1
 62
     7
370
    35
100
AcDbSpline
210
0.0
220
0.0
230
1.0
 70
    11
 71
     3
 72
    14
 73
    10
 74
     0
 42
0.0000000001
 43
0.0000000001
 12
1.0
 22
0.0
 32
0.0
 13
1.0
 23
0.0
 33
0.0
 40
0.0
 40
0.0
 40
0.0
 40
0.0
 40
1.0
 40
1.0
 40
1.0
 40
2.0
 40
2.0
 40
2.0
 40
3.0
 40
3.0
 40
3.0
 40
3.0
 10
248.1640065229881
 20
344.8158382937984
 30
0.0
 10
254.3768271255473
 20
347.8881744475442
 30
0.0
 10
260.7139080158901
 20
344.8407721723729
 30
0.0
 10
263.0156839688194
 20
339.6756697024185
 30
0.0
 10
255.2100450005017
 20
347.2374389740741
 30
0.0
 10
244.3055426432018
 20
342.5687747635442
 30
0.0
 10
242.6515092370398
 20
333.8902777903449
 30
0.0
 10
241.5714933342608
 20
338.3050384636118
 30
0.0
 10
244.2502488606636
 20
342.880383650185
 30
0.0
 10
248.1640065229881
 20
344.8158382937984
 30
0.0
  0
SPLINE
  5
4D
330
1F
100
AcDbEntity
  8
_U+0421_U+043B_U+043E_U+0439 1
 62
     7
370
    35
100
AcDbSpline
210
0.0
220
0.0
230
1.0
 70
    11
 71
     3
 72
    17
 73
    13
 74
     0
 42
0.0000000001
 43
0.0000000001
 12
1.0
 22
0.0
 32
0.0
 13
1.0
 23
0.0
 33
0.0
 40
0.0
 40
0.0
 40
0.0
 40
0.0
 40
1.0
 40
1.0
 40
1.0
 40
2.0
 40
2.0
 40
2.0
 40
3.0
 40
3.0
 40
3.0
 40
4.0
 40
4.0
 40
4.0
 40
4.0
 10
230.07234596436
 20
323.1826195763334
 30
0.0
 10
227.2776629748785
 20
319.8900341618462
 30
0.0
 10
226.7587454674128
 20
316.1608259582972
 30
0.0
 10
228.4331264687845
 20
311.8388244809706
 30
0.0
 10
225.1709870856482
 20
314.9263836503918
 30
0.0
 10
225.2587078294414
 20
321.155460797272
 30
0.0
 10
228.3446090466604
 20
324.6448688232009
 30
0.0
 10
231.789424617902
 20
328.540130629139
 30
0.0
 10
237.8808917319933
 20
328.82148727105
 30
0.0
 10
241.0343598844168
 20
326.2641928923491
 30
0.0
 10
236.7301006488392
 20
326.9789856099981
 30
0.0
 10
232.931904408198
 20
326.5516430468996
 30
0.0
 10
230.07234596436
 20
323.1826195763334
 30
0.0
  0
SPLINE
  5
4E
330
1F
100
AcDbEntity
  8
_U+0421_U+043B_U+043E_U+0439 1
 62
     7
370
    35
100
AcDbSpline
210
0.0
220
0.0
230
1.0
 70
    11
 71
     3
 72
    17
 73
    13
 74
     0
 42
0.0000000001
 43
0.0000000001
 12
1.0
 22
0.0
 32
0.0
 13
1.0
 23
0.0
 33
0.0
 40
0.0
 40
0.0
 40
0.0
 40
0.0
 40
1.0
 40
1.0
 40
1.0
 40
2.0
 40
2.0
 40
2.0
 40
3.0
 40
3.0
 40
3.0
 40
4.0
 40
4.0
 40
4.0
 40
4.0
 10
223.1099371797507
 20
325.9231715030029
 30
0.0
 10
226.3509322893463
 20
331.6965486445717
 30
0.0
 10
234.051883418606
 20
333.2222307120614
 30
0.0
 10
238.703085301395
 20
330.0258926526934
 30
0.0
 10
233.7538611272851
 20
330.8355331554206
 30
0.0
 10
229.4812537064782
 20
329.4611769071205
 30
0.0
 10
226.4453925011825
 20
325.5503045122649
 30
0.0
 10
223.4482886200958
 20
321.6893429382519
 30
0.0
 10
222.8571532985205
 20
317.272687462468
 30
0.0
 10
225.1871144388886
 20
312.5997168825816
 30
0.0
 10
221.8363069107006
 20
314.1235902749415
 30
0.0
 10
220.6169799592368
 20
321.4823357632819
 30
0.0
 10
223.1099371797507
 20
325.9231715030029
 30
0.0
  0
SPLINE
  5
4F
330
1F
100
AcDbEntity
  8
_U+0421_U+043B_U+043E_U+0439 1
 62
     7
370
    35
100
AcDbSpline
210
0.0
220
0.0
230
1.0
 70
    11
 71
     3
 72
    17
 73
    13
 74
     0
 42
0.0000000001
 43
0.0000000001
 12
1.0
 22
0.0
 32
0.0
 13
1.0
 23
0.0
 33
0.0
 40
0.0
 40
0.0
 40
0.0
 40
0.0
 40
1.0
 40
1.0
 40
1.0
 40
2.0
 40
2.0
 40
2.0
 40
3.0
 40
3.0
 40
3.0
 40
4.0
 40
4.0
 40
4.0
 40
4.0
 10
225.1030541090485
 20
283.0004900019605
 30
0.0
 10
222.2157195828606
 20
286.5166836452872
 30
0.0
 10
221.4319172962727
 20
290.5216071468902
 30
0.0
 10
223.3771473983254
 20
294.7932025708982
 30
0.0
 10
224.7780524137087
 20
297.8695005844521
 30
0.0
 10
227.1203297704365
 20
299.8861087585898
 30
0.0
 10
230.4356958788199
 20
300.6583484434554
 30
0.0
 10
222.488312763131
 20
295.4733074833801
 30
0.0
 10
222.9667073349515
 20
283.861268640797
 30
0.0
 10
231.9858811879484
 20
279.5165941288081
 30
0.0
 10
229.1393925751075
 20
279.5551146027025
 30
0.0
 10
226.8265061892382
 20
280.901673236806
 30
0.0
 10
225.1030541090485
 20
283.0004900019605
 30
0.0
  0
SPLINE
  5
50
330
1F
100
AcDbEntity
  8
_U+0421_U+043B_U+043E_U+0439 1
 62
     7
370
    35
100
AcDbSpline
210
0.0
220
0.0
230
1.0
 70
    11
 71
     3
 72
    17
 73
    13
 74
     0
 42
0.0000000001
 43
0.0000000001
 12
1.0
 22
0.0
 32
0.0
 13
1.0
 23
0.0
 33
0.0
 40
0.0
 40
0.0
 40
0.0
 40
0.0
 40
1.0
 40
1.0
 40
1.0
 40
2.0
 40
2.0
 40
2.0
 40
3.0
 40
3.0
 40
3.0
 40
4.0
 40
4.0
 40
4.0
 40
4.0
 10
226.5599203942203
 20
288.2336331077486
 30
0.0
 10
225.2603657816437
 20
294.1179207920957
 30
0.0
 10
229.7520812753124
 20
298.7476984873358
 30
0.0
 10
233.6351129922779
 20
299.0808607526063
 30
0.0
 10
230.2067046882847
 20
296.837371508918
 30
0.0
 10
228.3981587496092
 20
293.8211904115818
 30
0.0
 10
228.5807488103275
 20
290.0025389164969
 30
0.0
 10
228.7634465302796
 20
286.1819495552016
 30
0.0
 10
230.813106089229
 20
283.3253625062196
 30
0.0
 10
234.3263283376997
 20
281.4457184094673
 30
0.0
 10
230.833432152592
 20
281.3873671046859
 30
0.0
 10
227.380714393581
 20
284.5170640982611
 30
0.0
 10
226.5599203942203
 20
288.2336331077486
 30
0.0
  0
SPLINE
  5
51
330
1F
100
AcDbEntity
  8
_U+0421_U+043B_U+043E_U+0439 1
 62
     7
370
    35
100
AcDbSpline
210
0.0
220
0.0
230
1.0
 70
    11
 71
     3
 72
    17
 73
    13
 74
     0
 42
0.0000000001
 43
0.0000000001
 12
1.0
 22
0.0
 32
0.0
 13
1.0
 23
0.0
 33
0.0
 40
0.0
 40
0.0
 40
0.0
 40
0.0
 40
1.0
 40
1.0
 40
1.0
 40
2.0
 40
2.0
 40
2.0
 40
3.0
 40
3.0
 40
3.0
 40
4.0
 40
4.0
 40
4.0
 40
4.0
 10
231.5991476878823
 20
291.8683595676147
 30
0.0
 10
231.7528204783713
 20
294.9632180330953
 30
0.0
 10
234.2116497217344
 20
298.1772768023656
 30
0.0
 10
237.5428848011967
 20
298.5277076087558
 30
0.0
 10
234.7683986839976
 20
296.6271776206242
 30
0.0
 10
233.2528365844958
 20
294.1194495532173
 30
0.0
 10
233.3284348985503
 20
290.9409183311386
 30
0.0
 10
233.4056696329602
 20
287.6938081770567
 30
0.0
 10
235.1005274206225
 20
285.2784517323481
 30
0.0
 10
237.9547459664584
 20
283.6327726827378
 30
0.0
 10
233.8377492023509
 20
284.1606474384652
 30
0.0
 10
231.3752164813411
 20
287.3584496634144
 30
0.0
 10
231.5991476878823
 20
291.8683595676147
 30
0.0
  0
SPLINE
  5
52
330
1F
100
AcDbEntity
  8
_U+0421_U+043B_U+043E_U+0439 1
 62
     7
370
    35
100
AcDbSpline
210
0.0
220
0.0
230
1.0
 70
    11
 71
     3
 72
    17
 73
    13
 74
     0
 42
0.0000000001
 43
0.0000000001
 12
1.0
 22
0.0
 32
0.0
 13
1.0
 23
0.0
 33
0.0
 40
0.0
 40
0.0
 40
0.0
 40
0.0
 40
1.0
 40
1.0
 40
1.0
 40
2.0
 40
2.0
 40
2.0
 40
3.0
 40
3.0
 40
3.0
 40
4.0
 40
4.0
 40
4.0
 40
4.0
 10
237.5453609635768
 20
287.9679947139891
 30
0.0
 10
236.2589192456909
 20
290.0181710372613
 30
0.0
 10
236.2121305426319
 20
292.2635550834664
 30
0.0
 10
237.1597040558498
 20
294.4438483568471
 30
0.0
 10
237.8929065024981
 20
296.1308900841271
 30
0.0
 10
239.1546081284305
 20
297.3430253987655
 30
0.0
 10
241.0126557828597
 20
297.7309216185579
 30
0.0
 10
236.7097099899358
 20
293.8503445321257
 30
0.0
 10
237.441340611769
 20
287.6989973521314
 30
0.0
 10
242.360420200383
 20
285.1714815175311
 30
0.0
 10
240.8471189447934
 20
284.9096757924989
 30
0.0
 10
238.7602308227566
 20
286.0318941149722
 30
0.0
 10
237.5453609635768
 20
287.9679947139891
 30
0.0
  0
SPLINE
  5
53
330
1F
100
AcDbEntity
  8
_U+0421_U+043B_U+043E_U+0439 1
 62
     7
370
    35
100
AcDbSpline
210
0.0
220
0.0
230
1.0
 70
    11
 71
     3
 72
    14
 73
    10
 74
     0
 42
0.0000000001
 43
0.0000000001
 12
1.0
 22
0.0
 32
0.0
 13
1.0
 23
0.0
 33
0.0
 40
0.0
 40
0.0
 40
0.0
 40
0.0
 40
1.0
 40
1.0
 40
1.0
 40
2.0
 40
2.0
 40
2.0
 40
3.0
 40
3.0
 40
3.0
 40
3.0
 10
241.358220391877
 20
290.2636986861256
 30
0.0
 10
240.3409267587763
 20
293.7130574770385
 30
0.0
 10
242.6771536665582
 20
296.9023761543553
 30
0.0
 10
245.8150973574512
 20
297.4899371893646
 30
0.0
 10
241.21664849928
 20
294.3737837274159
 30
0.0
 10
242.2436529952798
 20
288.5456510994783
 30
0.0
 10
246.0573521656046
 20
286.538710724546
 30
0.0
 10
244.4487294243075
 20
286.131349715262
 30
0.0
 10
241.9697248405089
 20
288.1902033727877
 30
0.0
 10
241.358220391877
 20
290.2636986861256
 30
0.0
  0
SPLINE
  5
54
330
1F
100
AcDbEntity
  8
_U+0421_U+043B_U+043E_U+0439 1
 62
     7
370
    35
100
AcDbSpline
210
0.0
220
0.0
230
1.0
 70
    11
 71
     3
 72
    17
 73
    13
 74
     0
 42
0.0000000001
 43
0.0000000001
 12
1.0
 22
0.0
 32
0.0
 13
1.0
 23
0.0
 33
0.0
 40
0.0
 40
0.0
 40
0.0
 40
0.0
 40
1.0
 40
1.0
 40
1.0
 40
2.0
 40
2.0
 40
2.0
 40
3.0
 40
3.0
 40
3.0
 40
4.0
 40
4.0
 40
4.0
 40
4.0
 10
246.4035842618722
 20
292.1830475083455
 30
0.0
 10
246.143264234268
 20
294.5131163079474
 30
0.0
 10
247.6090662358547
 20
296.4189431303876
 30
0.0
 10
250.2436599445059
 20
296.9470547364297
 30
0.0
 10
249.0084855538099
 20
295.7020833554475
 30
0.0
 10
247.991213452556
 20
294.5122765659229
 30
0.0
 10
248.0959443553076
 20
292.7590028779389
 30
0.0
 10
248.198909646623
 20
291.0349263741924
 30
0.0
 10
248.9095251859962
 20
289.6735753613492
 30
0.0
 10
250.4922881793071
 20
288.545780290559
 30
0.0
 10
248.4681223269485
 20
288.452891903538
 30
0.0
 10
246.6279030416555
 20
290.1748798181466
 30
0.0
 10
246.4035842618722
 20
292.1830475083455
 30
0.0
  0
SPLINE
  5
55
330
1F
100
AcDbEntity
  8
_U+0421_U+043B_U+043E_U+0439 1
 62
     7
370
    35
100
AcDbSpline
210
0.0
220
0.0
230
1.0
 70
    11
 71
     3
 72
    14
 73
    10
 74
     0
 42
0.0000000001
 43
0.0000000001
 12
1.0
 22
0.0
 32
0.0
 13
1.0
 23
0.0
 33
0.0
 40
0.0
 40
0.0
 40
0.0
 40
0.0
 40
1.0
 40
1.0
 40
1.0
 40
2.0
 40
2.0
 40
2.0
 40
3.0
 40
3.0
 40
3.0
 40
3.0
 10
254.3981436538623
 20
289.5710407069694
 30
0.0
 10
252.6400468321989
 20
289.7492382709439
 30
0.0
 10
251.1791110279852
 20
291.449263701834
 30
0.0
 10
251.1623377193414
 20
293.1824051130761
 30
0.0
 10
251.1411288502603
 20
295.3714187844038
 30
0.0
 10
252.4079981194206
 20
296.8425822158395
 30
0.0
 10
254.5711951064557
 20
297.1409705485556
 30
0.0
 10
251.9873734925183
 20
294.216730436982
 30
0.0
 10
252.0472320265746
 20
292.4347763290833
 30
0.0
 10
254.3981436538623
 20
289.5710407069694
 30
0.0
  0
SPLINE
  5
56
330
1F
100
AcDbEntity
  8
_U+0421_U+043B_U+043E_U+0439 1
 62
     7
370
    35
100
AcDbSpline
210
0.0
220
0.0
230
1.0
 70
    11
 71
     3
 72
    14
 73
    10
 74
     0
 42
0.0000000001
 43
0.0000000001
 12
1.0
 22
0.0
 32
0.0
 13
1.0
 23
0.0
 33
0.0
 40
0.0
 40
0.0
 40
0.0
 40
0.0
 40
1.0
 40
1.0
 40
1.0
 40
2.0
 40
2.0
 40
2.0
 40
3.0
 40
3.0
 40
3.0
 40
3.0
 10
259.3818187828247
 20
290.4156273970252
 30
0.0
 10
257.9484868061865
 20
290.4299460751357
 30
0.0
 10
256.7026110876395
 20
291.7052558282349
 30
0.0
 10
256.4670957475291
 20
293.3488893524008
 30
0.0
 10
256.2594210853089
 20
294.7981979593519
 30
0.0
 10
257.3423868510972
 20
296.2621266902684
 30
0.0
 10
259.4488689537064
 20
297.0053199138239
 30
0.0
 10
257.6258320821461
 20
294.6082440070339
 30
0.0
 10
257.9252108798143
 20
292.4968311115114
 30
0.0
 10
259.3818187828247
 20
290.4156273970252
 30
0.0
  0
SPLINE
  5
57
330
1F
100
AcDbEntity
  8
_U+0421_U+043B_U+043E_U+0439 1
 62
     7
370
    35
100
AcDbSpline
210
0.0
220
0.0
230
1.0
 70
    11
 71
     3
 72
    14
 73
    10
 74
     0
 42
0.0000000001
 43
0.0000000001
 12
1.0
 22
0.0
 32
0.0
 13
1.0
 23
0.0
 33
0.0
 40
0.0
 40
0.0
 40
0.0
 40
0.0
 40
1.0
 40
1.0
 40
1.0
 40
2.0
 40
2.0
 40
2.0
 40
3.0
 40
3.0
 40
3.0
 40
3.0
 10
256.217067942687
 20
299.6249274571143
 30
0.0
 10
255.0643389933225
 20
301.2382010773165
 30
0.0
 10
255.1448035047498
 20
302.7336524319231
 30
0.0
 10
256.3523955997171
 20
303.9007861867854
 30
0.0
 10
257.5268286506387
 20
305.0358590217881
 30
0.0
 10
259.0775737877835
 20
305.1401377557572
 30
0.0
 10
260.3720468845194
 20
304.17107545945
 30
0.0
 10
257.7515565355109
 20
303.7714228513142
 30
0.0
 10
256.31215257808
 20
303.1891801824602
 30
0.0
 10
256.217067942687
 20
299.6249274571143
 30
0.0
  0
SPLINE
  5
58
330
1F
100
AcDbEntity
  8
_U+0421_U+043B_U+043E_U+0439 1
 62
     7
370
    35
100
AcDbSpline
210
0.0
220
0.0
230
1.0
 70
    11
 71
     3
 72
    14
 73
    10
 74
     0
 42
0.0000000001
 43
0.0000000001
 12
1.0
 22
0.0
 32
0.0
 13
1.0
 23
0.0
 33
0.0
 40
0.0
 40
0.0
 40
0.0
 40
0.0
 40
1.0
 40
1.0
 40
1.0
 40
2.0
 40
2.0
 40
2.0
 40
3.0
 40
3.0
 40
3.0
 40
3.0
 10
259.0215909861482
 20
312.1605963992929
 30
0.0
 10
258.3000372686095
 20
313.9406772365215
 30
0.0
 10
259.7902133207543
 20
316.3979561869163
 30
0.0
 10
262.3730014060461
 20
316.8501465012021
 30
0.0
 10
263.959532472544
 20
317.1279288565472
 30
0.0
 10
265.9601855482157
 20
315.8170484925628
 30
0.0
 10
266.0935322753417
 20
314.4017817353754
 30
0.0
 10
263.0354286723193
 20
316.0172731357962
 30
0.0
 10
261.3565475149699
 20
315.4852212017929
 30
0.0
 10
259.0215909861482
 20
312.1605963992929
 30
0.0
  0
SPLINE
  5
59
330
1F
100
AcDbEntity
  8
_U+0421_U+043B_U+043E_U+0439 1
 62
     7
370
    35
100
AcDbSpline
210
0.0
220
0.0
230
1.0
 70
    11
 71
     3
 72
    14
 73
    10
 74
     0
 42
0.0000000001
 43
0.0000000001
 12
1.0
 22
0.0
 32
0.0
 13
1.0
 23
0.0
 33
0.0
 40
0.0
 40
0.0
 40
0.0
 40
0.0
 40
1.0
 40
1.0
 40
1.0
 40
2.0
 40
2.0
 40
2.0
 40
3.0
 40
3.0
 40
3.0
 40
3.0
 10
262.4802515348713
 20
307.9116524781004
 30
0.0
 10
261.7347759355567
 20
309.4958581051457
 30
0.0
 10
262.1786549569844
 20
310.8263970452428
 30
0.0
 10
263.6670008021527
 20
311.468993480629
 30
0.0
 10
265.1328458674329
 20
312.1019005849629
 30
0.0
 10
266.4917853134365
 20
311.4607252514644
 30
0.0
 10
267.1555906179038
 20
309.7058366749717
 30
0.0
 10
264.5148388010727
 20
310.5938315681416
 30
0.0
 10
263.4994830341824
 20
310.1821641895011
 30
0.0
 10
262.4802515348713
 20
307.9116524781004
 30
0.0
  0
SPLINE
  5
5A
330
1F
100
AcDbEntity
  8
_U+0421_U+043B_U+043E_U+0439 1
 62
     7
370
    35
100
AcDbSpline
210
0.0
220
0.0
230
1.0
 70
    11
 71
     3
 72
    17
 73
    13
 74
     0
 42
0.0000000001
 43
0.0000000001
 12
1.0
 22
0.0
 32
0.0
 13
1.0
 23
0.0
 33
0.0
 40
0.0
 40
0.0
 40
0.0
 40
0.0
 40
1.0
 40
1.0
 40
1.0
 40
2.0
 40
2.0
 40
2.0
 40
3.0
 40
3.0
 40
3.0
 40
4.0
 40
4.0
 40
4.0
 40
4.0
 10
341.958410592964
 20
330.7466496919012
 30
0.0
 10
342.4346950437998
 20
330.8167358531792
 30
0.0
 10
343.0317731550871
 20
330.0657265692416
 30
0.0
 10
343.9731454964316
 20
329.3916936375524
 30
0.0
 10
343.0567500973552
 20
328.6799799739933
 30
0.0
 10
342.4946827689367
 20
327.9120035947908
 30
0.0
 10
342.011249744969
 20
327.9586631067692
 30
0.0
 10
341.4996530654094
 20
328.0080356314422
 30
0.0
 10
340.6985822377017
 20
328.8294325225129
 30
0.0
 10
340.6943619957322
 20
329.3194112279025
 30
0.0
 10
340.6899694989885
 20
329.824182312032
 30
0.0
 10
341.4444454102583
 20
330.6710083141531
 30
0.0
 10
341.958410592964
 20
330.7466496919012
 30
0.0
  0
SPLINE
  5
5B
330
1F
100
AcDbEntity
  8
_U+0421_U+043B_U+043E_U+0439 1
 62
     7
370
    35
100
AcDbSpline
210
0.0
220
0.0
230
1.0
 70
    11
 71
     3
 72
   122
 73
   118
 74
     0
 42
0.0000000001
 43
0.0000000001
 12
1.0
 22
0.0
 32
0.0
 13
1.0
 23
0.0
 33
0.0
 40
0.0
 40
0.0
 40
0.0
 40
0.0
 40
1.0
 40
1.0
 40
1.0
 40
2.0
 40
2.0
 40
2.0
 40
3.0
 40
3.0
 40
3.0
 40
4.0
 40
4.0
 40
4.0
 40
5.0
 40
5.0
 40
5.0
 40
6.0
 40
6.0
 40
6.0
 40
7.0
 40
7.0
 40
7.0
 40
8.0
 40
8.0
 40
8.0
 40
9.0
 40
9.0
 40
9.0
 40
10.0
 40
10.0
 40
10.0
 40
11.0
 40
11.0
 40
11.0
 40
12.0
 40
12.0
 40
12.0
 40
13.0
 40
13.0
 40
13.0
 40
14.0
 40
14.0
 40
14.0
 40
15.0
 40
15.0
 40
15.0
 40
16.0
 40
16.0
 40
16.0
 40
17.0
 40
17.0
 40
17.0
 40
18.0
 40
18.0
 40
18.0
 40
19.0
 40
19.0
 40
19.0
 40
20.0
 40
20.0
 40
20.0
 40
21.0
 40
21.0
 40
21.0
 40
22.0
 40
22.0
 40
22.0
 40
23.0
 40
23.0
 40
23.0
 40
24.0
 40
24.0
 40
24.0
 40
25.0
 40
25.0
 40
25.0
 40
26.0
 40
26.0
 40
26.0
 40
27.0
 40
27.0
 40
27.0
 40
28.0
 40
28.0
 40
28.0
 40
29.0
 40
29.0
 40
29.0
 40
30.0
 40
30.0
 40
30.0
 40
31.0
 40
31.0
 40
31.0
 40
32.0
 40
32.0
 40
32.0
 40
33.0
 40
33.0
 40
33.0
 40
34.0
 40
34.0
 40
34.0
 40
35.0
 40
35.0
 40
35.0
 40
36.0
 40
36.0
 40
36.0
 40
37.0
 40
37.0
 40
37.0
 40
38.0
 40
38.0
 40
38.0
 40
39.0
 40
39.0
 40
39.0
 40
39.0
 10
302.2321963423703
 20
324.9328357420742
 30
0.0
 10
302.4148725304757
 20
324.4588982625378
 30
0.0
 10
302.5835960818658
 20
324.0516018487941
 30
0.0
 10
302.7283331559399
 20
323.6359726103455
 30
0.0
 10
302.8421504980338
 20
323.3092053035696
 30
0.0
 10
302.9262538915675
 20
322.9721027103379
 30
0.0
 10
303.0235347753322
 20
322.6395864004709
 30
0.0
 10
303.3006065797334
 20
322.8691374190225
 30
0.0
 10
303.6486473511308
 20
323.050414037087
 30
0.0
 10
303.843036863886
 20
323.3361631757417
 30
0.0
 10
305.0325422075557
 20
325.0841400294171
 30
0.0
 10
306.1872520868243
 20
326.8558019145536
 30
0.0
 10
307.3070803743047
 20
328.5493893232556
 30
0.0
 10
308.9341989719882
 20
327.902766432521
 30
0.0
 10
309.6840240043529
 20
326.1833838713732
 30
0.0
 10
311.3355166525945
 20
326.5757371834496
 30
0.0
 10
311.425089135211
 20
326.7058756654048
 30
0.0
 10
311.5146616178275
 20
326.8359926155134
 30
0.0
 10
311.6043202278311
 20
326.9661310974687
 30
0.0
 10
310.7043751596967
 20
327.7205639450448
 30
0.0
 10
309.8044731552559
 20
328.4749752607742
 30
0.0
 10
308.6506676135522
 20
329.4422288819517
 30
0.0
 10
309.9793548148259
 20
330.2502975598638
 30
0.0
 10
310.9479434105039
 20
330.8393442923012
 30
0.0
 10
311.9074886305331
 20
331.422900403809
 30
0.0
 10
313.1518571198054
 20
330.4196024711171
 30
0.0
 10
313.6555731434424
 20
328.5115363366114
 30
0.0
 10
315.4757462793806
 20
328.603283535753
 30
0.0
 10
315.5712615517092
 20
328.7258428076407
 30
0.0
 10
315.6667768240378
 20
328.8484236113753
 30
0.0
 10
315.7622920963663
 20
328.970982883263
 30
0.0
 10
315.2470780665472
 20
329.6037392646696
 30
0.0
 10
314.6870777954198
 20
330.2060065510316
 30
0.0
 10
314.22982749714
 20
330.8781877438974
 30
0.0
 10
313.80590849768
 20
331.5013409216387
 30
0.0
 10
313.6712483279003
 20
332.012270113948
 30
0.0
 10
314.7487880682993
 20
332.2416058140318
 30
0.0
 10
316.6852331768647
 20
332.6537253614548
 30
0.0
 10
316.640791445105
 20
332.7059831535967
 30
0.0
 10
317.4138708719951
 20
330.9756408824364
 30
0.0
 10
317.7748307514621
 20
330.167895182226
 30
0.0
 10
317.7369347011244
 20
329.0219918282916
 30
0.0
 10
319.2594946508306
 20
328.7048277251807
 30
0.0
 10
318.9658433244065
 20
330.012844353543
 30
0.0
 10
318.7103033667881
 20
331.1509316470953
 30
0.0
 10
318.402785531036
 20
332.5207877394177
 30
0.0
 10
319.3988487632089
 20
332.408434562905
 30
0.0
 10
320.3185170029963
 20
332.3046941251054
 30
0.0
 10
321.2868472165129
 20
332.1954630663762
 30
0.0
 10
321.4212059404377
 20
331.1378833479449
 30
0.0
 10
321.4953185570641
 20
330.1413464151428
 30
0.0
 10
321.6991390187102
 20
329.1720903322145
 30
0.0
 10
321.770840068497
 20
328.8310258791748
 30
0.0
 10
322.1603081131045
 20
328.5567962785489
 30
0.0
 10
322.4046945740894
 20
328.2520560510318
 30
0.0
 10
322.559982253087
 20
328.5814502431152
 30
0.0
 10
322.8225846564502
 20
328.9024254831066
 30
0.0
 10
322.8493272101545
 20
329.2419827068715
 30
0.0
 10
322.9145687059063
 20
330.0698822156706
 30
0.0
 10
322.8706006747759
 20
330.9063944631828
 30
0.0
 10
322.8706006747759
 20
332.0767364632158
 30
0.0
 10
324.2484235504079
 20
331.3980741844684
 30
0.0
 10
325.456532409698
 20
330.8631369829962
 30
0.0
 10
326.5878156396669
 20
330.1975445352459
 30
0.0
 10
326.8286278140858
 20
330.055864983415
 30
0.0
 10
326.8477911577225
 20
329.4416259902417
 30
0.0
 10
326.8685909217147
 20
329.0398847929681
 30
0.0
 10
326.929138474868
 20
327.8699734298708
 30
0.0
 10
326.8505472341107
 20
326.6650512839046
 30
0.0
 10
328.2061923075565
 20
325.6470686317069
 30
0.0
 10
328.2972720194478
 20
326.8911787388178
 30
0.0
 10
328.3703941711223
 20
327.8899334518384
 30
0.0
 10
328.4435163227967
 20
328.8886666330123
 30
0.0
 10
328.5538885694054
 20
328.9480514664394
 30
0.0
 10
328.6642177523205
 20
329.0074362998664
 30
0.0
 10
328.7745899989292
 20
329.0668211332933
 30
0.0
 10
330.0661993600429
 20
327.6261252650555
 30
0.0
 10
331.5413461831333
 20
326.3067613534387
 30
0.0
 10
332.597009567201
 20
324.7100672552593
 30
0.0
 10
333.6169300856092
 20
323.1673104332708
 30
0.0
 10
334.2046633753928
 20
321.3387183452406
 30
0.0
 10
334.9822214264137
 20
319.6356784558009
 30
0.0
 10
335.1375091054114
 20
319.6902616873953
 30
0.0
 10
335.2927537207154
 20
319.7448449189897
 30
0.0
 10
335.4479983360195
 20
319.7994281505842
 30
0.0
 10
335.5116464751095
 20
320.2505418725308
 30
0.0
 10
335.5752084868124
 20
320.7016555944775
 30
0.0
 10
335.6490196575838
 20
321.2248148757595
 30
0.0
 10
336.6782419338022
 20
321.5344213006496
 30
0.0
 10
337.2356583833156
 20
321.1245841289855
 30
0.0
 10
337.2582237587441
 20
320.0590376272445
 30
0.0
 10
337.2958614269204
 20
318.2833277549128
 30
0.0
 10
336.4397551988358
 20
316.851352284622
 30
0.0
 10
335.2282873714477
 20
315.6814624533715
 30
0.0
 10
331.5019429035208
 20
312.0831463464152
 30
0.0
 10
328.1430609327894
 20
308.1839872762094
 30
0.0
 10
325.4610971612159
 20
303.748448370797
 30
0.0
 10
324.1562672461775
 20
301.5904190269897
 30
0.0
 10
323.0861344610718
 20
299.2913776186018
 30
0.0
 10
321.8675180605518
 20
297.0794540622971
 30
0.0
 10
321.659003656307
 20
296.7010103232424
 30
0.0
 10
321.2374962236867
 20
296.4398936173073
 30
0.0
 10
320.9143462671703
 20
296.1245812530198
 30
0.0
 10
320.6433033798683
 20
296.4713731773037
 30
0.0
 10
320.2832478379661
 20
296.7798814780079
 30
0.0
 10
320.1149979872052
 20
297.1708998155838
 30
0.0
 10
318.4788360138729
 20
300.9735100848154
 30
0.0
 10
316.766795812478
 20
304.7550622078934
 30
0.0
 10
314.1176465754016
 20
307.9651160536621
 30
0.0
 10
312.1533823207928
 20
310.3452894607277
 30
0.0
 10
309.9099361407982
 20
312.4940170467248
 30
0.0
 10
307.8085570858764
 20
314.7622679142132
 30
0.0
 10
305.8446804045097
 20
316.8821212936746
 30
0.0
 10
303.8586689846504
 20
318.9842754950805
 30
0.0
 10
301.9700245759428
 20
321.1699086664634
 30
0.0
 10
300.7798302131761
 20
322.5472363096194
 30
0.0
 10
300.8703500970511
 20
323.8754498102639
 30
0.0
 10
302.2321963423703
 20
324.9328357420742
 30
0.0
  0
SPLINE
  5
5C
330
1F
100
AcDbEntity
  8
_U+0421_U+043B_U+043E_U+0439 1
 62
     7
370
    35
100
AcDbSpline
210
0.0
220
0.0
230
1.0
 70
    11
 71
     3
 72
    17
 73
    13
 74
     0
 42
0.0000000001
 43
0.0000000001
 12
1.0
 22
0.0
 32
0.0
 13
1.0
 23
0.0
 33
0.0
 40
0.0
 40
0.0
 40
0.0
 40
0.0
 40
1.0
 40
1.0
 40
1.0
 40
2.0
 40
2.0
 40
2.0
 40
3.0
 40
3.0
 40
3.0
 40
4.0
 40
4.0
 40
4.0
 40
4.0
 10
297.1585180938558
 20
335.6385345580285
 30
0.0
 10
298.0985123970062
 20
335.6606692965212
 30
0.0
 10
298.6119177516956
 20
335.1410627699584
 30
0.0
 10
298.6410288085459
 20
334.1967405656046
 30
0.0
 10
298.6720346679132
 20
333.1911602571537
 30
0.0
 10
298.1618590902413
 20
332.6644266893059
 30
0.0
 10
297.0550360382176
 20
332.5917997701074
 30
0.0
 10
296.2627932676908
 20
332.6903940965259
 30
0.0
 10
295.6621839335311
 20
333.1581734678825
 30
0.0
 10
295.6272592780493
 20
334.064750344826
 30
0.0
 10
295.5893632277116
 20
335.0499399943735
 30
0.0
 10
296.1733930398486
 20
335.6153662908902
 30
0.0
 10
297.1585180938558
 20
335.6385345580285
 30
0.0
  0
SPLINE
  5
5D
330
1F
100
AcDbEntity
  8
_U+0421_U+043B_U+043E_U+0439 1
 62
     7
370
    35
100
AcDbSpline
210
0.0
220
0.0
230
1.0
 70
    11
 71
     3
 72
    38
 73
    34
 74
     0
 42
0.0000000001
 43
0.0000000001
 12
1.0
 22
0.0
 32
0.0
 13
1.0
 23
0.0
 33
0.0
 40
0.0
 40
0.0
 40
0.0
 40
0.0
 40
1.0
 40
1.0
 40
1.0
 40
2.0
 40
2.0
 40
2.0
 40
3.0
 40
3.0
 40
3.0
 40
4.0
 40
4.0
 40
4.0
 40
5.0
 40
5.0
 40
5.0
 40
6.0
 40
6.0
 40
6.0
 40
7.0
 40
7.0
 40
7.0
 40
8.0
 40
8.0
 40
8.0
 40
9.0
 40
9.0
 40
9.0
 40
10.0
 40
10.0
 40
10.0
 40
11.0
 40
11.0
 40
11.0
 40
11.0
 10
291.1728369430085
 20
262.9019751957873
 30
0.0
 10
290.9420155454967
 20
262.7439314404014
 30
0.0
 10
290.5656388637332
 20
262.7986223312298
 30
0.0
 10
290.2569583082548
 20
262.7543528542443
 30
0.0
 10
290.3469614278069
 20
263.0783425527853
 30
0.0
 10
290.3374874152225
 20
263.5020031700839
 30
0.0
 10
290.5445807175795
 20
263.7086873673521
 30
0.0
 10
291.3475894114977
 20
264.5100811727615
 30
0.0
 10
292.229706110496
 20
265.2313549762922
 30
0.0
 10
293.0640221096364
 20
266.0023673458911
 30
0.0
 10
296.9534487850963
 20
269.5969153796604
 30
0.0
 10
299.4299556746681
 20
274.0590461158495
 30
0.0
 10
300.2747792150385
 20
279.2208542132462
 30
0.0
 10
301.1232201056684
 20
284.404947772063
 30
0.0
 10
297.7326863201662
 20
289.1950300666011
 30
0.0
 10
291.7333539784586
 20
288.3331533035788
 30
0.0
 10
291.4779001482273
 20
288.2964630366608
 30
0.0
 10
291.1811912995602
 20
288.546770755511
 30
0.0
 10
290.9036888582233
 20
288.66336570584
 30
0.0
 10
291.0655222186429
 20
288.923405819436
 30
0.0
 10
291.1817941912701
 20
289.353267608608
 30
0.0
 10
291.3978878055824
 20
289.4113389993813
 30
0.0
 10
292.0201581776057
 20
289.5784907259562
 30
0.0
 10
292.6827361668063
 20
289.5955224167615
 30
0.0
 10
293.329552844162
 20
289.6715298359048
 30
0.0
 10
298.4295860731387
 20
289.8050703496518
 30
0.0
 10
302.4720611155309
 20
284.8593128028739
 30
0.0
 10
301.417302069028
 20
279.521654112802
 30
0.0
 10
300.916557440247
 20
276.9874849375458
 30
0.0
 10
300.4405744352662
 20
274.497994344364
 30
0.0
 10
299.3548956567832
 20
272.1739544618612
 30
0.0
 10
297.5435936417196
 20
268.2965210250593
 30
0.0
 10
294.6776187075403
 20
265.3023670069819
 30
0.0
 10
291.1728369430085
 20
262.9019751957873
 30
0.0
  0
SPLINE
  5
5E
330
1F
100
AcDbEntity
  8
_U+0421_U+043B_U+043E_U+0439 1
 62
     7
370
    35
100
AcDbSpline
210
0.0
220
0.0
230
1.0
 70
    11
 71
     3
 72
    20
 73
    16
 74
     0
 42
0.0000000001
 43
0.0000000001
 12
1.0
 22
0.0
 32
0.0
 13
1.0
 23
0.0
 33
0.0
 40
0.0
 40
0.0
 40
0.0
 40
0.0
 40
1.0
 40
1.0
 40
1.0
 40
2.0
 40
2.0
 40
2.0
 40
3.0
 40
3.0
 40
3.0
 40
4.0
 40
4.0
 40
4.0
 40
5.0
 40
5.0
 40
5.0
 40
5.0
 10
306.2307464173256
 20
243.9983486949793
 30
0.0
 10
305.1796477847759
 20
243.7678287433225
 30
0.0
 10
304.1084814710246
 20
243.6274411022986
 30
0.0
 10
303.0436024565338
 20
243.4609783948207
 30
0.0
 10
301.6007534036176
 20
243.235410767924
 30
0.0
 10
300.8030846077016
 20
244.1573183197768
 30
0.0
 10
300.9920480950676
 20
245.5929111403272
 30
0.0
 10
302.7170074045321
 20
245.448884617197
 30
0.0
 10
304.4317175549281
 20
245.3297273771009
 30
0.0
 10
306.1389346226437
 20
245.141948141308
 30
0.0
 10
306.4613955600631
 20
245.1064851896567
 30
0.0
 10
306.7539272304543
 20
244.7982568029608
 30
0.0
 10
307.0602823464802
 20
244.6158820607103
 30
0.0
 10
306.7854067904508
 20
244.4025445227863
 30
0.0
 10
306.5376613613678
 20
244.0656572480224
 30
0.0
 10
306.2307464173256
 20
243.9983486949793
 30
0.0
  0
SPLINE
  5
5F
330
1F
100
AcDbEntity
  8
_U+0421_U+043B_U+043E_U+0439 1
 62
     7
370
    35
100
AcDbSpline
210
0.0
220
0.0
230
1.0
 70
    11
 71
     3
 72
    20
 73
    16
 74
     0
 42
0.0000000001
 43
0.0000000001
 12
1.0
 22
0.0
 32
0.0
 13
1.0
 23
0.0
 33
0.0
 40
0.0
 40
0.0
 40
0.0
 40
0.0
 40
1.0
 40
1.0
 40
1.0
 40
2.0
 40
2.0
 40
2.0
 40
3.0
 40
3.0
 40
3.0
 40
4.0
 40
4.0
 40
4.0
 40
5.0
 40
5.0
 40
5.0
 40
5.0
 10
343.5387189557416
 20
242.699160123798
 30
0.0
 10
342.4990752656803
 20
242.7008396078471
 30
0.0
 10
341.4597330214741
 20
242.8887480347207
 30
0.0
 10
340.4203046498806
 20
243.0062473226145
 30
0.0
 10
340.4128976945873
 20
243.2181206949573
 30
0.0
 10
340.4055338029876
 20
243.4299940673002
 30
0.0
 10
340.3981699113879
 20
243.6418674396431
 30
0.0
 10
341.4227413087012
 20
243.8841653114901
 30
0.0
 10
342.4388291583821
 20
244.1959249210584
 30
0.0
 10
343.4774823834913
 20
244.3221876705928
 30
0.0
 10
343.7533484044727
 20
244.3557127560336
 30
0.0
 10
344.098417781014
 20
243.8193975163674
 30
0.0
 10
344.4117061517039
 20
243.5447372788058
 30
0.0
 10
344.1206817105875
 20
243.2477700479773
 30
0.0
 10
343.8292266325353
 20
242.6986864231688
 30
0.0
 10
343.5387189557416
 20
242.699160123798
 30
0.0
  0
SPLINE
  5
60
330
1F
100
AcDbEntity
  8
_U+0421_U+043B_U+043E_U+0439 1
 62
     7
370
    35
100
AcDbSpline
210
0.0
220
0.0
230
1.0
 70
    11
 71
     3
 72
    83
 73
    79
 74
     0
 42
0.0000000001
 43
0.0000000001
 12
1.0
 22
0.0
 32
0.0
 13
1.0
 23
0.0
 33
0.0
 40
0.0
 40
0.0
 40
0.0
 40
0.0
 40
1.0
 40
1.0
 40
1.0
 40
2.0
 40
2.0
 40
2.0
 40
3.0
 40
3.0
 40
3.0
 40
4.0
 40
4.0
 40
4.0
 40
5.0
 40
5.0
 40
5.0
 40
6.0
 40
6.0
 40
6.0
 40
7.0
 40
7.0
 40
7.0
 40
8.0
 40
8.0
 40
8.0
 40
9.0
 40
9.0
 40
9.0
 40
10.0
 40
10.0
 40
10.0
 40
11.0
 40
11.0
 40
11.0
 40
12.0
 40
12.0
 40
12.0
 40
13.0
 40
13.0
 40
13.0
 40
14.0
 40
14.0
 40
14.0
 40
15.0
 40
15.0
 40
15.0
 40
16.0
 40
16.0
 40
16.0
 40
17.0
 40
17.0
 40
17.0
 40
18.0
 40
18.0
 40
18.0
 40
19.0
 40
19.0
 40
19.0
 40
20.0
 40
20.0
 40
20.0
 40
21.0
 40
21.0
 40
21.0
 40
22.0
 40
22.0
 40
22.0
 40
23.0
 40
23.0
 40
23.0
 40
24.0
 40
24.0
 40
24.0
 40
25.0
 40
25.0
 40
25.0
 40
26.0
 40
26.0
 40
26.0
 40
26.0
 10
348.7232431514941
 20
250.6064940044709
 30
0.0
 10
348.2960513113231
 20
249.5246048310218
 30
0.0
 10
347.7010833210205
 20
248.9598244899086
 30
0.0
 10
346.6372808988689
 20
248.7406302896596
 30
0.0
 10
345.148009184289
 20
248.4338014730046
 30
0.0
 10
343.8492081863498
 20
247.8839857654055
 30
0.0
 10
342.9670053599644
 20
246.4937390141797
 30
0.0
 10
342.7126711857658
 20
246.0929236863176
 30
0.0
 10
341.9098778103155
 20
245.8486664164134
 30
0.0
 10
341.3642608128391
 20
245.8583126837721
 30
0.0
 10
339.3253671772811
 20
245.8943785271333
 30
0.0
 10
337.4365074501058
 20
245.3693029114877
 30
0.0
 10
335.485033112486
 20
244.8542611364429
 30
0.0
 10
334.1170718226804
 20
244.4931935977419
 30
0.0
 10
332.5256099632692
 20
244.9310006383768
 30
0.0
 10
331.0400417263359
 20
245.0747041838053
 30
0.0
 10
328.749225483419
 20
245.296309950894
 30
0.0
 10
326.4668066607475
 20
245.7401243767813
 30
0.0
 10
324.1749999528786
 20
245.7843077263796
 30
0.0
 10
320.7889447915072
 20
245.8495922858251
 30
0.0
 10
317.3497490322758
 20
245.9602229145952
 30
0.0
 10
314.0251457616226
 20
245.4511023974156
 30
0.0
 10
311.7075008376144
 20
245.0961714350477
 30
0.0
 10
309.8956820582279
 20
246.1412196186515
 30
0.0
 10
307.8445152700037
 20
246.4664581643059
 30
0.0
 10
306.6058742519757
 20
246.6628501388119
 30
0.0
 10
305.3499216291343
 20
246.8284085087249
 30
0.0
 10
304.15275094801
 20
247.1810786271806
 30
0.0
 10
303.280625025919
 20
247.4379966229931
 30
0.0
 10
302.346142875545
 20
247.8221893651388
 30
0.0
 10
301.6992400708022
 20
248.4273849826633
 30
0.0
 10
300.6578307693047
 20
249.4017871769726
 30
0.0
 10
299.5976456974126
 20
250.0210430904463
 30
0.0
 10
298.1347289632949
 20
250.0940575828868
 30
0.0
 10
297.0717016876275
 20
250.1471335852064
 30
0.0
 10
296.1491051166776
 20
250.624731478696
 30
0.0
 10
295.8519656310748
 20
251.8610685891182
 30
0.0
 10
295.3682742249457
 20
253.8738440945287
 30
0.0
 10
294.7562530119911
 20
255.8572070972338
 30
0.0
 10
294.3175201019445
 20
257.878832191672
 30
0.0
 10
293.9631920312866
 20
259.5116782605997
 30
0.0
 10
294.6957054588378
 20
260.3383073904386
 30
0.0
 10
296.4769920794863
 20
260.4956405948806
 30
0.0
 10
297.1331105146521
 20
260.5536043264199
 30
0.0
 10
297.8075740832768
 20
260.5787535234622
 30
0.0
 10
298.4578358561178
 20
260.4955329356467
 30
0.0
 10
300.5050838482275
 20
260.2335334239934
 30
0.0
 10
302.2285789921108
 20
260.9006115691717
 30
0.0
 10
303.7707759860829
 20
262.1919840799708
 30
0.0
 10
307.9639739559548
 20
265.7032253985375
 30
0.0
 10
312.0324594692606
 20
269.3385547501134
 30
0.0
 10
315.2311444999279
 20
273.8266313616759
 30
0.0
 10
317.0964053230293
 20
276.443784274433
 30
0.0
 10
318.9328134714417
 20
279.0814355053275
 30
0.0
 10
320.8304581921045
 20
281.778363910415
 30
0.0
 10
321.5950971350557
 20
280.5770375828615
 30
0.0
 10
322.325414314235
 20
279.2905312694353
 30
0.0
 10
323.1890997523872
 20
278.1008752028382
 30
0.0
 10
325.1798912422324
 20
275.3586653239665
 30
0.0
 10
326.9929588687322
 20
272.4298173971814
 30
0.0
 10
329.3261497861177
 20
270.0083028442928
 30
0.0
 10
332.2500884518363
 20
266.9736043587233
 30
0.0
 10
335.3255251915189
 20
264.0172387317498
 30
0.0
 10
338.9694026862676
 20
261.7821038446132
 30
0.0
 10
340.3210858999054
 20
260.9529985523943
 30
0.0
 10
341.6545101074714
 20
260.0838009614658
 30
0.0
 10
343.0627359507608
 20
259.3628286037901
 30
0.0
 10
343.5640404075582
 20
259.1061474582922
 30
0.0
 10
344.261499988547
 20
259.2181561252564
 30
0.0
 10
344.8707220614199
 20
259.1910690620036
 30
0.0
 10
345.3985968171473
 20
259.1675993490103
 30
0.0
 10
345.9289692671015
 20
259.2027823866534
 30
0.0
 10
346.4570593412968
 20
259.1821333455887
 30
0.0
 10
349.028306356713
 20
259.0816226848066
 30
0.0
 10
349.4346553691982
 20
258.6515455771667
 30
0.0
 10
349.4517516555438
 20
256.1377670608138
 30
0.0
 10
349.4644985088392
 20
254.2595440659492
 30
0.0
 10
349.4410718595395
 20
252.424298637263
 30
0.0
 10
348.7232431514941
 20
250.6064940044709
 30
0.0
  0
SPLINE
  5
61
330
1F
100
AcDbEntity
  8
_U+0421_U+043B_U+043E_U+0439 1
 62
     7
370
    35
100
AcDbSpline
210
0.0
220
0.0
230
1.0
 70
    11
 71
     3
 72
    38
 73
    34
 74
     0
 42
0.0000000001
 43
0.0000000001
 12
1.0
 22
0.0
 32
0.0
 13
1.0
 23
0.0
 33
0.0
 40
0.0
 40
0.0
 40
0.0
 40
0.0
 40
1.0
 40
1.0
 40
1.0
 40
2.0
 40
2.0
 40
2.0
 40
3.0
 40
3.0
 40
3.0
 40
4.0
 40
4.0
 40
4.0
 40
5.0
 40
5.0
 40
5.0
 40
6.0
 40
6.0
 40
6.0
 40
7.0
 40
7.0
 40
7.0
 40
8.0
 40
8.0
 40
8.0
 40
9.0
 40
9.0
 40
9.0
 40
10.0
 40
10.0
 40
10.0
 40
11.0
 40
11.0
 40
11.0
 40
11.0
 10
350.4246896842719
 20
265.5747018050909
 30
0.0
 10
349.2310502260199
 20
266.4021706769543
 30
0.0
 10
347.8968078082763
 20
267.0855053664536
 30
0.0
 10
346.8714182007852
 20
268.0855304584345
 30
0.0
 10
344.3212293315225
 20
270.5726310166235
 30
0.0
 10
342.3001640651008
 20
273.4526016512117
 30
0.0
 10
341.4066354873077
 20
276.9721542626365
 30
0.0
 10
340.8530947702151
 20
279.1522752812429
 30
0.0
 10
340.3227223202609
 20
281.3541649969468
 30
0.0
 10
340.8531808976023
 20
283.6324712368829
 30
0.0
 10
341.677850629384
 20
287.1746107555828
 30
0.0
 10
345.2188058965108
 20
289.9551688535747
 30
0.0
 10
348.8433908565422
 20
289.5761006909634
 30
0.0
 10
349.2262701560342
 20
289.5360514559473
 30
0.0
 10
349.5733204624795
 20
289.153107560915
 30
0.0
 10
349.9370364183347
 20
288.9292624817609
 30
0.0
 10
349.5583342971187
 20
288.6766723871518
 30
0.0
 10
349.1830772713878
 20
288.210895477546
 30
0.0
 10
348.8004132903637
 20
288.2047158375193
 30
0.0
 10
345.2200116799307
 20
288.1468167015203
 30
0.0
 10
341.7918832899457
 20
285.0619490129469
 30
0.0
 10
342.3200164278345
 20
281.4953493163017
 30
0.0
 10
342.6167252765017
 20
279.491918632395
 30
0.0
 10
343.0398691294774
 20
277.4835786874218
 30
0.0
 10
343.6529238710777
 20
275.556004699731
 30
0.0
 10
344.6314171162758
 20
272.4794267721689
 30
0.0
 10
346.4972377673935
 20
269.9273215685427
 30
0.0
 10
348.8971343461121
 20
267.7768714348029
 30
0.0
 10
349.5489464119213
 20
267.1927985589724
 30
0.0
 10
350.257430298463
 20
266.6719001216026
 30
0.0
 10
350.9398606503974
 20
266.1219982866164
 30
0.0
 10
350.7681226404577
 20
265.9395804806724
 30
0.0
 10
350.5964276942116
 20
265.7571196110349
 30
0.0
 10
350.4246896842719
 20
265.5747018050909
 30
0.0
  0
SPLINE
  5
62
330
1F
100
AcDbEntity
  8
_U+0421_U+043B_U+043E_U+0439 1
 62
     7
370
    35
100
AcDbSpline
210
0.0
220
0.0
230
1.0
 70
    11
 71
     3
 72
    44
 73
    40
 74
     0
 42
0.0000000001
 43
0.0000000001
 12
1.0
 22
0.0
 32
0.0
 13
1.0
 23
0.0
 33
0.0
 40
0.0
 40
0.0
 40
0.0
 40
0.0
 40
1.0
 40
1.0
 40
1.0
 40
2.0
 40
2.0
 40
2.0
 40
3.0
 40
3.0
 40
3.0
 40
4.0
 40
4.0
 40
4.0
 40
5.0
 40
5.0
 40
5.0
 40
6.0
 40
6.0
 40
6.0
 40
7.0
 40
7.0
 40
7.0
 40
8.0
 40
8.0
 40
8.0
 40
9.0
 40
9.0
 40
9.0
 40
10.0
 40
10.0
 40
10.0
 40
11.0
 40
11.0
 40
11.0
 40
12.0
 40
12.0
 40
12.0
 40
13.0
 40
13.0
 40
13.0
 40
13.0
 10
397.3564503333462
 20
255.0367576074215
 30
0.0
 10
396.0914973985496
 20
254.6427463431429
 30
0.0
 10
394.743862172107
 20
254.4906453774691
 30
0.0
 10
393.4206440599161
 20
254.3263573865162
 30
0.0
 10
393.1391366950776
 20
254.2914111991877
 30
0.0
 10
392.8076323820095
 20
254.6593473970124
 30
0.0
 10
392.4992102086925
 20
254.8416790755693
 30
0.0
 10
392.8211543817891
 20
255.0548443587191
 30
0.0
 10
393.1164851922621
 20
255.3698552771516
 30
0.0
 10
393.4699519890488
 20
255.4620977087692
 30
0.0
 10
394.5451662899952
 20
255.7426576723492
 30
0.0
 10
395.6550038005685
 20
255.8946509787891
 30
0.0
 10
396.721088598479
 20
256.2017166457588
 30
0.0
 10
396.931067168305
 20
256.2621780715249
 30
0.0
 10
397.2117563229658
 20
256.9340147548422
 30
0.0
 10
397.1096523055216
 20
257.0816586282319
 30
0.0
 10
396.4570650932282
 20
258.0250118994804
 30
0.0
 10
395.8421586128047
 20
259.0726439046982
 30
0.0
 10
394.9625396080332
 20
259.7659263074111
 30
0.0
 10
392.4629075150166
 20
261.736025692498
 30
0.0
 10
389.4514203602791
 20
262.3969241976496
 30
0.0
 10
386.354925474443
 20
262.7565921663097
 30
0.0
 10
385.9996930662201
 20
262.7978471847456
 30
0.0
 10
385.6720644855729
 20
263.0767276642766
 30
0.0
 10
385.331602924243
 20
263.2454296838199
 30
0.0
 10
385.7319230196291
 20
263.3909634362249
 30
0.0
 10
386.1306497583532
 20
263.5409973446075
 30
0.0
 10
386.533768993821
 20
263.678155208614
 30
0.0
 10
386.6127908715139
 20
263.705026953399
 30
0.0
 10
386.7087798444717
 20
263.6820094091882
 30
0.0
 10
386.7969742888941
 20
263.6820094091882
 30
0.0
 10
390.5268069159998
 20
263.5471554527874
 30
0.0
 10
393.8462425434251
 20
262.2517564866399
 30
0.0
 10
396.7340077065487
 20
259.9457602917412
 30
0.0
 10
397.4662627519386
 20
259.3609983968136
 30
0.0
 10
397.9752325461907
 20
258.4095060874811
 30
0.0
 10
398.3876104757751
 20
257.5328369457189
 30
0.0
 10
398.9204375562625
 20
256.4001326138624
 30
0.0
 10
398.5361802185765
 20
255.4041985727702
 30
0.0
 10
397.3564503333462
 20
255.0367576074215
 30
0.0
  0
SPLINE
  5
63
330
1F
100
AcDbEntity
  8
_U+0421_U+043B_U+043E_U+0439 1
 62
     7
370
    35
100
AcDbSpline
210
0.0
220
0.0
230
1.0
 70
    11
 71
     3
 72
    20
 73
    16
 74
     0
 42
0.0000000001
 43
0.0000000001
 12
1.0
 22
0.0
 32
0.0
 13
1.0
 23
0.0
 33
0.0
 40
0.0
 40
0.0
 40
0.0
 40
0.0
 40
1.0
 40
1.0
 40
1.0
 40
2.0
 40
2.0
 40
2.0
 40
3.0
 40
3.0
 40
3.0
 40
4.0
 40
4.0
 40
4.0
 40
5.0
 40
5.0
 40
5.0
 40
5.0
 10
380.4126094630162
 20
269.7553897719819
 30
0.0
 10
383.2960682567832
 20
269.388164125101
 30
0.0
 10
386.1988195852676
 20
269.1111784480869
 30
0.0
 10
389.0490332076019
 20
268.5643126034971
 30
0.0
 10
391.4202063027122
 20
268.1093446809763
 30
0.0
 10
393.7361286789779
 20
267.3506269958904
 30
0.0
 10
396.0545487494703
 20
266.6533612015226
 30
0.0
 10
396.3996611897052
 20
266.5495561681827
 30
0.0
 10
396.6240660968757
 20
266.0441175968029
 30
0.0
 10
397.0860964651412
 20
265.5172117741807
 30
0.0
 10
390.9968901949621
 20
266.6893193856499
 30
0.0
 10
385.3521012423803
 20
267.7759025016977
 30
0.0
 10
379.5452205472174
 20
268.893663731887
 30
0.0
 10
379.2833932903384
 20
269.4768107383059
 30
0.0
 10
379.5568477444801
 20
269.8644055122433
 30
0.0
 10
380.4126094630162
 20
269.7553897719819
 30
0.0
  0
SPLINE
  5
64
330
1F
100
AcDbEntity
  8
_U+0421_U+043B_U+043E_U+0439 1
 62
     7
370
    35
100
AcDbSpline
210
0.0
220
0.0
230
1.0
 70
    11
 71
     3
 72
    53
 73
    49
 74
     0
 42
0.0000000001
 43
0.0000000001
 12
1.0
 22
0.0
 32
0.0
 13
1.0
 23
0.0
 33
0.0
 40
0.0
 40
0.0
 40
0.0
 40
0.0
 40
1.0
 40
1.0
 40
1.0
 40
2.0
 40
2.0
 40
2.0
 40
3.0
 40
3.0
 40
3.0
 40
4.0
 40
4.0
 40
4.0
 40
5.0
 40
5.0
 40
5.0
 40
6.0
 40
6.0
 40
6.0
 40
7.0
 40
7.0
 40
7.0
 40
8.0
 40
8.0
 40
8.0
 40
9.0
 40
9.0
 40
9.0
 40
10.0
 40
10.0
 40
10.0
 40
11.0
 40
11.0
 40
11.0
 40
12.0
 40
12.0
 40
12.0
 40
13.0
 40
13.0
 40
13.0
 40
14.0
 40
14.0
 40
14.0
 40
15.0
 40
15.0
 40
15.0
 40
16.0
 40
16.0
 40
16.0
 40
16.0
 10
380.9759256385481
 20
262.4220303309984
 30
0.0
 10
380.9878542816658
 20
262.1288527052037
 30
0.0
 10
381.3933420202797
 20
261.7844292840658
 30
0.0
 10
381.6958214038846
 20
261.5823098383156
 30
0.0
 10
382.8438994743441
 20
260.8151732011375
 30
0.0
 10
383.47344761058
 20
259.841287771151
 30
0.0
 10
383.3368926382834
 20
258.3949074953624
 30
0.0
 10
383.2859482887953
 20
257.8555132016062
 30
0.0
 10
383.4123402294104
 20
257.2604806157632
 30
0.0
 10
383.6030693282125
 20
256.7445345031534
 30
0.0
 10
384.1479973065919
 20
255.2704212087086
 30
0.0
 10
383.299857861817
 20
253.8169569553285
 30
0.0
 10
381.7462059253564
 20
253.7786302680551
 30
0.0
 10
380.5677248872396
 20
253.7495622748983
 30
0.0
 10
379.3860140721054
 20
253.8524199069798
 30
0.0
 10
378.2057674225523
 20
253.8965601928845
 30
0.0
 10
378.1889725820617
 20
254.1383197685619
 30
0.0
 10
378.1721777415711
 20
254.3800793442393
 30
0.0
 10
378.1554259647741
 20
254.6218604517635
 30
0.0
 10
378.5689666140848
 20
254.7324049531465
 30
0.0
 10
378.9771243016997
 20
254.8762592215025
 30
0.0
 10
379.3975120782874
 20
254.9455271726028
 30
0.0
 10
379.9928245781385
 20
255.0436047346985
 30
0.0
 10
380.6202195296961
 20
255.0061177894496
 30
0.0
 10
381.1932680999738
 20
255.1692645925229
 30
0.0
 10
382.5713924214609
 20
255.5616179045993
 30
0.0
 10
382.688267285798
 20
256.1181084847011
 30
0.0
 10
381.7881499628893
 20
257.1710157923806
 30
0.0
 10
381.5288634639307
 20
257.4742703224697
 30
0.0
 10
381.3085926713426
 20
258.0201241702608
 30
0.0
 10
381.3960119692808
 20
258.3744307090719
 30
0.0
 10
381.7828961922743
 20
259.9427888968851
 30
0.0
 10
381.7124870532945
 20
260.3838472463842
 30
0.0
 10
380.3018496431654
 20
260.8561267737184
 30
0.0
 10
379.1645374960974
 20
261.2368744203789
 30
0.0
 10
378.9257923789695
 20
261.6686525439146
 30
0.0
 10
379.0711754084471
 20
262.9247343578367
 30
0.0
 10
379.1461923626384
 20
263.5731013281607
 30
0.0
 10
377.8705596318375
 20
264.3955748115706
 30
0.0
 10
377.1737029425586
 20
265.1085803859365
 30
0.0
 10
376.7794978916589
 20
265.5118288124851
 30
0.0
 10
376.3214724468949
 20
265.8526564152102
 30
0.0
 10
375.8921274220456
 20
266.2215830779868
 30
0.0
 10
376.488516514236
 20
266.2222720970839
 30
0.0
 10
377.1594919236819
 20
266.4022352724946
 30
0.0
 10
377.6675573803691
 20
266.1907925370875
 30
0.0
 10
379.3508740981558
 20
265.4902108383151
 30
0.0
 10
380.8876020030451
 20
264.59569179557
 30
0.0
 10
380.9759256385481
 20
262.4220303309984
 30
0.0
  0
SPLINE
  5
65
330
1F
100
AcDbEntity
  8
_U+0421_U+043B_U+043E_U+0439 1
 62
     7
370
    35
100
AcDbSpline
210
0.0
220
0.0
230
1.0
 70
    11
 71
     3
 72
    17
 73
    13
 74
     0
 42
0.0000000001
 43
0.0000000001
 12
1.0
 22
0.0
 32
0.0
 13
1.0
 23
0.0
 33
0.0
 40
0.0
 40
0.0
 40
0.0
 40
0.0
 40
1.0
 40
1.0
 40
1.0
 40
2.0
 40
2.0
 40
2.0
 40
3.0
 40
3.0
 40
3.0
 40
4.0
 40
4.0
 40
4.0
 40
4.0
 10
384.9637528538055
 20
315.2121758527401
 30
0.0
 10
387.1424743023711
 20
318.0644350005188
 30
0.0
 10
389.1727982629095
 20
320.7190963903716
 30
0.0
 10
391.199246491027
 20
323.3767076432337
 30
0.0
 10
392.2530581362714
 20
324.7586861652949
 30
0.0
 10
393.2655716993863
 20
326.1743404957244
 30
0.0
 10
394.3715765412322
 20
327.5129323465182
 30
0.0
 10
394.6935637780224
 20
327.9026372414403
 30
0.0
 10
395.2738039851256
 20
328.0789615347447
 30
0.0
 10
395.9194148790614
 20
328.4621638119385
 30
0.0
 10
395.7309681560182
 20
326.1309753563038
 30
0.0
 10
386.9231509110414
 20
315.5089277651008
 30
0.0
 10
384.9637528538055
 20
315.2121758527401
 30
0.0
  0
SPLINE
  5
66
330
1F
100
AcDbEntity
  8
_U+0421_U+043B_U+043E_U+0439 1
 62
     7
370
    35
100
AcDbSpline
210
0.0
220
0.0
230
1.0
 70
    11
 71
     3
 72
    26
 73
    22
 74
     0
 42
0.0000000001
 43
0.0000000001
 12
1.0
 22
0.0
 32
0.0
 13
1.0
 23
0.0
 33
0.0
 40
0.0
 40
0.0
 40
0.0
 40
0.0
 40
1.0
 40
1.0
 40
1.0
 40
2.0
 40
2.0
 40
2.0
 40
3.0
 40
3.0
 40
3.0
 40
4.0
 40
4.0
 40
4.0
 40
5.0
 40
5.0
 40
5.0
 40
6.0
 40
6.0
 40
6.0
 40
7.0
 40
7.0
 40
7.0
 40
7.0
 10
396.7409840249064
 20
305.4765082661983
 30
0.0
 10
398.0716090923905
 20
306.3813195317056
 30
0.0
 10
399.432637127532
 20
307.248945297819
 30
0.0
 10
400.8347909900288
 20
308.0355251926419
 30
0.0
 10
401.187999404654
 20
308.2336397148906
 30
0.0
 10
401.752392172525
 20
308.0552914279885
 30
0.0
 10
402.2197193750991
 20
308.0499299981396
 30
0.0
 10
402.0111619071608
 20
307.6527320205371
 30
0.0
 10
401.9066463228771
 20
307.0892651220777
 30
0.0
 10
401.5781564683585
 20
306.883722112689
 30
0.0
 10
397.6327039275697
 20
304.4151389427332
 30
0.0
 10
393.6572790560592
 20
301.9942918770949
 30
0.0
 10
389.6776770062729
 20
299.580744107516
 30
0.0
 10
389.3791164187824
 20
299.3996612760725
 30
0.0
 10
388.9890885461585
 20
299.3693659676491
 30
0.0
 10
388.641564539084
 20
299.2689629661009
 30
0.0
 10
388.572361183524
 20
299.4222266515009
 30
0.0
 10
388.5031578279641
 20
299.575490336901
 30
0.0
 10
388.4339975360976
 20
299.7287540223011
 30
0.0
 10
391.2012704846246
 20
301.6472200388027
 30
0.0
 10
393.9566578537274
 20
303.5831483830453
 30
0.0
 10
396.7409840249064
 20
305.4765082661983
 30
0.0
  0
SPLINE
  5
67
330
1F
100
AcDbEntity
  8
_U+0421_U+043B_U+043E_U+0439 1
 62
     7
370
    35
100
AcDbSpline
210
0.0
220
0.0
230
1.0
 70
    11
 71
     3
 72
    23
 73
    19
 74
     0
 42
0.0000000001
 43
0.0000000001
 12
1.0
 22
0.0
 32
0.0
 13
1.0
 23
0.0
 33
0.0
 40
0.0
 40
0.0
 40
0.0
 40
0.0
 40
1.0
 40
1.0
 40
1.0
 40
2.0
 40
2.0
 40
2.0
 40
3.0
 40
3.0
 40
3.0
 40
4.0
 40
4.0
 40
4.0
 40
5.0
 40
5.0
 40
5.0
 40
6.0
 40
6.0
 40
6.0
 40
6.0
 10
402.4405499957037
 20
328.655326009427
 30
0.0
 10
400.261440973896
 20
326.096955038387
 30
0.0
 10
398.1210892762974
 20
323.5016784819611
 30
0.0
 10
395.8493502496301
 20
321.0275400955354
 30
0.0
 10
394.3994818146627
 20
319.4485021117179
 30
0.0
 10
392.7474293384047
 20
318.0545734146922
 30
0.0
 10
391.1753461410981
 20
316.5890728589605
 30
0.0
 10
391.0045124687232
 20
316.4298233201549
 30
0.0
 10
390.7629682115137
 20
316.3463443501779
 30
0.0
 10
390.5542384888011
 20
316.2277254062514
 30
0.0
 10
390.4549336114388
 20
316.3305615064861
 30
0.0
 10
390.3555856703829
 20
316.4334191385676
 30
0.0
 10
390.2562807930206
 20
316.5362552388023
 30
0.0
 10
394.1215056726966
 20
321.0562635791437
 30
0.0
 10
397.9867305523727
 20
325.5762934513318
 30
0.0
 10
401.8642716484085
 20
330.1107281290176
 30
0.0
 10
402.6854962847049
 20
329.7976981404891
 30
0.0
 10
403.0540353742396
 20
329.3756308798525
 30
0.0
 10
402.4405499957037
 20
328.655326009427
 30
0.0
  0
ENDSEC
  0
SECTION
  2
OBJECTS
  0
DICTIONARY
  5
C
330
0
100
AcDbDictionary
281
     1
  3
ACAD_GROUP
350
D
  3
ACAD_LAYOUT
350
1A
  3
ACAD_MATERIAL
350
3B
  3
ACAD_MLEADERSTYLE
350
89
  3
ACAD_MLINESTYLE
350
17
  3
ACAD_PLOTSETTINGS
350
19
  3
ACAD_PLOTSTYLENAME
350
E
  3
ACAD_TABLESTYLE
350
88
  3
ACAD_VISUALSTYLE
350
2A
  0
SUN
  5
3F
330
29
100
AcDbSun
 90
        1
290
     0
 63
     7
421
 16777215
 40
1.0
291
     1
 91
  2455826
 92
 54000000
292
     0
 70
     2
 71
   256
280
     1
  0
DICTIONARY
  5
D
102
{ACAD_REACTORS
330
C
102
}
330
C
100
AcDbDictionary
281
     1
  0
DICTIONARY
  5
1A
102
{ACAD_REACTORS
330
C
102
}
330
C
100
AcDbDictionary
281
     1
  3
Layout1
350
1E
  3
Layout2
350
26
  3
Model
350
22
  0
DICTIONARY
  5
3B
102
{ACAD_REACTORS
330
C
102
}
330
C
100
AcDbDictionary
281
     1
  3
ByBlock
350
3D
  3
ByLayer
350
3C
  3
Global
350
3E
  0
DICTIONARY
  5
89
102
{ACAD_REACTORS
330
C
102
}
330
C
100
AcDbDictionary
281
     1
  0
DICTIONARY
  5
17
102
{ACAD_REACTORS
330
C
102
}
330
C
100
AcDbDictionary
281
     1
  3
Standard
350
18
  0
DICTIONARY
  5
19
102
{ACAD_REACTORS
330
C
102
}
330
C
100
AcDbDictionary
281
     1
  0
ACDBDICTIONARYWDFLT
  5
E
102
{ACAD_REACTORS
330
C
102
}
330
C
100
AcDbDictionary
281
     1
  3
Normal
350
F
100
AcDbDictionaryWithDefault
340
F
  0
DICTIONARY
  5
88
102
{ACAD_REACTORS
330
C
102
}
330
C
100
AcDbDictionary
281
     1
  0
DICTIONARY
  5
2A
102
{ACAD_REACTORS
330
C
102
}
330
C
100
AcDbDictionary
281
     1
  3
2dWireframe
350
2F
  3
3D Hidden
350
31
  3
3dWireframe
350
30
  3
Basic
350
32
  3
Brighten
350
36
  3
ColorChange
350
3A
  3
Conceptual
350
34
  3
Dim
350
35
  3
Facepattern
350
39
  3
Flat
350
2B
  3
FlatWithEdges
350
2C
  3
Gouraud
350
2D
  3
GouraudWithEdges
350
2E
  3
Linepattern
350
38
  3
Realistic
350
33
  3
Thicken
350
37
  0
LAYOUT
  5
1E
102
{ACAD_REACTORS
330
1A
102
}
330
1A
100
AcDbPlotSettings
  1

  2
none_device
  4

  6

 40
0.0
 41
0.0
 42
0.0
 43
0.0
 44
0.0
 45
0.0
 46
0.0
 47
0.0
 48
0.0
 49
0.0
140
0.0
141
0.0
142
1.0
143
1.0
 70
   688
 72
     0
 73
     0
 74
     5
  7

 75
    16
 76
     0
 77
     2
 78
   300
147
1.0
148
0.0
149
0.0
100
AcDbLayout
  1
Layout1
 70
     1
 71
     1
 10
0.0
 20
0.0
 11
12.0
 21
9.0
 12
0.0
 22
0.0
 32
0.0
 14
1.000000000000000E+20
 24
1.000000000000000E+20
 34
1.000000000000000E+20
 15
-1.000000000000000E+20
 25
-1.000000000000000E+20
 35
-1.000000000000000E+20
146
0.0
 13
0.0
 23
0.0
 33
0.0
 16
1.0
 26
0.0
 36
0.0
 17
0.0
 27
1.0
 37
0.0
 76
     0
330
1B
  0
LAYOUT
  5
26
102
{ACAD_REACTORS
330
1A
102
}
330
1A
100
AcDbPlotSettings
  1

  2
none_device
  4

  6

 40
0.0
 41
0.0
 42
0.0
 43
0.0
 44
0.0
 45
0.0
 46
0.0
 47
0.0
 48
0.0
 49
0.0
140
0.0
141
0.0
142
1.0
143
1.0
 70
   688
 72
     0
 73
     0
 74
     5
  7

 75
    16
 76
     0
 77
     2
 78
   300
147
1.0
148
0.0
149
0.0
100
AcDbLayout
  1
Layout2
 70
     1
 71
     2
 10
0.0
 20
0.0
 11
0.0
 21
0.0
 12
0.0
 22
0.0
 32
0.0
 14
0.0
 24
0.0
 34
0.0
 15
0.0
 25
0.0
 35
0.0
146
0.0
 13
0.0
 23
0.0
 33
0.0
 16
1.0
 26
0.0
 36
0.0
 17
0.0
 27
1.0
 37
0.0
 76
     0
330
23
  0
LAYOUT
  5
22
102
{ACAD_REACTORS
330
1A
102
}
330
1A
100
AcDbPlotSettings
  1

  2
none_device
  4

  6

 40
0.0
 41
0.0
 42
0.0
 43
0.0
 44
0.0
 45
0.0
 46
0.0
 47
0.0
 48
0.0
 49
0.0
140
0.0
141
0.0
142
1.0
143
1.0
 70
  1712
 72
     0
 73
     0
 74
     0
  7

 75
     0
 76
     0
 77
     2
 78
   300
147
1.0
148
0.0
149
0.0
100
AcDbLayout
  1
Model
 70
     1
 71
     0
 10
0.0
 20
0.0
 11
12.0
 21
9.0
 12
0.0
 22
0.0
 32
0.0
 14
1.000000000000000E+20
 24
1.000000000000000E+20
 34
1.000000000000000E+20
 15
-1.000000000000000E+20
 25
-1.000000000000000E+20
 35
-1.000000000000000E+20
146
0.0
 13
0.0
 23
0.0
 33
0.0
 16
1.0
 26
0.0
 36
0.0
 17
0.0
 27
1.0
 37
0.0
 76
     0
330
1F
331
29
  0
MATERIAL
  5
3D
102
{ACAD_REACTORS
330
3B
102
}
330
3B
100
AcDbMaterial
  1
ByBlock
 72
     1
 94
      127
  0
MATERIAL
  5
3C
102
{ACAD_REACTORS
330
3B
102
}
330
3B
100
AcDbMaterial
  1
ByLayer
 72
     1
 94
      127
  0
MATERIAL
  5
3E
102
{ACAD_REACTORS
330
3B
102
}
330
3B
100
AcDbMaterial
  1
Global
 72
     1
 94
      127
  0
MLINESTYLE
  5
18
102
{ACAD_REACTORS
330
17
102
}
330
17
100
AcDbMlineStyle
  2
Standard
 70
     0
  3

 62
   256
 51
90.0
 52
90.0
 71
     2
 49
0.5
 62
   256
  6
BYLAYER
 49
-0.5
 62
   256
  6
BYLAYER
  0
ACDBPLACEHOLDER
  5
F
102
{ACAD_REACTORS
330
E
102
}
330
E
  0
VISUALSTYLE
  5
2F
102
{ACAD_REACTORS
330
2A
102
}
102
{ACAD_XDICTIONARY
360
70
102
}
330
2A
100
AcDbVisualStyle
  2
2dWireframe
 70
     4
 71
     0
 72
     2
 73
     0
 90
        0
 40
-0.6
 41
-30.0
 62
     5
 63
     7
421
 16777215
 74
     1
 91
        4
 64
     7
 65
   257
 75
     1
175
     1
 42
1.0
 92
        0
 66
   257
 43
1.0
 76
     1
 77
     6
 78
     2
 67
     7
 79
     5
170
     0
171
     0
290
     0
174
     0
 93
        1
 44
0.0
173
     0
291
     0
 45
0.0
  0
VISUALSTYLE
  5
31
102
{ACAD_REACTORS
330
2A
102
}
102
{ACAD_XDICTIONARY
360
74
102
}
330
2A
100
AcDbVisualStyle
  2
3D Hidden
 70
     6
 71
     1
 72
     2
 73
     2
 90
        0
 40
-0.6
 41
-30.0
 62
     5
 63
     7
421
 16777215
 74
     2
 91
        2
 64
     7
 65
   257
 75
     2
175
     1
 42
40.0
 92
        0
 66
   257
 43
1.0
 76
     1
 77
     6
 78
     2
 67
     7
 79
     3
170
     0
171
     0
290
     0
174
     0
 93
        1
 44
0.0
173
     0
291
     0
 45
0.0
  0
VISUALSTYLE
  5
30
102
{ACAD_REACTORS
330
2A
102
}
102
{ACAD_XDICTIONARY
360
72
102
}
330
2A
100
AcDbVisualStyle
  2
3dWireframe
 70
     5
 71
     0
 72
     2
 73
     0
 90
        0
 40
-0.6
 41
-30.0
 62
     5
 63
     7
421
 16777215
 74
     1
 91
        4
 64
     7
 65
   257
 75
     1
175
     1
 42
1.0
 92
        0
 66
   257
 43
1.0
 76
     1
 77
     6
 78
     2
 67
     7
 79
     5
170
     0
171
     0
290
     0
174
     0
 93
        1
 44
0.0
173
     0
291
     0
 45
0.0
  0
VISUALSTYLE
  5
32
102
{ACAD_REACTORS
330
2A
102
}
102
{ACAD_XDICTIONARY
360
76
102
}
330
2A
100
AcDbVisualStyle
  2
Basic
 70
     7
 71
     1
 72
     0
 73
     1
 90
        0
 40
-0.6
 41
-30.0
 62
     5
 63
     7
421
 16777215
 74
     0
 91
        4
 64
     7
 65
   257
 75
     1
175
     1
 42
1.0
 92
        8
 66
     7
 43
1.0
 76
     1
 77
     6
 78
     2
 67
     7
 79
     5
170
     0
171
     0
290
     0
174
     0
 93
        1
 44
0.0
173
     0
291
     1
 45
0.0
  0
VISUALSTYLE
  5
36
102
{ACAD_REACTORS
330
2A
102
}
102
{ACAD_XDICTIONARY
360
7E
102
}
330
2A
100
AcDbVisualStyle
  2
Brighten
 70
    12
 71
     2
 72
     2
 73
     0
 90
        0
 40
-0.6
 41
-30.0
 62
     5
 63
     7
421
 16777215
 74
     1
 91
        4
 64
     7
 65
   257
 75
     1
175
     1
 42
1.0
 92
        8
 66
     7
 43
1.0
 76
     1
 77
     6
 78
     2
 67
     7
 79
     5
170
     0
171
     0
290
     0
174
     0
 93
        1
 44
50.0
173
     0
291
     1
 45
0.0
  0
VISUALSTYLE
  5
3A
102
{ACAD_REACTORS
330
2A
102
}
102
{ACAD_XDICTIONARY
360
86
102
}
330
2A
100
AcDbVisualStyle
  2
ColorChange
 70
    16
 71
     2
 72
     2
 73
     3
 90
        0
 40
-0.6
 41
-30.0
 62
     5
 63
     8
421
  8421504
 74
     1
 91
        4
 64
     7
 65
   257
 75
     1
175
     1
 42
1.0
 92
        8
 66
     8
424
  8421504
 43
1.0
 76
     1
 77
     6
 78
     2
 67
     7
 79
     5
170
     0
171
     0
290
     0
174
     0
 93
        1
 44
0.0
173
     0
291
     1
 45
0.0
  0
VISUALSTYLE
  5
34
102
{ACAD_REACTORS
330
2A
102
}
102
{ACAD_XDICTIONARY
360
7A
102
}
330
2A
100
AcDbVisualStyle
  2
Conceptual
 70
     9
 71
     3
 72
     2
 73
     0
 90
        0
 40
-0.6
 41
-30.0
 62
     5
 63
     7
421
 16777215
 74
     2
 91
        2
 64
     7
 65
   257
 75
     1
175
     1
 42
40.0
 92
        8
 66
     7
 43
1.0
 76
     1
 77
     6
 78
     2
 67
     7
 79
     3
170
     0
171
     0
290
     0
174
     0
 93
        1
 44
0.0
173
     0
291
     0
 45
0.0
  0
VISUALSTYLE
  5
35
102
{ACAD_REACTORS
330
2A
102
}
102
{ACAD_XDICTIONARY
360
7C
102
}
330
2A
100
AcDbVisualStyle
  2
Dim
 70
    11
 71
     2
 72
     2
 73
     0
 90
        0
 40
-0.6
 41
-30.0
 62
     5
 63
     7
421
 16777215
 74
     1
 91
        4
 64
     7
 65
   257
 75
     1
175
     1
 42
1.0
 92
        8
 66
     7
 43
1.0
 76
     1
 77
     6
 78
     2
 67
     7
 79
     5
170
     0
171
     0
290
     0
174
     0
 93
        1
 44
-50.0
173
     0
291
     1
 45
0.0
  0
VISUALSTYLE
  5
39
102
{ACAD_REACTORS
330
2A
102
}
102
{ACAD_XDICTIONARY
360
84
102
}
330
2A
100
AcDbVisualStyle
  2
Facepattern
 70
    15
 71
     2
 72
     2
 73
     0
 90
        0
 40
-0.6
 41
-30.0
 62
     5
 63
     7
421
 16777215
 74
     1
 91
        4
 64
     7
 65
   257
 75
     1
175
     1
 42
1.0
 92
        8
 66
     7
 43
1.0
 76
     1
 77
     6
 78
     2
 67
     7
 79
     5
170
     0
171
     0
290
     0
174
     0
 93
        1
 44
0.0
173
     0
291
     1
 45
0.0
  0
VISUALSTYLE
  5
2B
102
{ACAD_REACTORS
330
2A
102
}
102
{ACAD_XDICTIONARY
360
68
102
}
330
2A
100
AcDbVisualStyle
  2
Flat
 70
     0
 71
     2
 72
     1
 73
     1
 90
        2
 40
-0.6
 41
30.0
 62
     5
 63
     7
421
 16777215
 74
     0
 91
        4
 64
     7
 65
   257
 75
     1
175
     1
 42
1.0
 92
        8
 66
     7
 43
1.0
 76
     1
 77
     6
 78
     2
 67
     7
 79
     5
170
     0
171
     0
290
     0
174
     0
 93
       13
 44
0.0
173
     0
291
     1
 45
0.0
  0
VISUALSTYLE
  5
2C
102
{ACAD_REACTORS
330
2A
102
}
102
{ACAD_XDICTIONARY
360
6A
102
}
330
2A
100
AcDbVisualStyle
  2
FlatWithEdges
 70
     1
 71
     2
 72
     1
 73
     1
 90
        2
 40
-0.6
 41
30.0
 62
     5
 63
     7
421
 16777215
 74
     1
 91
        4
 64
     7
 65
   257
 75
     1
175
     1
 42
1.0
 92
        0
 66
   257
 43
1.0
 76
     1
 77
     6
 78
     2
 67
     7
 79
     5
170
     0
171
     0
290
     0
174
     0
 93
       13
 44
0.0
173
     0
291
     1
 45
0.0
  0
VISUALSTYLE
  5
2D
102
{ACAD_REACTORS
330
2A
102
}
102
{ACAD_XDICTIONARY
360
6C
102
}
330
2A
100
AcDbVisualStyle
  2
Gouraud
 70
     2
 71
     2
 72
     2
 73
     1
 90
        2
 40
-0.6
 41
30.0
 62
     5
 63
     7
421
 16777215
 74
     0
 91
        4
 64
     7
 65
   257
 75
     1
175
     1
 42
1.0
 92
        0
 66
     7
 43
1.0
 76
     1
 77
     6
 78
     2
 67
     7
 79
     5
170
     0
171
     0
290
     0
174
     0
 93
       13
 44
0.0
173
     0
291
     1
 45
0.0
  0
VISUALSTYLE
  5
2E
102
{ACAD_REACTORS
330
2A
102
}
102
{ACAD_XDICTIONARY
360
6E
102
}
330
2A
100
AcDbVisualStyle
  2
GouraudWithEdges
 70
     3
 71
     2
 72
     2
 73
     1
 90
        2
 40
-0.6
 41
30.0
 62
     5
 63
     7
421
 16777215
 74
     1
 91
        4
 64
     7
 65
   257
 75
     1
175
     1
 42
1.0
 92
        0
 66
   257
 43
1.0
 76
     1
 77
     6
 78
     2
 67
     7
 79
     5
170
     0
171
     0
290
     0
174
     0
 93
       13
 44
0.0
173
     0
291
     1
 45
0.0
  0
VISUALSTYLE
  5
38
102
{ACAD_REACTORS
330
2A
102
}
102
{ACAD_XDICTIONARY
360
82
102
}
330
2A
100
AcDbVisualStyle
  2
Linepattern
 70
    14
 71
     2
 72
     2
 73
     0
 90
        0
 40
-0.6
 41
-30.0
 62
     5
 63
     7
421
 16777215
 74
     1
 91
        4
 64
     7
 65
   257
 75
     7
175
     7
 42
1.0
 92
        8
 66
     7
 43
1.0
 76
     1
 77
     6
 78
     2
 67
     7
 79
     5
170
     0
171
     0
290
     0
174
     0
 93
        1
 44
0.0
173
     0
291
     1
 45
0.0
  0
VISUALSTYLE
  5
33
102
{ACAD_REACTORS
330
2A
102
}
102
{ACAD_XDICTIONARY
360
78
102
}
330
2A
100
AcDbVisualStyle
  2
Realistic
 70
     8
 71
     2
 72
     2
 73
     0
 90
        0
 40
-0.6
 41
-30.0
 62
     5
 63
     7
421
 16777215
 74
     1
 91
        0
 64
     7
 65
   257
 75
     1
175
     1
 42
1.0
 92
        8
 66
     8
424
  7895160
 43
1.0
 76
     1
 77
     6
 78
     2
 67
     7
 79
     5
170
     0
171
     0
290
     0
174
     0
 93
       13
 44
0.0
173
     0
291
     0
 45
0.0
  0
VISUALSTYLE
  5
37
102
{ACAD_REACTORS
330
2A
102
}
102
{ACAD_XDICTIONARY
360
80
102
}
330
2A
100
AcDbVisualStyle
  2
Thicken
 70
    13
 71
     2
 72
     2
 73
     0
 90
        0
 40
-0.6
 41
-30.0
 62
     5
 63
     7
421
 16777215
 74
     1
 91
        4
 64
     7
 65
   257
 75
     1
175
     1
 42
1.0
 92
       12
 66
     7
 43
1.0
 76
     1
 77
     6
 78
     2
 67
     7
 79
     5
170
     0
171
     0
290
     0
174
     0
 93
        1
 44
0.0
173
     0
291
     1
 45
0.0
  0
DICTIONARY
  5
70
330
2F
100
AcDbDictionary
280
     1
281
     1
  3
ACAD_XREC_ROUNDTRIP
360
71
  0
DICTIONARY
  5
74
330
31
100
AcDbDictionary
280
     1
281
     1
  3
ACAD_XREC_ROUNDTRIP
360
75
  0
DICTIONARY
  5
72
330
30
100
AcDbDictionary
280
     1
281
     1
  3
ACAD_XREC_ROUNDTRIP
360
73
  0
DICTIONARY
  5
76
330
32
100
AcDbDictionary
280
     1
281
     1
  3
ACAD_XREC_ROUNDTRIP
360
77
  0
DICTIONARY
  5
7E
330
36
100
AcDbDictionary
280
     1
281
     1
  3
ACAD_XREC_ROUNDTRIP
360
7F
  0
DICTIONARY
  5
86
330
3A
100
AcDbDictionary
280
     1
281
     1
  3
ACAD_XREC_ROUNDTRIP
360
87
  0
DICTIONARY
  5
7A
330
34
100
AcDbDictionary
280
     1
281
     1
  3
ACAD_XREC_ROUNDTRIP
360
7B
  0
DICTIONARY
  5
7C
330
35
100
AcDbDictionary
280
     1
281
     1
  3
ACAD_XREC_ROUNDTRIP
360
7D
  0
DICTIONARY
  5
84
330
39
100
AcDbDictionary
280
     1
281
     1
  3
ACAD_XREC_ROUNDTRIP
360
85
  0
DICTIONARY
  5
68
330
2B
100
AcDbDictionary
280
     1
281
     1
  3
ACAD_XREC_ROUNDTRIP
360
69
  0
DICTIONARY
  5
6A
330
2C
100
AcDbDictionary
280
     1
281
     1
  3
ACAD_XREC_ROUNDTRIP
360
6B
  0
DICTIONARY
  5
6C
330
2D
100
AcDbDictionary
280
     1
281
     1
  3
ACAD_XREC_ROUNDTRIP
360
6D
  0
DICTIONARY
  5
6E
330
2E
100
AcDbDictionary
280
     1
281
     1
  3
ACAD_XREC_ROUNDTRIP
360
6F
  0
DICTIONARY
  5
82
330
38
100
AcDbDictionary
280
     1
281
     1
  3
ACAD_XREC_ROUNDTRIP
360
83
  0
DICTIONARY
  5
78
330
33
100
AcDbDictionary
280
     1
281
     1
  3
ACAD_XREC_ROUNDTRIP
360
79
  0
DICTIONARY
  5
80
330
37
100
AcDbDictionary
280
     1
281
     1
  3
ACAD_XREC_ROUNDTRIP
360
81
  0
XRECORD
  5
71
102
{ACAD_REACTORS
330
70
102
}
330
70
100
AcDbXrecord
280
     1
102
RTVSPropertyOp0
 70
     1
102
RTVSPropertyOp1
 70
     1
102
RTVSPropertyOp2
 70
     1
102
RTVSPropertyOp3
 70
     1
102
RTVSPropertyOp4
 70
     1
102
RTVSPropertyOp5
 70
     1
102
RTVSPropertyOp6
 70
     1
102
RTVSPropertyOp7
 70
     1
102
RTVSPropertyOp8
 70
     1
102
RTVSPropertyOp9
 70
     1
102
RTVSPropertyOp10
 70
     1
102
RTVSPropertyOp11
 70
     1
102
RTVSPropertyOp12
 70
     1
102
RTVSPropertyOp13
 70
     1
102
RTVSPropertyOp14
 70
     1
102
RTVSPropertyOp15
 70
     1
102
RTVSPropertyOp16
 70
     1
102
RTVSPropertyOp17
 70
     1
102
RTVSPropertyOp18
 70
     1
102
RTVSPropertyOp19
 70
     1
102
RTVSPropertyOp20
 70
     1
102
RTVSPropertyOp21
 70
     1
102
RTVSPropertyOp22
 70
     1
102
RTVSPropertyOp23
 70
     1
102
RTVSPropertyOp24
 70
     1
102
RTVSPropertyOp25
 70
     1
102
RTVSPropertyOp26
 70
     1
102
RTVSPropertyOp27
 70
     1
102
RTVSPropertyOp28
 70
     1
102
RTVSPropertyOp29
 70
     1
102
RTVSPropertyOp30
 70
     1
102
RTVSPropertyOp31
 70
     1
102
RTVSPropertyOp32
 70
     1
  0
XRECORD
  5
75
102
{ACAD_REACTORS
330
74
102
}
330
74
100
AcDbXrecord
280
     1
102
RTVSPropertyOp0
 70
     1
102
RTVSPropertyOp1
 70
     1
102
RTVSPropertyOp2
 70
     1
102
RTVSPropertyOp3
 70
     1
102
RTVSPropertyOp4
 70
     1
102
RTVSPropertyOp5
 70
     1
102
RTVSPropertyOp6
 70
     1
102
RTVSPropertyOp7
 70
     1
102
RTVSPropertyOp8
 70
     1
102
RTVSPropertyOp9
 70
     1
102
RTVSPropertyOp10
 70
     1
102
RTVSPropertyOp11
 70
     1
102
RTVSPropertyOp12
 70
     1
102
RTVSPropertyOp13
 70
     1
102
RTVSPropertyOp14
 70
     1
102
RTVSPropertyOp15
 70
     1
102
RTVSPropertyOp16
 70
     1
102
RTVSPropertyOp17
 70
     1
102
RTVSPropertyOp18
 70
     1
102
RTVSPropertyOp19
 70
     1
102
RTVSPropertyOp20
 70
     1
102
RTVSPropertyOp21
 70
     1
102
RTVSPropertyOp22
 70
     1
102
RTVSPropertyOp23
 70
     1
102
RTVSPropertyOp24
 70
     1
102
RTVSPropertyOp25
 70
     1
102
RTVSPropertyOp26
 70
     1
102
RTVSPropertyOp27
 70
     1
102
RTVSPropertyOp28
 70
     1
102
RTVSPropertyOp29
 70
     1
102
RTVSPropertyOp30
 70
     1
102
RTVSPropertyOp31
 70
     1
102
RTVSPropertyOp32
 70
     1
  0
XRECORD
  5
73
102
{ACAD_REACTORS
330
72
102
}
330
72
100
AcDbXrecord
280
     1
102
RTVSPropertyOp0
 70
     1
102
RTVSPropertyOp1
 70
     1
102
RTVSPropertyOp2
 70
     1
102
RTVSPropertyOp3
 70
     1
102
RTVSPropertyOp4
 70
     1
102
RTVSPropertyOp5
 70
     1
102
RTVSPropertyOp6
 70
     1
102
RTVSPropertyOp7
 70
     1
102
RTVSPropertyOp8
 70
     1
102
RTVSPropertyOp9
 70
     1
102
RTVSPropertyOp10
 70
     1
102
RTVSPropertyOp11
 70
     1
102
RTVSPropertyOp12
 70
     1
102
RTVSPropertyOp13
 70
     1
102
RTVSPropertyOp14
 70
     1
102
RTVSPropertyOp15
 70
     1
102
RTVSPropertyOp16
 70
     1
102
RTVSPropertyOp17
 70
     1
102
RTVSPropertyOp18
 70
     1
102
RTVSPropertyOp19
 70
     1
102
RTVSPropertyOp20
 70
     1
102
RTVSPropertyOp21
 70
     1
102
RTVSPropertyOp22
 70
     1
102
RTVSPropertyOp23
 70
     1
102
RTVSPropertyOp24
 70
     1
102
RTVSPropertyOp25
 70
     1
102
RTVSPropertyOp26
 70
     1
102
RTVSPropertyOp27
 70
     1
102
RTVSPropertyOp28
 70
     1
102
RTVSPropertyOp29
 70
     1
102
RTVSPropertyOp30
 70
     1
102
RTVSPropertyOp31
 70
     1
102
RTVSPropertyOp32
 70
     1
  0
XRECORD
  5
77
102
{ACAD_REACTORS
330
76
102
}
330
76
100
AcDbXrecord
280
     1
102
RTVSPropertyOp0
 70
     1
102
RTVSPropertyOp1
 70
     1
102
RTVSPropertyOp2
 70
     1
102
RTVSPropertyOp3
 70
     1
102
RTVSPropertyOp4
 70
     1
102
RTVSPropertyOp5
 70
     1
102
RTVSPropertyOp6
 70
     1
102
RTVSPropertyOp7
 70
     1
102
RTVSPropertyOp8
 70
     1
102
RTVSPropertyOp9
 70
     1
102
RTVSPropertyOp10
 70
     1
102
RTVSPropertyOp11
 70
     1
102
RTVSPropertyOp12
 70
     1
102
RTVSPropertyOp13
 70
     1
102
RTVSPropertyOp14
 70
     1
102
RTVSPropertyOp15
 70
     1
102
RTVSPropertyOp16
 70
     1
102
RTVSPropertyOp17
 70
     1
102
RTVSPropertyOp18
 70
     1
102
RTVSPropertyOp19
 70
     1
102
RTVSPropertyOp20
 70
     1
102
RTVSPropertyOp21
 70
     1
102
RTVSPropertyOp22
 70
     1
102
RTVSPropertyOp23
 70
     1
102
RTVSPropertyOp24
 70
     1
102
RTVSPropertyOp25
 70
     1
102
RTVSPropertyOp26
 70
     1
102
RTVSPropertyOp27
 70
     1
102
RTVSPropertyOp28
 70
     1
102
RTVSPropertyOp29
 70
     1
102
RTVSPropertyOp30
 70
     1
102
RTVSPropertyOp31
 70
     1
102
RTVSPropertyOp32
 70
     1
  0
XRECORD
  5
7F
102
{ACAD_REACTORS
330
7E
102
}
330
7E
100
AcDbXrecord
280
     1
102
RTVSPropertyOp0
 70
     1
102
RTVSPropertyOp1
 70
     1
102
RTVSPropertyOp2
 70
     1
102
RTVSPropertyOp3
 70
     1
102
RTVSPropertyOp4
 70
     1
102
RTVSPropertyOp5
 70
     1
102
RTVSPropertyOp6
 70
     1
102
RTVSPropertyOp7
 70
     1
102
RTVSPropertyOp8
 70
     1
102
RTVSPropertyOp9
 70
     1
102
RTVSPropertyOp10
 70
     1
102
RTVSPropertyOp11
 70
     1
102
RTVSPropertyOp12
 70
     1
102
RTVSPropertyOp13
 70
     1
102
RTVSPropertyOp14
 70
     1
102
RTVSPropertyOp15
 70
     1
102
RTVSPropertyOp16
 70
     1
102
RTVSPropertyOp17
 70
     1
102
RTVSPropertyOp18
 70
     1
102
RTVSPropertyOp19
 70
     1
102
RTVSPropertyOp20
 70
     1
102
RTVSPropertyOp21
 70
     1
102
RTVSPropertyOp22
 70
     1
102
RTVSPropertyOp23
 70
     1
102
RTVSPropertyOp24
 70
     1
102
RTVSPropertyOp25
 70
     1
102
RTVSPropertyOp26
 70
     1
102
RTVSPropertyOp27
 70
     1
102
RTVSPropertyOp28
 70
     1
102
RTVSPropertyOp29
 70
     1
102
RTVSPropertyOp30
 70
     1
102
RTVSPropertyOp31
 70
     1
102
RTVSPropertyOp32
 70
     1
  0
XRECORD
  5
87
102
{ACAD_REACTORS
330
86
102
}
330
86
100
AcDbXrecord
280
     1
102
RTVSPropertyOp0
 70
     1
102
RTVSPropertyOp1
 70
     1
102
RTVSPropertyOp2
 70
     1
102
RTVSPropertyOp3
 70
     1
102
RTVSPropertyOp4
 70
     1
102
RTVSPropertyOp5
 70
     1
102
RTVSPropertyOp6
 70
     1
102
RTVSPropertyOp7
 70
     1
102
RTVSPropertyOp8
 70
     1
102
RTVSPropertyOp9
 70
     1
102
RTVSPropertyOp10
 70
     1
102
RTVSPropertyOp11
 70
     1
102
RTVSPropertyOp12
 70
     1
102
RTVSPropertyOp13
 70
     1
102
RTVSPropertyOp14
 70
     1
102
RTVSPropertyOp15
 70
     1
102
RTVSPropertyOp16
 70
     1
102
RTVSPropertyOp17
 70
     1
102
RTVSPropertyOp18
 70
     1
102
RTVSPropertyOp19
 70
     1
102
RTVSPropertyOp20
 70
     1
102
RTVSPropertyOp21
 70
     1
102
RTVSPropertyOp22
 70
     1
102
RTVSPropertyOp23
 70
     1
102
RTVSPropertyOp24
 70
     1
102
RTVSPropertyOp25
 70
     1
102
RTVSPropertyOp26
 70
     1
102
RTVSPropertyOp27
 70
     1
102
RTVSPropertyOp28
 70
     1
102
RTVSPropertyOp29
 70
     1
102
RTVSPropertyOp30
 70
     1
102
RTVSPropertyOp31
 70
     1
102
RTVSPropertyOp32
 70
     1
  0
XRECORD
  5
7B
102
{ACAD_REACTORS
330
7A
102
}
330
7A
100
AcDbXrecord
280
     1
102
RTVSPropertyOp0
 70
     1
102
RTVSPropertyOp1
 70
     1
102
RTVSPropertyOp2
 70
     1
102
RTVSPropertyOp3
 70
     1
102
RTVSPropertyOp4
 70
     1
102
RTVSPropertyOp5
 70
     1
102
RTVSPropertyOp6
 70
     1
102
RTVSPropertyOp7
 70
     1
102
RTVSPropertyOp8
 70
     1
102
RTVSPropertyOp9
 70
     1
102
RTVSPropertyOp10
 70
     1
102
RTVSPropertyOp11
 70
     1
102
RTVSPropertyOp12
 70
     1
102
RTVSPropertyOp13
 70
     1
102
RTVSPropertyOp14
 70
     1
102
RTVSPropertyOp15
 70
     1
102
RTVSPropertyOp16
 70
     1
102
RTVSPropertyOp17
 70
     1
102
RTVSPropertyOp18
 70
     1
102
RTVSPropertyOp19
 70
     1
102
RTVSPropertyOp20
 70
     1
102
RTVSPropertyOp21
 70
     1
102
RTVSPropertyOp22
 70
     1
102
RTVSPropertyOp23
 70
     1
102
RTVSPropertyOp24
 70
     1
102
RTVSPropertyOp25
 70
     1
102
RTVSPropertyOp26
 70
     1
102
RTVSPropertyOp27
 70
     1
102
RTVSPropertyOp28
 70
     1
102
RTVSPropertyOp29
 70
     1
102
RTVSPropertyOp30
 70
     1
102
RTVSPropertyOp31
 70
     1
102
RTVSPropertyOp32
 70
     1
  0
XRECORD
  5
7D
102
{ACAD_REACTORS
330
7C
102
}
330
7C
100
AcDbXrecord
280
     1
102
RTVSPropertyOp0
 70
     1
102
RTVSPropertyOp1
 70
     1
102
RTVSPropertyOp2
 70
     1
102
RTVSPropertyOp3
 70
     1
102
RTVSPropertyOp4
 70
     1
102
RTVSPropertyOp5
 70
     1
102
RTVSPropertyOp6
 70
     1
102
RTVSPropertyOp7
 70
     1
102
RTVSPropertyOp8
 70
     1
102
RTVSPropertyOp9
 70
     1
102
RTVSPropertyOp10
 70
     1
102
RTVSPropertyOp11
 70
     1
102
RTVSPropertyOp12
 70
     1
102
RTVSPropertyOp13
 70
     1
102
RTVSPropertyOp14
 70
     1
102
RTVSPropertyOp15
 70
     1
102
RTVSPropertyOp16
 70
     1
102
RTVSPropertyOp17
 70
     1
102
RTVSPropertyOp18
 70
     1
102
RTVSPropertyOp19
 70
     1
102
RTVSPropertyOp20
 70
     1
102
RTVSPropertyOp21
 70
     1
102
RTVSPropertyOp22
 70
     1
102
RTVSPropertyOp23
 70
     1
102
RTVSPropertyOp24
 70
     1
102
RTVSPropertyOp25
 70
     1
102
RTVSPropertyOp26
 70
     1
102
RTVSPropertyOp27
 70
     1
102
RTVSPropertyOp28
 70
     1
102
RTVSPropertyOp29
 70
     1
102
RTVSPropertyOp30
 70
     1
102
RTVSPropertyOp31
 70
     1
102
RTVSPropertyOp32
 70
     1
  0
XRECORD
  5
85
102
{ACAD_REACTORS
330
84
102
}
330
84
100
AcDbXrecord
280
     1
102
RTVSPropertyOp0
 70
     1
102
RTVSPropertyOp1
 70
     1
102
RTVSPropertyOp2
 70
     1
102
RTVSPropertyOp3
 70
     1
102
RTVSPropertyOp4
 70
     1
102
RTVSPropertyOp5
 70
     1
102
RTVSPropertyOp6
 70
     1
102
RTVSPropertyOp7
 70
     1
102
RTVSPropertyOp8
 70
     1
102
RTVSPropertyOp9
 70
     1
102
RTVSPropertyOp10
 70
     1
102
RTVSPropertyOp11
 70
     1
102
RTVSPropertyOp12
 70
     1
102
RTVSPropertyOp13
 70
     1
102
RTVSPropertyOp14
 70
     1
102
RTVSPropertyOp15
 70
     1
102
RTVSPropertyOp16
 70
     1
102
RTVSPropertyOp17
 70
     1
102
RTVSPropertyOp18
 70
     1
102
RTVSPropertyOp19
 70
     1
102
RTVSPropertyOp20
 70
     1
102
RTVSPropertyOp21
 70
     1
102
RTVSPropertyOp22
 70
     1
102
RTVSPropertyOp23
 70
     1
102
RTVSPropertyOp24
 70
     1
102
RTVSPropertyOp25
 70
     1
102
RTVSPropertyOp26
 70
     1
102
RTVSPropertyOp27
 70
     1
102
RTVSPropertyOp28
 70
     1
102
RTVSPropertyOp29
 70
     1
102
RTVSPropertyOp30
 70
     1
102
RTVSPropertyOp31
 70
     1
102
RTVSPropertyOp32
 70
     1
  0
XRECORD
  5
69
102
{ACAD_REACTORS
330
68
102
}
330
68
100
AcDbXrecord
280
     1
102
RTVSPropertyOp0
 70
     1
102
RTVSPropertyOp1
 70
     1
102
RTVSPropertyOp2
 70
     1
102
RTVSPropertyOp3
 70
     1
102
RTVSPropertyOp4
 70
     1
102
RTVSPropertyOp5
 70
     1
102
RTVSPropertyOp6
 70
     1
102
RTVSPropertyOp7
 70
     1
102
RTVSPropertyOp8
 70
     1
102
RTVSPropertyOp9
 70
     1
102
RTVSPropertyOp10
 70
     1
102
RTVSPropertyOp11
 70
     1
102
RTVSPropertyOp12
 70
     1
102
RTVSPropertyOp13
 70
     1
102
RTVSPropertyOp14
 70
     1
102
RTVSPropertyOp15
 70
     1
102
RTVSPropertyOp16
 70
     1
102
RTVSPropertyOp17
 70
     1
102
RTVSPropertyOp18
 70
     1
102
RTVSPropertyOp19
 70
     1
102
RTVSPropertyOp20
 70
     1
102
RTVSPropertyOp21
 70
     1
102
RTVSPropertyOp22
 70
     1
102
RTVSPropertyOp23
 70
     1
102
RTVSPropertyOp24
 70
     1
102
RTVSPropertyOp25
 70
     1
102
RTVSPropertyOp26
 70
     1
102
RTVSPropertyOp27
 70
     1
102
RTVSPropertyOp28
 70
     1
102
RTVSPropertyOp29
 70
     1
102
RTVSPropertyOp30
 70
     1
102
RTVSPropertyOp31
 70
     1
102
RTVSPropertyOp32
 70
     1
  0
XRECORD
  5
6B
102
{ACAD_REACTORS
330
6A
102
}
330
6A
100
AcDbXrecord
280
     1
102
RTVSPropertyOp0
 70
     1
102
RTVSPropertyOp1
 70
     1
102
RTVSPropertyOp2
 70
     1
102
RTVSPropertyOp3
 70
     1
102
RTVSPropertyOp4
 70
     1
102
RTVSPropertyOp5
 70
     1
102
RTVSPropertyOp6
 70
     1
102
RTVSPropertyOp7
 70
     1
102
RTVSPropertyOp8
 70
     1
102
RTVSPropertyOp9
 70
     1
102
RTVSPropertyOp10
 70
     1
102
RTVSPropertyOp11
 70
     1
102
RTVSPropertyOp12
 70
     1
102
RTVSPropertyOp13
 70
     1
102
RTVSPropertyOp14
 70
     1
102
RTVSPropertyOp15
 70
     1
102
RTVSPropertyOp16
 70
     1
102
RTVSPropertyOp17
 70
     1
102
RTVSPropertyOp18
 70
     1
102
RTVSPropertyOp19
 70
     1
102
RTVSPropertyOp20
 70
     1
102
RTVSPropertyOp21
 70
     1
102
RTVSPropertyOp22
 70
     1
102
RTVSPropertyOp23
 70
     1
102
RTVSPropertyOp24
 70
     1
102
RTVSPropertyOp25
 70
     1
102
RTVSPropertyOp26
 70
     1
102
RTVSPropertyOp27
 70
     1
102
RTVSPropertyOp28
 70
     1
102
RTVSPropertyOp29
 70
     1
102
RTVSPropertyOp30
 70
     1
102
RTVSPropertyOp31
 70
     1
102
RTVSPropertyOp32
 70
     1
  0
XRECORD
  5
6D
102
{ACAD_REACTORS
330
6C
102
}
330
6C
100
AcDbXrecord
280
     1
102
RTVSPropertyOp0
 70
     1
102
RTVSPropertyOp1
 70
     1
102
RTVSPropertyOp2
 70
     1
102
RTVSPropertyOp3
 70
     1
102
RTVSPropertyOp4
 70
     1
102
RTVSPropertyOp5
 70
     1
102
RTVSPropertyOp6
 70
     1
102
RTVSPropertyOp7
 70
     1
102
RTVSPropertyOp8
 70
     1
102
RTVSPropertyOp9
 70
     1
102
RTVSPropertyOp10
 70
     1
102
RTVSPropertyOp11
 70
     1
102
RTVSPropertyOp12
 70
     1
102
RTVSPropertyOp13
 70
     1
102
RTVSPropertyOp14
 70
     1
102
RTVSPropertyOp15
 70
     1
102
RTVSPropertyOp16
 70
     1
102
RTVSPropertyOp17
 70
     1
102
RTVSPropertyOp18
 70
     1
102
RTVSPropertyOp19
 70
     1
102
RTVSPropertyOp20
 70
     1
102
RTVSPropertyOp21
 70
     1
102
RTVSPropertyOp22
 70
     1
102
RTVSPropertyOp23
 70
     1
102
RTVSPropertyOp24
 70
     1
102
RTVSPropertyOp25
 70
     1
102
RTVSPropertyOp26
 70
     1
102
RTVSPropertyOp27
 70
     1
102
RTVSPropertyOp28
 70
     1
102
RTVSPropertyOp29
 70
     1
102
RTVSPropertyOp30
 70
     1
102
RTVSPropertyOp31
 70
     1
102
RTVSPropertyOp32
 70
     1
  0
XRECORD
  5
6F
102
{ACAD_REACTORS
330
6E
102
}
330
6E
100
AcDbXrecord
280
     1
102
RTVSPropertyOp0
 70
     1
102
RTVSPropertyOp1
 70
     1
102
RTVSPropertyOp2
 70
     1
102
RTVSPropertyOp3
 70
     1
102
RTVSPropertyOp4
 70
     1
102
RTVSPropertyOp5
 70
     1
102
RTVSPropertyOp6
 70
     1
102
RTVSPropertyOp7
 70
     1
102
RTVSPropertyOp8
 70
     1
102
RTVSPropertyOp9
 70
     1
102
RTVSPropertyOp10
 70
     1
102
RTVSPropertyOp11
 70
     1
102
RTVSPropertyOp12
 70
     1
102
RTVSPropertyOp13
 70
     1
102
RTVSPropertyOp14
 70
     1
102
RTVSPropertyOp15
 70
     1
102
RTVSPropertyOp16
 70
     1
102
RTVSPropertyOp17
 70
     1
102
RTVSPropertyOp18
 70
     1
102
RTVSPropertyOp19
 70
     1
102
RTVSPropertyOp20
 70
     1
102
RTVSPropertyOp21
 70
     1
102
RTVSPropertyOp22
 70
     1
102
RTVSPropertyOp23
 70
     1
102
RTVSPropertyOp24
 70
     1
102
RTVSPropertyOp25
 70
     1
102
RTVSPropertyOp26
 70
     1
102
RTVSPropertyOp27
 70
     1
102
RTVSPropertyOp28
 70
     1
102
RTVSPropertyOp29
 70
     1
102
RTVSPropertyOp30
 70
     1
102
RTVSPropertyOp31
 70
     1
102
RTVSPropertyOp32
 70
     1
  0
XRECORD
  5
83
102
{ACAD_REACTORS
330
82
102
}
330
82
100
AcDbXrecord
280
     1
102
RTVSPropertyOp0
 70
     1
102
RTVSPropertyOp1
 70
     1
102
RTVSPropertyOp2
 70
     1
102
RTVSPropertyOp3
 70
     1
102
RTVSPropertyOp4
 70
     1
102
RTVSPropertyOp5
 70
     1
102
RTVSPropertyOp6
 70
     1
102
RTVSPropertyOp7
 70
     1
102
RTVSPropertyOp8
 70
     1
102
RTVSPropertyOp9
 70
     1
102
RTVSPropertyOp10
 70
     1
102
RTVSPropertyOp11
 70
     1
102
RTVSPropertyOp12
 70
     1
102
RTVSPropertyOp13
 70
     1
102
RTVSPropertyOp14
 70
     1
102
RTVSPropertyOp15
 70
     1
102
RTVSPropertyOp16
 70
     1
102
RTVSPropertyOp17
 70
     1
102
RTVSPropertyOp18
 70
     1
102
RTVSPropertyOp19
 70
     1
102
RTVSPropertyOp20
 70
     1
102
RTVSPropertyOp21
 70
     1
102
RTVSPropertyOp22
 70
     1
102
RTVSPropertyOp23
 70
     1
102
RTVSPropertyOp24
 70
     1
102
RTVSPropertyOp25
 70
     1
102
RTVSPropertyOp26
 70
     1
102
RTVSPropertyOp27
 70
     1
102
RTVSPropertyOp28
 70
     1
102
RTVSPropertyOp29
 70
     1
102
RTVSPropertyOp30
 70
     1
102
RTVSPropertyOp31
 70
     1
102
RTVSPropertyOp32
 70
     1
  0
XRECORD
  5
79
102
{ACAD_REACTORS
330
78
102
}
330
78
100
AcDbXrecord
280
     1
102
RTVSPropertyOp0
 70
     1
102
RTVSPropertyOp1
 70
     1
102
RTVSPropertyOp2
 70
     1
102
RTVSPropertyOp3
 70
     1
102
RTVSPropertyOp4
 70
     1
102
RTVSPropertyOp5
 70
     1
102
RTVSPropertyOp6
 70
     1
102
RTVSPropertyOp7
 70
     1
102
RTVSPropertyOp8
 70
     1
102
RTVSPropertyOp9
 70
     1
102
RTVSPropertyOp10
 70
     1
102
RTVSPropertyOp11
 70
     1
102
RTVSPropertyOp12
 70
     1
102
RTVSPropertyOp13
 70
     1
102
RTVSPropertyOp14
 70
     1
102
RTVSPropertyOp15
 70
     1
102
RTVSPropertyOp16
 70
     1
102
RTVSPropertyOp17
 70
     1
102
RTVSPropertyOp18
 70
     1
102
RTVSPropertyOp19
 70
     1
102
RTVSPropertyOp20
 70
     1
102
RTVSPropertyOp21
 70
     1
102
RTVSPropertyOp22
 70
     1
102
RTVSPropertyOp23
 70
     1
102
RTVSPropertyOp24
 70
     1
102
RTVSPropertyOp25
 70
     1
102
RTVSPropertyOp26
 70
     1
102
RTVSPropertyOp27
 70
     1
102
RTVSPropertyOp28
 70
     1
102
RTVSPropertyOp29
 70
     1
102
RTVSPropertyOp30
 70
     1
102
RTVSPropertyOp31
 70
     1
102
RTVSPropertyOp32
 70
     1
  0
XRECORD
  5
81
102
{ACAD_REACTORS
330
80
102
}
330
80
100
AcDbXrecord
280
     1
102
RTVSPropertyOp0
 70
     1
102
RTVSPropertyOp1
 70
     1
102
RTVSPropertyOp2
 70
     1
102
RTVSPropertyOp3
 70
     1
102
RTVSPropertyOp4
 70
     1
102
RTVSPropertyOp5
 70
     1
102
RTVSPropertyOp6
 70
     1
102
RTVSPropertyOp7
 70
     1
102
RTVSPropertyOp8
 70
     1
102
RTVSPropertyOp9
 70
     1
102
RTVSPropertyOp10
 70
     1
102
RTVSPropertyOp11
 70
     1
102
RTVSPropertyOp12
 70
     1
102
RTVSPropertyOp13
 70
     1
102
RTVSPropertyOp14
 70
     1
102
RTVSPropertyOp15
 70
     1
102
RTVSPropertyOp16
 70
     1
102
RTVSPropertyOp17
 70
     1
102
RTVSPropertyOp18
 70
     1
102
RTVSPropertyOp19
 70
     1
102
RTVSPropertyOp20
 70
     1
102
RTVSPropertyOp21
 70
     1
102
RTVSPropertyOp22
 70
     1
102
RTVSPropertyOp23
 70
     1
102
RTVSPropertyOp24
 70
     1
102
RTVSPropertyOp25
 70
     1
102
RTVSPropertyOp26
 70
     1
102
RTVSPropertyOp27
 70
     1
102
RTVSPropertyOp28
 70
     1
102
RTVSPropertyOp29
 70
     1
102
RTVSPropertyOp30
 70
     1
102
RTVSPropertyOp31
 70
     1
102
RTVSPropertyOp32
 70
     1
  0
ENDSEC
  0
EOF
